M48
;DRILL file {KiCad no-vcs-found-33e0758~58~ubuntu16.04.1} date Wed May  9 13:31:18 2018
;FORMAT={-:-/ absolute / metric / decimal}
FMAT,2
METRIC,TZ
T1C0.400
T2C0.900
T3C1.000
T4C1.200
T5C1.501
%
G90
G05
M71
T1
X112.4Y-70.8
X112.6Y-72.2
X119.Y-91.4
X121.6Y-90.4
X123.Y-95.4
X124.8Y-98.4
X126.Y-79.2
X126.Y-80.8
X126.Y-83.4
X126.Y-85.2
X126.2Y-77.6
X129.Y-88.2
X131.2Y-99.2
X133.8Y-69.8
X133.8Y-71.8
X134.6Y-89.2
X136.4Y-91.
X137.6Y-75.8
T2
X105.Y-88.372
X107.828Y-91.2
X110.657Y-94.028
X119.Y-76.
X116.8Y-78.2
X121.2Y-76.
X116.8Y-76.
X116.8Y-80.4
X121.2Y-78.2
X119.Y-80.4
X121.2Y-80.4
X119.Y-78.2
T3
X101.Y-76.
X101.Y-78.54
X100.204Y-84.396
X102.Y-82.6
T4
X100.581Y-89.963
X104.823Y-85.72
X109.066Y-98.448
X113.309Y-94.205
T5
X106.576Y-81.958
X131.976Y-81.958
T0
M30
