G04 #@! TF.GenerationSoftware,KiCad,Pcbnew,no-vcs-found-33e0758~58~ubuntu16.04.1*
G04 #@! TF.CreationDate,2018-05-09T13:31:26+02:00*
G04 #@! TF.ProjectId,dropbuzzer,64726F7062757A7A65722E6B69636164,rev?*
G04 #@! TF.FileFunction,Copper,L2,Bot,Signal*
G04 #@! TF.FilePolarity,Positive*
%FSLAX46Y46*%
G04 Gerber Fmt 4.6, Leading zero omitted, Abs format (unit mm)*
G04 Created by KiCad (PCBNEW no-vcs-found-33e0758~58~ubuntu16.04.1) date Wed May  9 13:31:26 2018*
%MOMM*%
%LPD*%
G01*
G04 APERTURE LIST*
%ADD10C,0.100000*%
%ADD11C,2.100000*%
%ADD12O,1.700000X1.700000*%
%ADD13R,1.700000X1.700000*%
%ADD14C,1.800000*%
%ADD15C,2.999740*%
%ADD16C,1.700000*%
%ADD17C,1.700000*%
%ADD18C,2.000000*%
%ADD19C,0.800000*%
%ADD20C,0.600000*%
%ADD21C,0.400000*%
%ADD22C,0.254000*%
G04 APERTURE END LIST*
D10*
D11*
X113000000Y-100400000D03*
D12*
X101000000Y-78540000D03*
D13*
X101000000Y-76000000D03*
D14*
X121200000Y-80400000D03*
X119000000Y-80400000D03*
X116800000Y-80400000D03*
X116800000Y-78200000D03*
X119000000Y-78200000D03*
X121200000Y-78200000D03*
X121200000Y-76000000D03*
X119000000Y-76000000D03*
D15*
X106575721Y-81957960D03*
X131975721Y-81957960D03*
D16*
X100203949Y-84396051D03*
D17*
X100203949Y-84396051D02*
X100203949Y-84396051D01*
D16*
X102000000Y-82600000D03*
D10*
G36*
X100797918Y-82600000D02*
X102000000Y-81397918D01*
X103202082Y-82600000D01*
X102000000Y-83802082D01*
X100797918Y-82600000D01*
X100797918Y-82600000D01*
G37*
D16*
X110656854Y-94028427D03*
X107828427Y-91200000D03*
X105000000Y-88371573D03*
D18*
X100580583Y-89962563D03*
X109065864Y-98447845D03*
X113308505Y-94205204D03*
X104823223Y-85719923D03*
D14*
X116800000Y-76000000D03*
D19*
X133800000Y-71800000D03*
X112600000Y-72200000D03*
X119000000Y-91400000D03*
X123000000Y-95400000D03*
X133800000Y-69800000D03*
X112400000Y-70800000D03*
X137600000Y-75800000D03*
X129000000Y-88200000D03*
X136400000Y-91000000D03*
X126000000Y-85200000D03*
X131200000Y-99200000D03*
X126000000Y-83400000D03*
X124800000Y-98400000D03*
X126000000Y-80800000D03*
X121600000Y-90400000D03*
X126200000Y-77600000D03*
X134600000Y-89200000D03*
X126000000Y-79200000D03*
D20*
X133400000Y-71800000D02*
X133800000Y-71800000D01*
X132200000Y-70600000D02*
X133400000Y-71800000D01*
X114200000Y-70600000D02*
X132200000Y-70600000D01*
X112600000Y-72200000D02*
X114200000Y-70600000D01*
X119000000Y-91400000D02*
X121800000Y-94200000D01*
X121800000Y-94200000D02*
X123000000Y-95400000D01*
X133600000Y-69600000D02*
X133800000Y-69800000D01*
X113600000Y-69600000D02*
X133600000Y-69600000D01*
X112400000Y-70800000D02*
X113600000Y-69600000D01*
X104000000Y-76000000D02*
X101000000Y-76000000D01*
X119000000Y-91400000D02*
X117400000Y-89800000D01*
X117400000Y-89800000D02*
X114400000Y-89800000D01*
X114400000Y-89800000D02*
X110000000Y-85400000D01*
X110000000Y-85400000D02*
X110000000Y-82000000D01*
X110000000Y-82000000D02*
X104000000Y-76000000D01*
D21*
X138200000Y-76400000D02*
X137600000Y-75800000D01*
X138200000Y-82800000D02*
X138200000Y-76400000D01*
X132800000Y-88200000D02*
X138200000Y-82800000D01*
X129000000Y-88200000D02*
X132800000Y-88200000D01*
X129000000Y-91000000D02*
X136400000Y-91000000D01*
X126200000Y-88200000D02*
X129000000Y-91000000D01*
X126200000Y-85400000D02*
X126200000Y-88200000D01*
X126000000Y-85200000D02*
X126200000Y-85400000D01*
X126000000Y-89400000D02*
X126000000Y-89200000D01*
X125000000Y-84400000D02*
X126000000Y-83400000D01*
X125000000Y-88200000D02*
X125000000Y-84400000D01*
X126000000Y-89200000D02*
X125000000Y-88200000D01*
X131200000Y-97600000D02*
X131200000Y-99200000D01*
X126000000Y-92400000D02*
X131200000Y-97600000D01*
X126000000Y-89400000D02*
X126000000Y-92400000D01*
X126000000Y-80800000D02*
X124000000Y-82800000D01*
X124000000Y-89200000D02*
X125100000Y-90300000D01*
X124000000Y-82800000D02*
X124000000Y-89200000D01*
X125100000Y-90300000D02*
X125100000Y-98100000D01*
X125100000Y-98100000D02*
X124800000Y-98400000D01*
X124200000Y-79600000D02*
X123000000Y-80800000D01*
X123000000Y-80800000D02*
X123000000Y-87800000D01*
X123000000Y-87800000D02*
X123000000Y-88000000D01*
X123000000Y-88000000D02*
X123000000Y-87800000D01*
X124200000Y-79600000D02*
X125200000Y-78600000D01*
X121600000Y-90400000D02*
X121600000Y-89200000D01*
X121600000Y-89200000D02*
X123000000Y-87800000D01*
X125200000Y-78600000D02*
X126200000Y-77600000D01*
X126200000Y-77600000D02*
X126000000Y-77600000D01*
X126000000Y-79200000D02*
X126200000Y-79200000D01*
X126200000Y-79200000D02*
X127600000Y-80600000D01*
X128400000Y-89200000D02*
X134600000Y-89200000D01*
X128400000Y-89200000D02*
X127600000Y-88400000D01*
X127600000Y-88400000D02*
X127600000Y-80600000D01*
D22*
G36*
X112184133Y-70016019D02*
X111943468Y-70115460D01*
X111716258Y-70342274D01*
X111593140Y-70638774D01*
X111592860Y-70959818D01*
X111715460Y-71256532D01*
X111942274Y-71483742D01*
X112106803Y-71552061D01*
X111916258Y-71742274D01*
X111793140Y-72038774D01*
X111792860Y-72359818D01*
X111915460Y-72656532D01*
X112142274Y-72883742D01*
X112438774Y-73006860D01*
X112759818Y-73007140D01*
X113056532Y-72884540D01*
X113283742Y-72657726D01*
X113384306Y-72415542D01*
X114492849Y-71307000D01*
X131907152Y-71307000D01*
X132900075Y-72299924D01*
X133129442Y-72453183D01*
X133174330Y-72462112D01*
X133396709Y-72506345D01*
X133638774Y-72606860D01*
X133959818Y-72607140D01*
X134256532Y-72484540D01*
X134483742Y-72257726D01*
X134606860Y-71961226D01*
X134607140Y-71640182D01*
X134484540Y-71343468D01*
X134257726Y-71116258D01*
X133961226Y-70993140D01*
X133640182Y-70992860D01*
X133606589Y-71006740D01*
X132906848Y-70307000D01*
X133165840Y-70307000D01*
X133342274Y-70483742D01*
X133638774Y-70606860D01*
X133959818Y-70607140D01*
X134256532Y-70484540D01*
X134483742Y-70257726D01*
X134606860Y-69961226D01*
X134607140Y-69640182D01*
X134484540Y-69343468D01*
X134423179Y-69282000D01*
X136100296Y-69282000D01*
X139667459Y-76514173D01*
X140208801Y-84764315D01*
X137551743Y-92593617D01*
X132100800Y-98810132D01*
X131944034Y-98887455D01*
X131884540Y-98743468D01*
X131807000Y-98665793D01*
X131807000Y-97600005D01*
X131807001Y-97600000D01*
X131760795Y-97367712D01*
X131760795Y-97367711D01*
X131629214Y-97170786D01*
X131629211Y-97170784D01*
X126607000Y-92148572D01*
X126607000Y-89465428D01*
X128570786Y-91429214D01*
X128767711Y-91560795D01*
X129000000Y-91607000D01*
X135865666Y-91607000D01*
X135942274Y-91683742D01*
X136238774Y-91806860D01*
X136559818Y-91807140D01*
X136856532Y-91684540D01*
X137083742Y-91457726D01*
X137206860Y-91161226D01*
X137207140Y-90840182D01*
X137084540Y-90543468D01*
X136857726Y-90316258D01*
X136561226Y-90193140D01*
X136240182Y-90192860D01*
X135943468Y-90315460D01*
X135865793Y-90393000D01*
X129251428Y-90393000D01*
X128665428Y-89807000D01*
X134065666Y-89807000D01*
X134142274Y-89883742D01*
X134438774Y-90006860D01*
X134759818Y-90007140D01*
X135056532Y-89884540D01*
X135283742Y-89657726D01*
X135406860Y-89361226D01*
X135407140Y-89040182D01*
X135284540Y-88743468D01*
X135057726Y-88516258D01*
X134761226Y-88393140D01*
X134440182Y-88392860D01*
X134143468Y-88515460D01*
X134065793Y-88593000D01*
X133265428Y-88593000D01*
X138629214Y-83229214D01*
X138760795Y-83032289D01*
X138807000Y-82800000D01*
X138807000Y-76400000D01*
X138760795Y-76167711D01*
X138629214Y-75970786D01*
X138407045Y-75748617D01*
X138407140Y-75640182D01*
X138284540Y-75343468D01*
X138057726Y-75116258D01*
X137761226Y-74993140D01*
X137440182Y-74992860D01*
X137143468Y-75115460D01*
X136916258Y-75342274D01*
X136793140Y-75638774D01*
X136792860Y-75959818D01*
X136915460Y-76256532D01*
X137142274Y-76483742D01*
X137438774Y-76606860D01*
X137548528Y-76606956D01*
X137593000Y-76651428D01*
X137593000Y-82548572D01*
X132548572Y-87593000D01*
X129534334Y-87593000D01*
X129457726Y-87516258D01*
X129161226Y-87393140D01*
X128840182Y-87392860D01*
X128543468Y-87515460D01*
X128316258Y-87742274D01*
X128207000Y-88005396D01*
X128207000Y-82335596D01*
X130068521Y-82335596D01*
X130358213Y-83036704D01*
X130894155Y-83573583D01*
X131594757Y-83864498D01*
X132353357Y-83865160D01*
X133054465Y-83575468D01*
X133591344Y-83039526D01*
X133882259Y-82338924D01*
X133882921Y-81580324D01*
X133593229Y-80879216D01*
X133057287Y-80342337D01*
X132356685Y-80051422D01*
X131598085Y-80050760D01*
X130896977Y-80340452D01*
X130360098Y-80876394D01*
X130069183Y-81576996D01*
X130068521Y-82335596D01*
X128207000Y-82335596D01*
X128207000Y-80600000D01*
X128160795Y-80367711D01*
X128029214Y-80170786D01*
X126742733Y-78884305D01*
X126684540Y-78743468D01*
X126457726Y-78516258D01*
X126234756Y-78423672D01*
X126251383Y-78407045D01*
X126359818Y-78407140D01*
X126656532Y-78284540D01*
X126883742Y-78057726D01*
X127006860Y-77761226D01*
X127007140Y-77440182D01*
X126884540Y-77143468D01*
X126657726Y-76916258D01*
X126361226Y-76793140D01*
X126040182Y-76792860D01*
X125743468Y-76915460D01*
X125516258Y-77142274D01*
X125393140Y-77438774D01*
X125393044Y-77548528D01*
X122570786Y-80370786D01*
X122439205Y-80567711D01*
X122393000Y-80800000D01*
X122393000Y-87548572D01*
X121170786Y-88770786D01*
X121039205Y-88967711D01*
X120993000Y-89200000D01*
X120993000Y-89865666D01*
X120916258Y-89942274D01*
X120793140Y-90238774D01*
X120792860Y-90559818D01*
X120915460Y-90856532D01*
X121142274Y-91083742D01*
X121438774Y-91206860D01*
X121759818Y-91207140D01*
X122056532Y-91084540D01*
X122283742Y-90857726D01*
X122406860Y-90561226D01*
X122407140Y-90240182D01*
X122284540Y-89943468D01*
X122207000Y-89865793D01*
X122207000Y-89451428D01*
X123064198Y-88594230D01*
X123232289Y-88560795D01*
X123393000Y-88453411D01*
X123393000Y-89200000D01*
X123439205Y-89432289D01*
X123570786Y-89629214D01*
X124493000Y-90551428D01*
X124493000Y-97653674D01*
X124343468Y-97715460D01*
X124116258Y-97942274D01*
X123993140Y-98238774D01*
X123992860Y-98559818D01*
X124115460Y-98856532D01*
X124342274Y-99083742D01*
X124638774Y-99206860D01*
X124959818Y-99207140D01*
X125256532Y-99084540D01*
X125483742Y-98857726D01*
X125606860Y-98561226D01*
X125606989Y-98412815D01*
X125660795Y-98332289D01*
X125707000Y-98100000D01*
X125707000Y-92965428D01*
X130593000Y-97851427D01*
X130593000Y-98665666D01*
X130516258Y-98742274D01*
X130393140Y-99038774D01*
X130392860Y-99359818D01*
X130493337Y-99602990D01*
X124685827Y-102467459D01*
X116435685Y-103008801D01*
X113041889Y-101857037D01*
X113288544Y-101857252D01*
X113824246Y-101635904D01*
X114234464Y-101226402D01*
X114456746Y-100691087D01*
X114457252Y-100111456D01*
X114235904Y-99575754D01*
X113826402Y-99165536D01*
X113291087Y-98943254D01*
X112711456Y-98942748D01*
X112175754Y-99164096D01*
X111765536Y-99573598D01*
X111543254Y-100108913D01*
X111542748Y-100688544D01*
X111764096Y-101224246D01*
X112064744Y-101525419D01*
X108606383Y-100351743D01*
X106752864Y-98726487D01*
X107658620Y-98726487D01*
X107872372Y-99243805D01*
X108267822Y-99639946D01*
X108784767Y-99854600D01*
X109344506Y-99855089D01*
X109861824Y-99641337D01*
X110257965Y-99245887D01*
X110472619Y-98728942D01*
X110473108Y-98169203D01*
X110259356Y-97651885D01*
X109863906Y-97255744D01*
X109346961Y-97041090D01*
X108787222Y-97040601D01*
X108269904Y-97254353D01*
X107873763Y-97649803D01*
X107659109Y-98166748D01*
X107658620Y-98726487D01*
X106752864Y-98726487D01*
X102389868Y-94900800D01*
X102082367Y-94277363D01*
X109399636Y-94277363D01*
X109590600Y-94739530D01*
X109943891Y-95093438D01*
X110405724Y-95285208D01*
X110905790Y-95285645D01*
X111367957Y-95094681D01*
X111721865Y-94741390D01*
X111901414Y-94308989D01*
X111901261Y-94483846D01*
X112115013Y-95001164D01*
X112510463Y-95397305D01*
X113027408Y-95611959D01*
X113587147Y-95612448D01*
X114104465Y-95398696D01*
X114500606Y-95003246D01*
X114715260Y-94486301D01*
X114715749Y-93926562D01*
X114501997Y-93409244D01*
X114106547Y-93013103D01*
X113589602Y-92798449D01*
X113029863Y-92797960D01*
X112512545Y-93011712D01*
X112116404Y-93407162D01*
X111913971Y-93894675D01*
X111914072Y-93779491D01*
X111723108Y-93317324D01*
X111369817Y-92963416D01*
X110907984Y-92771646D01*
X110407918Y-92771209D01*
X109945751Y-92962173D01*
X109591843Y-93315464D01*
X109400073Y-93777297D01*
X109399636Y-94277363D01*
X102082367Y-94277363D01*
X100687286Y-91448936D01*
X106571209Y-91448936D01*
X106762173Y-91911103D01*
X107115464Y-92265011D01*
X107577297Y-92456781D01*
X108077363Y-92457218D01*
X108539530Y-92266254D01*
X108893438Y-91912963D01*
X109085208Y-91451130D01*
X109085645Y-90951064D01*
X108894681Y-90488897D01*
X108541390Y-90134989D01*
X108079557Y-89943219D01*
X107579491Y-89942782D01*
X107117324Y-90133746D01*
X106763416Y-90487037D01*
X106571646Y-90948870D01*
X106571209Y-91448936D01*
X100687286Y-91448936D01*
X100648166Y-91369623D01*
X100859225Y-91369807D01*
X101376543Y-91156055D01*
X101772684Y-90760605D01*
X101987338Y-90243660D01*
X101987827Y-89683921D01*
X101774075Y-89166603D01*
X101378625Y-88770462D01*
X100861680Y-88555808D01*
X100301941Y-88555319D01*
X99784623Y-88769071D01*
X99503768Y-89049436D01*
X98732541Y-87485827D01*
X98634953Y-85998565D01*
X103415979Y-85998565D01*
X103629731Y-86515883D01*
X104025181Y-86912024D01*
X104542126Y-87126678D01*
X104720862Y-87126834D01*
X104288897Y-87305319D01*
X103934989Y-87658610D01*
X103743219Y-88120443D01*
X103742782Y-88620509D01*
X103933746Y-89082676D01*
X104287037Y-89436584D01*
X104748870Y-89628354D01*
X105248936Y-89628791D01*
X105711103Y-89437827D01*
X106065011Y-89084536D01*
X106256781Y-88622703D01*
X106257218Y-88122637D01*
X106066254Y-87660470D01*
X105712963Y-87306562D01*
X105251130Y-87114792D01*
X105132067Y-87114688D01*
X105619183Y-86913415D01*
X106015324Y-86517965D01*
X106229978Y-86001020D01*
X106230467Y-85441281D01*
X106016715Y-84923963D01*
X105621265Y-84527822D01*
X105104320Y-84313168D01*
X104544581Y-84312679D01*
X104027263Y-84526431D01*
X103631122Y-84921881D01*
X103416468Y-85438826D01*
X103415979Y-85998565D01*
X98634953Y-85998565D01*
X98528660Y-84378638D01*
X98929536Y-84378638D01*
X99025219Y-84859671D01*
X99297703Y-85267471D01*
X99332528Y-85302297D01*
X99740328Y-85574781D01*
X100221362Y-85670463D01*
X100702395Y-85574781D01*
X101110195Y-85302297D01*
X101382679Y-84894497D01*
X101478361Y-84413464D01*
X101382679Y-83932430D01*
X101110195Y-83524630D01*
X101092253Y-83506688D01*
X101272917Y-83506688D01*
X101272917Y-83650584D01*
X101769453Y-84147119D01*
X101919043Y-84209082D01*
X102080957Y-84209082D01*
X102230547Y-84147120D01*
X102727083Y-83650584D01*
X102727083Y-83506688D01*
X102000000Y-82779605D01*
X101272917Y-83506688D01*
X101092253Y-83506688D01*
X101075369Y-83489805D01*
X100667569Y-83217321D01*
X100186536Y-83121638D01*
X99705503Y-83217321D01*
X99297703Y-83489805D01*
X99025219Y-83897605D01*
X98929536Y-84378638D01*
X98528660Y-84378638D01*
X98406641Y-82519043D01*
X100390918Y-82519043D01*
X100390918Y-82680957D01*
X100452881Y-82830547D01*
X100949416Y-83327083D01*
X101093312Y-83327083D01*
X101820395Y-82600000D01*
X102179605Y-82600000D01*
X102906688Y-83327083D01*
X103050584Y-83327083D01*
X103547120Y-82830547D01*
X103609082Y-82680957D01*
X103609082Y-82519043D01*
X103547119Y-82369453D01*
X103050584Y-81872917D01*
X102906688Y-81872917D01*
X102179605Y-82600000D01*
X101820395Y-82600000D01*
X101093312Y-81872917D01*
X100949416Y-81872917D01*
X100452880Y-82369453D01*
X100390918Y-82519043D01*
X98406641Y-82519043D01*
X98343018Y-81549416D01*
X101272917Y-81549416D01*
X101272917Y-81693312D01*
X102000000Y-82420395D01*
X102727083Y-81693312D01*
X102727083Y-81549416D01*
X102230547Y-81052881D01*
X102080957Y-80990918D01*
X101919043Y-80990918D01*
X101769453Y-81052880D01*
X101272917Y-81549416D01*
X98343018Y-81549416D01*
X98191199Y-79235685D01*
X98427296Y-78540000D01*
X99718374Y-78540000D01*
X99814057Y-79021033D01*
X100086541Y-79428833D01*
X100494341Y-79701317D01*
X100975374Y-79797000D01*
X101024626Y-79797000D01*
X101505659Y-79701317D01*
X101913459Y-79428833D01*
X102185943Y-79021033D01*
X102281626Y-78540000D01*
X102185943Y-78058967D01*
X101913459Y-77651167D01*
X101505659Y-77378683D01*
X101024626Y-77283000D01*
X100975374Y-77283000D01*
X100494341Y-77378683D01*
X100086541Y-77651167D01*
X99814057Y-78058967D01*
X99718374Y-78540000D01*
X98427296Y-78540000D01*
X99577771Y-75150000D01*
X99735027Y-75150000D01*
X99735027Y-76850000D01*
X99766615Y-77008803D01*
X99856570Y-77143430D01*
X99991197Y-77233385D01*
X100150000Y-77264973D01*
X101850000Y-77264973D01*
X102008803Y-77233385D01*
X102143430Y-77143430D01*
X102233385Y-77008803D01*
X102264973Y-76850000D01*
X102264973Y-76707000D01*
X103707152Y-76707000D01*
X107118953Y-80118801D01*
X106956685Y-80051422D01*
X106198085Y-80050760D01*
X105496977Y-80340452D01*
X104960098Y-80876394D01*
X104669183Y-81576996D01*
X104668521Y-82335596D01*
X104958213Y-83036704D01*
X105494155Y-83573583D01*
X106194757Y-83864498D01*
X106953357Y-83865160D01*
X107654465Y-83575468D01*
X108191344Y-83039526D01*
X108482259Y-82338924D01*
X108482921Y-81580324D01*
X108414230Y-81414079D01*
X109293000Y-82292849D01*
X109293000Y-85400000D01*
X109339205Y-85632289D01*
X109346817Y-85670557D01*
X109500076Y-85899924D01*
X113900076Y-90299925D01*
X114129443Y-90453183D01*
X114400000Y-90507000D01*
X117107152Y-90507000D01*
X118216020Y-91615868D01*
X118315460Y-91856532D01*
X118542274Y-92083742D01*
X118784458Y-92184306D01*
X121300076Y-94699925D01*
X121300079Y-94699927D01*
X122216020Y-95615868D01*
X122315460Y-95856532D01*
X122542274Y-96083742D01*
X122838774Y-96206860D01*
X123159818Y-96207140D01*
X123456532Y-96084540D01*
X123683742Y-95857726D01*
X123806860Y-95561226D01*
X123807140Y-95240182D01*
X123684540Y-94943468D01*
X123457726Y-94716258D01*
X123215543Y-94615695D01*
X122299927Y-93700079D01*
X122299925Y-93700076D01*
X119783981Y-91184133D01*
X119684540Y-90943468D01*
X119457726Y-90716258D01*
X119215544Y-90615695D01*
X117899924Y-89300076D01*
X117670557Y-89146817D01*
X117400000Y-89093000D01*
X114692849Y-89093000D01*
X110707000Y-85107152D01*
X110707000Y-82000000D01*
X110653183Y-81729443D01*
X110653183Y-81729442D01*
X110499924Y-81500075D01*
X104499924Y-75500076D01*
X104270557Y-75346817D01*
X104253720Y-75343468D01*
X104000000Y-75293000D01*
X102264973Y-75293000D01*
X102264973Y-75150000D01*
X102233385Y-74991197D01*
X102143430Y-74856570D01*
X102008803Y-74766615D01*
X101850000Y-74735027D01*
X100150000Y-74735027D01*
X99991197Y-74766615D01*
X99856570Y-74856570D01*
X99766615Y-74991197D01*
X99735027Y-75150000D01*
X99577771Y-75150000D01*
X100858668Y-71375703D01*
X102257637Y-69282000D01*
X112918151Y-69282000D01*
X112184133Y-70016019D01*
X112184133Y-70016019D01*
G37*
X112184133Y-70016019D02*
X111943468Y-70115460D01*
X111716258Y-70342274D01*
X111593140Y-70638774D01*
X111592860Y-70959818D01*
X111715460Y-71256532D01*
X111942274Y-71483742D01*
X112106803Y-71552061D01*
X111916258Y-71742274D01*
X111793140Y-72038774D01*
X111792860Y-72359818D01*
X111915460Y-72656532D01*
X112142274Y-72883742D01*
X112438774Y-73006860D01*
X112759818Y-73007140D01*
X113056532Y-72884540D01*
X113283742Y-72657726D01*
X113384306Y-72415542D01*
X114492849Y-71307000D01*
X131907152Y-71307000D01*
X132900075Y-72299924D01*
X133129442Y-72453183D01*
X133174330Y-72462112D01*
X133396709Y-72506345D01*
X133638774Y-72606860D01*
X133959818Y-72607140D01*
X134256532Y-72484540D01*
X134483742Y-72257726D01*
X134606860Y-71961226D01*
X134607140Y-71640182D01*
X134484540Y-71343468D01*
X134257726Y-71116258D01*
X133961226Y-70993140D01*
X133640182Y-70992860D01*
X133606589Y-71006740D01*
X132906848Y-70307000D01*
X133165840Y-70307000D01*
X133342274Y-70483742D01*
X133638774Y-70606860D01*
X133959818Y-70607140D01*
X134256532Y-70484540D01*
X134483742Y-70257726D01*
X134606860Y-69961226D01*
X134607140Y-69640182D01*
X134484540Y-69343468D01*
X134423179Y-69282000D01*
X136100296Y-69282000D01*
X139667459Y-76514173D01*
X140208801Y-84764315D01*
X137551743Y-92593617D01*
X132100800Y-98810132D01*
X131944034Y-98887455D01*
X131884540Y-98743468D01*
X131807000Y-98665793D01*
X131807000Y-97600005D01*
X131807001Y-97600000D01*
X131760795Y-97367712D01*
X131760795Y-97367711D01*
X131629214Y-97170786D01*
X131629211Y-97170784D01*
X126607000Y-92148572D01*
X126607000Y-89465428D01*
X128570786Y-91429214D01*
X128767711Y-91560795D01*
X129000000Y-91607000D01*
X135865666Y-91607000D01*
X135942274Y-91683742D01*
X136238774Y-91806860D01*
X136559818Y-91807140D01*
X136856532Y-91684540D01*
X137083742Y-91457726D01*
X137206860Y-91161226D01*
X137207140Y-90840182D01*
X137084540Y-90543468D01*
X136857726Y-90316258D01*
X136561226Y-90193140D01*
X136240182Y-90192860D01*
X135943468Y-90315460D01*
X135865793Y-90393000D01*
X129251428Y-90393000D01*
X128665428Y-89807000D01*
X134065666Y-89807000D01*
X134142274Y-89883742D01*
X134438774Y-90006860D01*
X134759818Y-90007140D01*
X135056532Y-89884540D01*
X135283742Y-89657726D01*
X135406860Y-89361226D01*
X135407140Y-89040182D01*
X135284540Y-88743468D01*
X135057726Y-88516258D01*
X134761226Y-88393140D01*
X134440182Y-88392860D01*
X134143468Y-88515460D01*
X134065793Y-88593000D01*
X133265428Y-88593000D01*
X138629214Y-83229214D01*
X138760795Y-83032289D01*
X138807000Y-82800000D01*
X138807000Y-76400000D01*
X138760795Y-76167711D01*
X138629214Y-75970786D01*
X138407045Y-75748617D01*
X138407140Y-75640182D01*
X138284540Y-75343468D01*
X138057726Y-75116258D01*
X137761226Y-74993140D01*
X137440182Y-74992860D01*
X137143468Y-75115460D01*
X136916258Y-75342274D01*
X136793140Y-75638774D01*
X136792860Y-75959818D01*
X136915460Y-76256532D01*
X137142274Y-76483742D01*
X137438774Y-76606860D01*
X137548528Y-76606956D01*
X137593000Y-76651428D01*
X137593000Y-82548572D01*
X132548572Y-87593000D01*
X129534334Y-87593000D01*
X129457726Y-87516258D01*
X129161226Y-87393140D01*
X128840182Y-87392860D01*
X128543468Y-87515460D01*
X128316258Y-87742274D01*
X128207000Y-88005396D01*
X128207000Y-82335596D01*
X130068521Y-82335596D01*
X130358213Y-83036704D01*
X130894155Y-83573583D01*
X131594757Y-83864498D01*
X132353357Y-83865160D01*
X133054465Y-83575468D01*
X133591344Y-83039526D01*
X133882259Y-82338924D01*
X133882921Y-81580324D01*
X133593229Y-80879216D01*
X133057287Y-80342337D01*
X132356685Y-80051422D01*
X131598085Y-80050760D01*
X130896977Y-80340452D01*
X130360098Y-80876394D01*
X130069183Y-81576996D01*
X130068521Y-82335596D01*
X128207000Y-82335596D01*
X128207000Y-80600000D01*
X128160795Y-80367711D01*
X128029214Y-80170786D01*
X126742733Y-78884305D01*
X126684540Y-78743468D01*
X126457726Y-78516258D01*
X126234756Y-78423672D01*
X126251383Y-78407045D01*
X126359818Y-78407140D01*
X126656532Y-78284540D01*
X126883742Y-78057726D01*
X127006860Y-77761226D01*
X127007140Y-77440182D01*
X126884540Y-77143468D01*
X126657726Y-76916258D01*
X126361226Y-76793140D01*
X126040182Y-76792860D01*
X125743468Y-76915460D01*
X125516258Y-77142274D01*
X125393140Y-77438774D01*
X125393044Y-77548528D01*
X122570786Y-80370786D01*
X122439205Y-80567711D01*
X122393000Y-80800000D01*
X122393000Y-87548572D01*
X121170786Y-88770786D01*
X121039205Y-88967711D01*
X120993000Y-89200000D01*
X120993000Y-89865666D01*
X120916258Y-89942274D01*
X120793140Y-90238774D01*
X120792860Y-90559818D01*
X120915460Y-90856532D01*
X121142274Y-91083742D01*
X121438774Y-91206860D01*
X121759818Y-91207140D01*
X122056532Y-91084540D01*
X122283742Y-90857726D01*
X122406860Y-90561226D01*
X122407140Y-90240182D01*
X122284540Y-89943468D01*
X122207000Y-89865793D01*
X122207000Y-89451428D01*
X123064198Y-88594230D01*
X123232289Y-88560795D01*
X123393000Y-88453411D01*
X123393000Y-89200000D01*
X123439205Y-89432289D01*
X123570786Y-89629214D01*
X124493000Y-90551428D01*
X124493000Y-97653674D01*
X124343468Y-97715460D01*
X124116258Y-97942274D01*
X123993140Y-98238774D01*
X123992860Y-98559818D01*
X124115460Y-98856532D01*
X124342274Y-99083742D01*
X124638774Y-99206860D01*
X124959818Y-99207140D01*
X125256532Y-99084540D01*
X125483742Y-98857726D01*
X125606860Y-98561226D01*
X125606989Y-98412815D01*
X125660795Y-98332289D01*
X125707000Y-98100000D01*
X125707000Y-92965428D01*
X130593000Y-97851427D01*
X130593000Y-98665666D01*
X130516258Y-98742274D01*
X130393140Y-99038774D01*
X130392860Y-99359818D01*
X130493337Y-99602990D01*
X124685827Y-102467459D01*
X116435685Y-103008801D01*
X113041889Y-101857037D01*
X113288544Y-101857252D01*
X113824246Y-101635904D01*
X114234464Y-101226402D01*
X114456746Y-100691087D01*
X114457252Y-100111456D01*
X114235904Y-99575754D01*
X113826402Y-99165536D01*
X113291087Y-98943254D01*
X112711456Y-98942748D01*
X112175754Y-99164096D01*
X111765536Y-99573598D01*
X111543254Y-100108913D01*
X111542748Y-100688544D01*
X111764096Y-101224246D01*
X112064744Y-101525419D01*
X108606383Y-100351743D01*
X106752864Y-98726487D01*
X107658620Y-98726487D01*
X107872372Y-99243805D01*
X108267822Y-99639946D01*
X108784767Y-99854600D01*
X109344506Y-99855089D01*
X109861824Y-99641337D01*
X110257965Y-99245887D01*
X110472619Y-98728942D01*
X110473108Y-98169203D01*
X110259356Y-97651885D01*
X109863906Y-97255744D01*
X109346961Y-97041090D01*
X108787222Y-97040601D01*
X108269904Y-97254353D01*
X107873763Y-97649803D01*
X107659109Y-98166748D01*
X107658620Y-98726487D01*
X106752864Y-98726487D01*
X102389868Y-94900800D01*
X102082367Y-94277363D01*
X109399636Y-94277363D01*
X109590600Y-94739530D01*
X109943891Y-95093438D01*
X110405724Y-95285208D01*
X110905790Y-95285645D01*
X111367957Y-95094681D01*
X111721865Y-94741390D01*
X111901414Y-94308989D01*
X111901261Y-94483846D01*
X112115013Y-95001164D01*
X112510463Y-95397305D01*
X113027408Y-95611959D01*
X113587147Y-95612448D01*
X114104465Y-95398696D01*
X114500606Y-95003246D01*
X114715260Y-94486301D01*
X114715749Y-93926562D01*
X114501997Y-93409244D01*
X114106547Y-93013103D01*
X113589602Y-92798449D01*
X113029863Y-92797960D01*
X112512545Y-93011712D01*
X112116404Y-93407162D01*
X111913971Y-93894675D01*
X111914072Y-93779491D01*
X111723108Y-93317324D01*
X111369817Y-92963416D01*
X110907984Y-92771646D01*
X110407918Y-92771209D01*
X109945751Y-92962173D01*
X109591843Y-93315464D01*
X109400073Y-93777297D01*
X109399636Y-94277363D01*
X102082367Y-94277363D01*
X100687286Y-91448936D01*
X106571209Y-91448936D01*
X106762173Y-91911103D01*
X107115464Y-92265011D01*
X107577297Y-92456781D01*
X108077363Y-92457218D01*
X108539530Y-92266254D01*
X108893438Y-91912963D01*
X109085208Y-91451130D01*
X109085645Y-90951064D01*
X108894681Y-90488897D01*
X108541390Y-90134989D01*
X108079557Y-89943219D01*
X107579491Y-89942782D01*
X107117324Y-90133746D01*
X106763416Y-90487037D01*
X106571646Y-90948870D01*
X106571209Y-91448936D01*
X100687286Y-91448936D01*
X100648166Y-91369623D01*
X100859225Y-91369807D01*
X101376543Y-91156055D01*
X101772684Y-90760605D01*
X101987338Y-90243660D01*
X101987827Y-89683921D01*
X101774075Y-89166603D01*
X101378625Y-88770462D01*
X100861680Y-88555808D01*
X100301941Y-88555319D01*
X99784623Y-88769071D01*
X99503768Y-89049436D01*
X98732541Y-87485827D01*
X98634953Y-85998565D01*
X103415979Y-85998565D01*
X103629731Y-86515883D01*
X104025181Y-86912024D01*
X104542126Y-87126678D01*
X104720862Y-87126834D01*
X104288897Y-87305319D01*
X103934989Y-87658610D01*
X103743219Y-88120443D01*
X103742782Y-88620509D01*
X103933746Y-89082676D01*
X104287037Y-89436584D01*
X104748870Y-89628354D01*
X105248936Y-89628791D01*
X105711103Y-89437827D01*
X106065011Y-89084536D01*
X106256781Y-88622703D01*
X106257218Y-88122637D01*
X106066254Y-87660470D01*
X105712963Y-87306562D01*
X105251130Y-87114792D01*
X105132067Y-87114688D01*
X105619183Y-86913415D01*
X106015324Y-86517965D01*
X106229978Y-86001020D01*
X106230467Y-85441281D01*
X106016715Y-84923963D01*
X105621265Y-84527822D01*
X105104320Y-84313168D01*
X104544581Y-84312679D01*
X104027263Y-84526431D01*
X103631122Y-84921881D01*
X103416468Y-85438826D01*
X103415979Y-85998565D01*
X98634953Y-85998565D01*
X98528660Y-84378638D01*
X98929536Y-84378638D01*
X99025219Y-84859671D01*
X99297703Y-85267471D01*
X99332528Y-85302297D01*
X99740328Y-85574781D01*
X100221362Y-85670463D01*
X100702395Y-85574781D01*
X101110195Y-85302297D01*
X101382679Y-84894497D01*
X101478361Y-84413464D01*
X101382679Y-83932430D01*
X101110195Y-83524630D01*
X101092253Y-83506688D01*
X101272917Y-83506688D01*
X101272917Y-83650584D01*
X101769453Y-84147119D01*
X101919043Y-84209082D01*
X102080957Y-84209082D01*
X102230547Y-84147120D01*
X102727083Y-83650584D01*
X102727083Y-83506688D01*
X102000000Y-82779605D01*
X101272917Y-83506688D01*
X101092253Y-83506688D01*
X101075369Y-83489805D01*
X100667569Y-83217321D01*
X100186536Y-83121638D01*
X99705503Y-83217321D01*
X99297703Y-83489805D01*
X99025219Y-83897605D01*
X98929536Y-84378638D01*
X98528660Y-84378638D01*
X98406641Y-82519043D01*
X100390918Y-82519043D01*
X100390918Y-82680957D01*
X100452881Y-82830547D01*
X100949416Y-83327083D01*
X101093312Y-83327083D01*
X101820395Y-82600000D01*
X102179605Y-82600000D01*
X102906688Y-83327083D01*
X103050584Y-83327083D01*
X103547120Y-82830547D01*
X103609082Y-82680957D01*
X103609082Y-82519043D01*
X103547119Y-82369453D01*
X103050584Y-81872917D01*
X102906688Y-81872917D01*
X102179605Y-82600000D01*
X101820395Y-82600000D01*
X101093312Y-81872917D01*
X100949416Y-81872917D01*
X100452880Y-82369453D01*
X100390918Y-82519043D01*
X98406641Y-82519043D01*
X98343018Y-81549416D01*
X101272917Y-81549416D01*
X101272917Y-81693312D01*
X102000000Y-82420395D01*
X102727083Y-81693312D01*
X102727083Y-81549416D01*
X102230547Y-81052881D01*
X102080957Y-80990918D01*
X101919043Y-80990918D01*
X101769453Y-81052880D01*
X101272917Y-81549416D01*
X98343018Y-81549416D01*
X98191199Y-79235685D01*
X98427296Y-78540000D01*
X99718374Y-78540000D01*
X99814057Y-79021033D01*
X100086541Y-79428833D01*
X100494341Y-79701317D01*
X100975374Y-79797000D01*
X101024626Y-79797000D01*
X101505659Y-79701317D01*
X101913459Y-79428833D01*
X102185943Y-79021033D01*
X102281626Y-78540000D01*
X102185943Y-78058967D01*
X101913459Y-77651167D01*
X101505659Y-77378683D01*
X101024626Y-77283000D01*
X100975374Y-77283000D01*
X100494341Y-77378683D01*
X100086541Y-77651167D01*
X99814057Y-78058967D01*
X99718374Y-78540000D01*
X98427296Y-78540000D01*
X99577771Y-75150000D01*
X99735027Y-75150000D01*
X99735027Y-76850000D01*
X99766615Y-77008803D01*
X99856570Y-77143430D01*
X99991197Y-77233385D01*
X100150000Y-77264973D01*
X101850000Y-77264973D01*
X102008803Y-77233385D01*
X102143430Y-77143430D01*
X102233385Y-77008803D01*
X102264973Y-76850000D01*
X102264973Y-76707000D01*
X103707152Y-76707000D01*
X107118953Y-80118801D01*
X106956685Y-80051422D01*
X106198085Y-80050760D01*
X105496977Y-80340452D01*
X104960098Y-80876394D01*
X104669183Y-81576996D01*
X104668521Y-82335596D01*
X104958213Y-83036704D01*
X105494155Y-83573583D01*
X106194757Y-83864498D01*
X106953357Y-83865160D01*
X107654465Y-83575468D01*
X108191344Y-83039526D01*
X108482259Y-82338924D01*
X108482921Y-81580324D01*
X108414230Y-81414079D01*
X109293000Y-82292849D01*
X109293000Y-85400000D01*
X109339205Y-85632289D01*
X109346817Y-85670557D01*
X109500076Y-85899924D01*
X113900076Y-90299925D01*
X114129443Y-90453183D01*
X114400000Y-90507000D01*
X117107152Y-90507000D01*
X118216020Y-91615868D01*
X118315460Y-91856532D01*
X118542274Y-92083742D01*
X118784458Y-92184306D01*
X121300076Y-94699925D01*
X121300079Y-94699927D01*
X122216020Y-95615868D01*
X122315460Y-95856532D01*
X122542274Y-96083742D01*
X122838774Y-96206860D01*
X123159818Y-96207140D01*
X123456532Y-96084540D01*
X123683742Y-95857726D01*
X123806860Y-95561226D01*
X123807140Y-95240182D01*
X123684540Y-94943468D01*
X123457726Y-94716258D01*
X123215543Y-94615695D01*
X122299927Y-93700079D01*
X122299925Y-93700076D01*
X119783981Y-91184133D01*
X119684540Y-90943468D01*
X119457726Y-90716258D01*
X119215544Y-90615695D01*
X117899924Y-89300076D01*
X117670557Y-89146817D01*
X117400000Y-89093000D01*
X114692849Y-89093000D01*
X110707000Y-85107152D01*
X110707000Y-82000000D01*
X110653183Y-81729443D01*
X110653183Y-81729442D01*
X110499924Y-81500075D01*
X104499924Y-75500076D01*
X104270557Y-75346817D01*
X104253720Y-75343468D01*
X104000000Y-75293000D01*
X102264973Y-75293000D01*
X102264973Y-75150000D01*
X102233385Y-74991197D01*
X102143430Y-74856570D01*
X102008803Y-74766615D01*
X101850000Y-74735027D01*
X100150000Y-74735027D01*
X99991197Y-74766615D01*
X99856570Y-74856570D01*
X99766615Y-74991197D01*
X99735027Y-75150000D01*
X99577771Y-75150000D01*
X100858668Y-71375703D01*
X102257637Y-69282000D01*
X112918151Y-69282000D01*
X112184133Y-70016019D01*
M02*
