G04 #@! TF.GenerationSoftware,KiCad,Pcbnew,no-vcs-found-33e0758~58~ubuntu16.04.1*
G04 #@! TF.CreationDate,2018-05-09T13:31:26+02:00*
G04 #@! TF.ProjectId,dropbuzzer,64726F7062757A7A65722E6B69636164,rev?*
G04 #@! TF.FileFunction,Soldermask,Top*
G04 #@! TF.FilePolarity,Negative*
%FSLAX46Y46*%
G04 Gerber Fmt 4.6, Leading zero omitted, Abs format (unit mm)*
G04 Created by KiCad (PCBNEW no-vcs-found-33e0758~58~ubuntu16.04.1) date Wed May  9 13:31:26 2018*
%MOMM*%
%LPD*%
G01*
G04 APERTURE LIST*
%ADD10C,0.100000*%
%ADD11C,2.500000*%
%ADD12O,2.100000X2.100000*%
%ADD13R,2.100000X2.100000*%
%ADD14O,2.900000X1.300000*%
%ADD15O,1.300000X2.900000*%
%ADD16R,6.400000X6.400000*%
%ADD17R,2.980000X1.400000*%
%ADD18C,3.399740*%
%ADD19R,1.150000X1.200000*%
%ADD20C,1.150000*%
%ADD21R,1.200000X1.150000*%
%ADD22R,1.900000X1.400000*%
%ADD23C,2.100000*%
%ADD24C,2.100000*%
%ADD25C,2.400000*%
%ADD26R,2.000000X1.800000*%
%ADD27R,1.800000X2.000000*%
%ADD28R,1.300000X1.200000*%
%ADD29R,1.900000X1.700000*%
%ADD30R,1.700000X1.900000*%
%ADD31R,1.900000X2.400000*%
%ADD32R,4.200000X2.400000*%
G04 APERTURE END LIST*
D10*
D11*
X113000000Y-100400000D03*
D12*
X101000000Y-78540000D03*
D13*
X101000000Y-76000000D03*
D14*
X128200000Y-70350000D03*
X128200000Y-71620000D03*
X128200000Y-72890000D03*
X128200000Y-74160000D03*
X128200000Y-75430000D03*
X128200000Y-76700000D03*
X128200000Y-77970000D03*
X128200000Y-79240000D03*
X128200000Y-80510000D03*
X128200000Y-81780000D03*
X128200000Y-83050000D03*
X128200000Y-84320000D03*
X128200000Y-85590000D03*
X128200000Y-86860000D03*
D15*
X124915000Y-88350000D03*
X123645000Y-88350000D03*
X122375000Y-88350000D03*
X121105000Y-88350000D03*
X119835000Y-88350000D03*
X118565000Y-88350000D03*
X117295000Y-88350000D03*
X116025000Y-88350000D03*
X114755000Y-88350000D03*
X113485000Y-88350000D03*
D14*
X110200000Y-86860000D03*
X110200000Y-85590000D03*
X110200000Y-84320000D03*
X110200000Y-83050000D03*
X110200000Y-81780000D03*
X110200000Y-80510000D03*
X110200000Y-79240000D03*
X110200000Y-77970000D03*
X110200000Y-76700000D03*
X110200000Y-75430000D03*
X110200000Y-74160000D03*
X110200000Y-72890000D03*
X110200000Y-71620000D03*
X110200000Y-70350000D03*
D16*
X118900000Y-78050000D03*
D17*
X135885000Y-76800000D03*
X131715000Y-76800000D03*
X135885000Y-74800000D03*
X131715000Y-74800000D03*
X135885000Y-72800000D03*
X131715000Y-72800000D03*
X135885000Y-70800000D03*
X131715000Y-70800000D03*
D18*
X106575721Y-81957960D03*
X131975721Y-81957960D03*
D19*
X106800000Y-73050000D03*
X106800000Y-74550000D03*
X104800000Y-69650000D03*
X104800000Y-71150000D03*
X106800000Y-71150000D03*
X106800000Y-69650000D03*
D20*
X111469670Y-98730330D03*
D10*
G36*
X111487348Y-97899480D02*
X112300520Y-98712652D01*
X111451992Y-99561180D01*
X110638820Y-98748008D01*
X111487348Y-97899480D01*
X111487348Y-97899480D01*
G37*
D20*
X112530330Y-97669670D03*
D10*
G36*
X112548008Y-96838820D02*
X113361180Y-97651992D01*
X112512652Y-98500520D01*
X111699480Y-97687348D01*
X112548008Y-96838820D01*
X112548008Y-96838820D01*
G37*
D21*
X118850000Y-93400000D03*
X120350000Y-93400000D03*
D19*
X106800000Y-76850000D03*
X106800000Y-78350000D03*
X122800000Y-90650000D03*
X122800000Y-92150000D03*
D21*
X135850000Y-89200000D03*
X137350000Y-89200000D03*
D22*
X126750000Y-98500000D03*
X126750000Y-97100000D03*
X123250000Y-98500000D03*
X123250000Y-97100000D03*
D23*
X100203949Y-84396051D03*
D24*
X100203949Y-84396051D02*
X100203949Y-84396051D01*
D23*
X102000000Y-82600000D03*
D10*
G36*
X100515076Y-82600000D02*
X102000000Y-81115076D01*
X103484924Y-82600000D01*
X102000000Y-84084924D01*
X100515076Y-82600000D01*
X100515076Y-82600000D01*
G37*
D23*
X110656854Y-94028427D03*
X107828427Y-91200000D03*
X105000000Y-88371573D03*
D25*
X100580583Y-89962563D03*
X109065864Y-98447845D03*
X113308505Y-94205204D03*
X104823223Y-85719923D03*
D26*
X132200000Y-93900000D03*
X132200000Y-90900000D03*
X125000000Y-90900000D03*
X125000000Y-93900000D03*
D27*
X138900000Y-79800000D03*
X135900000Y-79800000D03*
X135900000Y-87000000D03*
X138900000Y-87000000D03*
D28*
X133400000Y-87200000D03*
X131400000Y-88150000D03*
X131400000Y-86250000D03*
D29*
X104550000Y-73000000D03*
X101850000Y-73000000D03*
X117150000Y-91400000D03*
X114450000Y-91400000D03*
D30*
X134600000Y-93750000D03*
X134600000Y-91050000D03*
D29*
X132150000Y-97600000D03*
X129450000Y-97600000D03*
X123250000Y-100600000D03*
X125950000Y-100600000D03*
D30*
X104800000Y-78150000D03*
X104800000Y-75450000D03*
D31*
X120300000Y-95650000D03*
X115700000Y-95650000D03*
X118000000Y-95650000D03*
D32*
X118000000Y-101950000D03*
M02*
