G04 #@! TF.GenerationSoftware,KiCad,Pcbnew,no-vcs-found-33e0758~58~ubuntu16.04.1*
G04 #@! TF.CreationDate,2018-05-09T13:31:26+02:00*
G04 #@! TF.ProjectId,dropbuzzer,64726F7062757A7A65722E6B69636164,rev?*
G04 #@! TF.FileFunction,Legend,Top*
G04 #@! TF.FilePolarity,Positive*
%FSLAX46Y46*%
G04 Gerber Fmt 4.6, Leading zero omitted, Abs format (unit mm)*
G04 Created by KiCad (PCBNEW no-vcs-found-33e0758~58~ubuntu16.04.1) date Wed May  9 13:31:26 2018*
%MOMM*%
%LPD*%
G01*
G04 APERTURE LIST*
%ADD10C,0.100000*%
%ADD11C,0.300000*%
%ADD12C,0.120000*%
%ADD13C,0.500000*%
%ADD14C,0.150000*%
G04 APERTURE END LIST*
D10*
D11*
X99628571Y-80707142D02*
X100771428Y-80707142D01*
X98492857Y-81828571D02*
X98492857Y-82971428D01*
X97921428Y-82400000D02*
X99064285Y-82400000D01*
D12*
X99670000Y-74670000D02*
X101000000Y-74670000D01*
X99670000Y-76000000D02*
X99670000Y-74670000D01*
X99670000Y-77270000D02*
X102330000Y-77270000D01*
X102330000Y-77270000D02*
X102330000Y-79870000D01*
X99670000Y-77270000D02*
X99670000Y-79870000D01*
X99670000Y-79870000D02*
X102330000Y-79870000D01*
D13*
X109577981Y-68996000D02*
G75*
G03X109577981Y-68996000I-283981J0D01*
G01*
D14*
X128200000Y-68850000D02*
X110200000Y-68850000D01*
X110200000Y-62850000D02*
X110200000Y-88350000D01*
X128200000Y-62850000D02*
X128200000Y-88350000D01*
X128200000Y-88350000D02*
X110200000Y-88350000D01*
X128200000Y-62850000D02*
X110200000Y-62850000D01*
D12*
X135860000Y-75560000D02*
X135860000Y-76040000D01*
X131740000Y-75560000D02*
X131740000Y-76040000D01*
X135860000Y-73560000D02*
X135860000Y-74040000D01*
X131740000Y-73560000D02*
X131740000Y-74040000D01*
X135860000Y-71560000D02*
X135860000Y-72040000D01*
X131740000Y-71560000D02*
X131740000Y-72040000D01*
X135860000Y-77560000D02*
X135860000Y-77860000D01*
X131740000Y-77560000D02*
X131740000Y-77860000D01*
X135860000Y-69740000D02*
X135860000Y-70040000D01*
X131740000Y-69740000D02*
X131740000Y-70040000D01*
X130485000Y-70040000D02*
X131740000Y-70040000D01*
X131740000Y-77860000D02*
X135860000Y-77860000D01*
X131740000Y-69740000D02*
X135860000Y-69740000D01*
X107400000Y-73450000D02*
X107400000Y-74150000D01*
X106200000Y-74150000D02*
X106200000Y-73450000D01*
X105400000Y-70050000D02*
X105400000Y-70750000D01*
X104200000Y-70750000D02*
X104200000Y-70050000D01*
X106200000Y-70750000D02*
X106200000Y-70050000D01*
X107400000Y-70050000D02*
X107400000Y-70750000D01*
X111328249Y-98023223D02*
X111823223Y-97528249D01*
X112671751Y-98376777D02*
X112176777Y-98871751D01*
X119250000Y-92800000D02*
X119950000Y-92800000D01*
X119950000Y-94000000D02*
X119250000Y-94000000D01*
X107400000Y-77250000D02*
X107400000Y-77950000D01*
X106200000Y-77950000D02*
X106200000Y-77250000D01*
X123400000Y-91050000D02*
X123400000Y-91750000D01*
X122200000Y-91750000D02*
X122200000Y-91050000D01*
X136250000Y-88600000D02*
X136950000Y-88600000D01*
X136950000Y-89800000D02*
X136250000Y-89800000D01*
D14*
X122200000Y-97300000D02*
X122200000Y-96300000D01*
X127700000Y-96300000D02*
X122200000Y-96300000D01*
X127700000Y-99300000D02*
X122300000Y-99300000D01*
D12*
X102000000Y-80719096D02*
X102940452Y-81659548D01*
X101059548Y-81659548D02*
X102000000Y-80719096D01*
X100161522Y-82557574D02*
X102042426Y-84438478D01*
X102042426Y-84438478D02*
X100203949Y-86276955D01*
X100161522Y-82557574D02*
X98323045Y-84396051D01*
X98323045Y-84396051D02*
X100203949Y-86276955D01*
X113732769Y-95195153D02*
X110055813Y-98872109D01*
X100156319Y-88972614D02*
X103833274Y-85295659D01*
X105813173Y-86214897D02*
X112813530Y-93215254D01*
X108075914Y-97952870D02*
X101075557Y-90952513D01*
X103903984Y-84800684D02*
X104823223Y-83881445D01*
X104823223Y-83881445D02*
X105742462Y-84800684D01*
X133160000Y-88780000D02*
X131700000Y-88780000D01*
X133160000Y-85620000D02*
X131000000Y-85620000D01*
X133160000Y-85620000D02*
X133160000Y-86550000D01*
X133160000Y-88780000D02*
X133160000Y-87850000D01*
X102600000Y-72120000D02*
X103800000Y-72120000D01*
X103800000Y-73880000D02*
X102600000Y-73880000D01*
X115200000Y-90520000D02*
X116400000Y-90520000D01*
X116400000Y-92280000D02*
X115200000Y-92280000D01*
X135480000Y-91800000D02*
X135480000Y-93000000D01*
X133720000Y-93000000D02*
X133720000Y-91800000D01*
X130200000Y-96720000D02*
X131400000Y-96720000D01*
X131400000Y-98480000D02*
X130200000Y-98480000D01*
X125200000Y-101480000D02*
X124000000Y-101480000D01*
X124000000Y-99720000D02*
X125200000Y-99720000D01*
X105680000Y-76200000D02*
X105680000Y-77400000D01*
X103920000Y-77400000D02*
X103920000Y-76200000D01*
X121410000Y-94700000D02*
X121410000Y-100710000D01*
X114590000Y-96950000D02*
X114590000Y-100710000D01*
X121410000Y-100710000D02*
X120150000Y-100710000D01*
X114590000Y-100710000D02*
X115850000Y-100710000D01*
D14*
X99252380Y-79442857D02*
X98776190Y-79776190D01*
X99252380Y-80014285D02*
X98252380Y-80014285D01*
X98252380Y-79633333D01*
X98300000Y-79538095D01*
X98347619Y-79490476D01*
X98442857Y-79442857D01*
X98585714Y-79442857D01*
X98680952Y-79490476D01*
X98728571Y-79538095D01*
X98776190Y-79633333D01*
X98776190Y-80014285D01*
X99252380Y-78490476D02*
X99252380Y-79061904D01*
X99252380Y-78776190D02*
X98252380Y-78776190D01*
X98395238Y-78871428D01*
X98490476Y-78966666D01*
X98538095Y-79061904D01*
X98252380Y-77871428D02*
X98252380Y-77776190D01*
X98300000Y-77680952D01*
X98347619Y-77633333D01*
X98442857Y-77585714D01*
X98633333Y-77538095D01*
X98871428Y-77538095D01*
X99061904Y-77585714D01*
X99157142Y-77633333D01*
X99204761Y-77680952D01*
X99252380Y-77776190D01*
X99252380Y-77871428D01*
X99204761Y-77966666D01*
X99157142Y-78014285D01*
X99061904Y-78061904D01*
X98871428Y-78109523D01*
X98633333Y-78109523D01*
X98442857Y-78061904D01*
X98347619Y-78014285D01*
X98300000Y-77966666D01*
X98252380Y-77871428D01*
X129995095Y-66035380D02*
X129995095Y-66844904D01*
X130042714Y-66940142D01*
X130090333Y-66987761D01*
X130185571Y-67035380D01*
X130376047Y-67035380D01*
X130471285Y-66987761D01*
X130518904Y-66940142D01*
X130566523Y-66844904D01*
X130566523Y-66035380D01*
X131566523Y-67035380D02*
X130995095Y-67035380D01*
X131280809Y-67035380D02*
X131280809Y-66035380D01*
X131185571Y-66178238D01*
X131090333Y-66273476D01*
X130995095Y-66321095D01*
X133466666Y-78252380D02*
X133466666Y-78966666D01*
X133419047Y-79109523D01*
X133323809Y-79204761D01*
X133180952Y-79252380D01*
X133085714Y-79252380D01*
X134466666Y-79252380D02*
X133895238Y-79252380D01*
X134180952Y-79252380D02*
X134180952Y-78252380D01*
X134085714Y-78395238D01*
X133990476Y-78490476D01*
X133895238Y-78538095D01*
X131619047Y-79271428D02*
X132380952Y-79271428D01*
X132000000Y-79652380D02*
X132000000Y-78890476D01*
X108657142Y-73966666D02*
X108704761Y-74014285D01*
X108752380Y-74157142D01*
X108752380Y-74252380D01*
X108704761Y-74395238D01*
X108609523Y-74490476D01*
X108514285Y-74538095D01*
X108323809Y-74585714D01*
X108180952Y-74585714D01*
X107990476Y-74538095D01*
X107895238Y-74490476D01*
X107800000Y-74395238D01*
X107752380Y-74252380D01*
X107752380Y-74157142D01*
X107800000Y-74014285D01*
X107847619Y-73966666D01*
X108752380Y-73014285D02*
X108752380Y-73585714D01*
X108752380Y-73300000D02*
X107752380Y-73300000D01*
X107895238Y-73395238D01*
X107990476Y-73490476D01*
X108038095Y-73585714D01*
X103657142Y-70566666D02*
X103704761Y-70614285D01*
X103752380Y-70757142D01*
X103752380Y-70852380D01*
X103704761Y-70995238D01*
X103609523Y-71090476D01*
X103514285Y-71138095D01*
X103323809Y-71185714D01*
X103180952Y-71185714D01*
X102990476Y-71138095D01*
X102895238Y-71090476D01*
X102800000Y-70995238D01*
X102752380Y-70852380D01*
X102752380Y-70757142D01*
X102800000Y-70614285D01*
X102847619Y-70566666D01*
X102847619Y-70185714D02*
X102800000Y-70138095D01*
X102752380Y-70042857D01*
X102752380Y-69804761D01*
X102800000Y-69709523D01*
X102847619Y-69661904D01*
X102942857Y-69614285D01*
X103038095Y-69614285D01*
X103180952Y-69661904D01*
X103752380Y-70233333D01*
X103752380Y-69614285D01*
X108557142Y-70766666D02*
X108604761Y-70814285D01*
X108652380Y-70957142D01*
X108652380Y-71052380D01*
X108604761Y-71195238D01*
X108509523Y-71290476D01*
X108414285Y-71338095D01*
X108223809Y-71385714D01*
X108080952Y-71385714D01*
X107890476Y-71338095D01*
X107795238Y-71290476D01*
X107700000Y-71195238D01*
X107652380Y-71052380D01*
X107652380Y-70957142D01*
X107700000Y-70814285D01*
X107747619Y-70766666D01*
X107652380Y-70433333D02*
X107652380Y-69814285D01*
X108033333Y-70147619D01*
X108033333Y-70004761D01*
X108080952Y-69909523D01*
X108128571Y-69861904D01*
X108223809Y-69814285D01*
X108461904Y-69814285D01*
X108557142Y-69861904D01*
X108604761Y-69909523D01*
X108652380Y-70004761D01*
X108652380Y-70290476D01*
X108604761Y-70385714D01*
X108557142Y-70433333D01*
X111144738Y-97580440D02*
X111144738Y-97647783D01*
X111077394Y-97782470D01*
X111010051Y-97849814D01*
X110875363Y-97917157D01*
X110740676Y-97917157D01*
X110639661Y-97883486D01*
X110471302Y-97782470D01*
X110370287Y-97681455D01*
X110269272Y-97513096D01*
X110235600Y-97412081D01*
X110235600Y-97277394D01*
X110302944Y-97142707D01*
X110370287Y-97075363D01*
X110504974Y-97008020D01*
X110572318Y-97008020D01*
X111346768Y-96570287D02*
X111818173Y-97041692D01*
X110909035Y-96469272D02*
X111245753Y-97142707D01*
X111683486Y-96704974D01*
X120233333Y-92357142D02*
X120185714Y-92404761D01*
X120042857Y-92452380D01*
X119947619Y-92452380D01*
X119804761Y-92404761D01*
X119709523Y-92309523D01*
X119661904Y-92214285D01*
X119614285Y-92023809D01*
X119614285Y-91880952D01*
X119661904Y-91690476D01*
X119709523Y-91595238D01*
X119804761Y-91500000D01*
X119947619Y-91452380D01*
X120042857Y-91452380D01*
X120185714Y-91500000D01*
X120233333Y-91547619D01*
X121090476Y-91452380D02*
X120900000Y-91452380D01*
X120804761Y-91500000D01*
X120757142Y-91547619D01*
X120661904Y-91690476D01*
X120614285Y-91880952D01*
X120614285Y-92261904D01*
X120661904Y-92357142D01*
X120709523Y-92404761D01*
X120804761Y-92452380D01*
X120995238Y-92452380D01*
X121090476Y-92404761D01*
X121138095Y-92357142D01*
X121185714Y-92261904D01*
X121185714Y-92023809D01*
X121138095Y-91928571D01*
X121090476Y-91880952D01*
X120995238Y-91833333D01*
X120804761Y-91833333D01*
X120709523Y-91880952D01*
X120661904Y-91928571D01*
X120614285Y-92023809D01*
X108557142Y-77766666D02*
X108604761Y-77814285D01*
X108652380Y-77957142D01*
X108652380Y-78052380D01*
X108604761Y-78195238D01*
X108509523Y-78290476D01*
X108414285Y-78338095D01*
X108223809Y-78385714D01*
X108080952Y-78385714D01*
X107890476Y-78338095D01*
X107795238Y-78290476D01*
X107700000Y-78195238D01*
X107652380Y-78052380D01*
X107652380Y-77957142D01*
X107700000Y-77814285D01*
X107747619Y-77766666D01*
X107652380Y-77433333D02*
X107652380Y-76766666D01*
X108652380Y-77195238D01*
X122633333Y-93957142D02*
X122585714Y-94004761D01*
X122442857Y-94052380D01*
X122347619Y-94052380D01*
X122204761Y-94004761D01*
X122109523Y-93909523D01*
X122061904Y-93814285D01*
X122014285Y-93623809D01*
X122014285Y-93480952D01*
X122061904Y-93290476D01*
X122109523Y-93195238D01*
X122204761Y-93100000D01*
X122347619Y-93052380D01*
X122442857Y-93052380D01*
X122585714Y-93100000D01*
X122633333Y-93147619D01*
X123204761Y-93480952D02*
X123109523Y-93433333D01*
X123061904Y-93385714D01*
X123014285Y-93290476D01*
X123014285Y-93242857D01*
X123061904Y-93147619D01*
X123109523Y-93100000D01*
X123204761Y-93052380D01*
X123395238Y-93052380D01*
X123490476Y-93100000D01*
X123538095Y-93147619D01*
X123585714Y-93242857D01*
X123585714Y-93290476D01*
X123538095Y-93385714D01*
X123490476Y-93433333D01*
X123395238Y-93480952D01*
X123204761Y-93480952D01*
X123109523Y-93528571D01*
X123061904Y-93576190D01*
X123014285Y-93671428D01*
X123014285Y-93861904D01*
X123061904Y-93957142D01*
X123109523Y-94004761D01*
X123204761Y-94052380D01*
X123395238Y-94052380D01*
X123490476Y-94004761D01*
X123538095Y-93957142D01*
X123585714Y-93861904D01*
X123585714Y-93671428D01*
X123538095Y-93576190D01*
X123490476Y-93528571D01*
X123395238Y-93480952D01*
X139157142Y-89366666D02*
X139204761Y-89414285D01*
X139252380Y-89557142D01*
X139252380Y-89652380D01*
X139204761Y-89795238D01*
X139109523Y-89890476D01*
X139014285Y-89938095D01*
X138823809Y-89985714D01*
X138680952Y-89985714D01*
X138490476Y-89938095D01*
X138395238Y-89890476D01*
X138300000Y-89795238D01*
X138252380Y-89652380D01*
X138252380Y-89557142D01*
X138300000Y-89414285D01*
X138347619Y-89366666D01*
X139252380Y-88890476D02*
X139252380Y-88700000D01*
X139204761Y-88604761D01*
X139157142Y-88557142D01*
X139014285Y-88461904D01*
X138823809Y-88414285D01*
X138442857Y-88414285D01*
X138347619Y-88461904D01*
X138300000Y-88509523D01*
X138252380Y-88604761D01*
X138252380Y-88795238D01*
X138300000Y-88890476D01*
X138347619Y-88938095D01*
X138442857Y-88985714D01*
X138680952Y-88985714D01*
X138776190Y-88938095D01*
X138823809Y-88890476D01*
X138871428Y-88795238D01*
X138871428Y-88604761D01*
X138823809Y-88509523D01*
X138776190Y-88461904D01*
X138680952Y-88414285D01*
X124261904Y-95952380D02*
X124261904Y-94952380D01*
X124500000Y-94952380D01*
X124642857Y-95000000D01*
X124738095Y-95095238D01*
X124785714Y-95190476D01*
X124833333Y-95380952D01*
X124833333Y-95523809D01*
X124785714Y-95714285D01*
X124738095Y-95809523D01*
X124642857Y-95904761D01*
X124500000Y-95952380D01*
X124261904Y-95952380D01*
X125785714Y-95952380D02*
X125214285Y-95952380D01*
X125500000Y-95952380D02*
X125500000Y-94952380D01*
X125404761Y-95095238D01*
X125309523Y-95190476D01*
X125214285Y-95238095D01*
X104151522Y-79977072D02*
X103646446Y-80482148D01*
X103511759Y-80549492D01*
X103377072Y-80549492D01*
X103242385Y-80482148D01*
X103175042Y-80414805D01*
X104387225Y-80347461D02*
X104454568Y-80347461D01*
X104555583Y-80381133D01*
X104723942Y-80549492D01*
X104757614Y-80650507D01*
X104757614Y-80717851D01*
X104723942Y-80818866D01*
X104656599Y-80886209D01*
X104521912Y-80953553D01*
X103713790Y-80953553D01*
X104151522Y-81391286D01*
X109712361Y-88137554D02*
X109207285Y-88642630D01*
X109072598Y-88709973D01*
X108937911Y-88709973D01*
X108803224Y-88642630D01*
X108735880Y-88575286D01*
X109341972Y-89181378D02*
X110049079Y-88474271D01*
X110318453Y-88743645D01*
X110352124Y-88844660D01*
X110352124Y-88912004D01*
X110318453Y-89013019D01*
X110217437Y-89114035D01*
X110116422Y-89147706D01*
X110049079Y-89147706D01*
X109948063Y-89114035D01*
X109678689Y-88844660D01*
X110419468Y-90258874D02*
X110015407Y-89854813D01*
X110217437Y-90056844D02*
X110924544Y-89349737D01*
X110756185Y-89383409D01*
X110621498Y-89383409D01*
X110520483Y-89349737D01*
X128066666Y-95052380D02*
X128066666Y-95766666D01*
X128019047Y-95909523D01*
X127923809Y-96004761D01*
X127780952Y-96052380D01*
X127685714Y-96052380D01*
X128542857Y-96052380D02*
X128542857Y-95052380D01*
X128923809Y-95052380D01*
X129019047Y-95100000D01*
X129066666Y-95147619D01*
X129114285Y-95242857D01*
X129114285Y-95385714D01*
X129066666Y-95480952D01*
X129019047Y-95528571D01*
X128923809Y-95576190D01*
X128542857Y-95576190D01*
X129590476Y-96052380D02*
X129780952Y-96052380D01*
X129876190Y-96004761D01*
X129923809Y-95957142D01*
X130019047Y-95814285D01*
X130066666Y-95623809D01*
X130066666Y-95242857D01*
X130019047Y-95147619D01*
X129971428Y-95100000D01*
X129876190Y-95052380D01*
X129685714Y-95052380D01*
X129590476Y-95100000D01*
X129542857Y-95147619D01*
X129495238Y-95242857D01*
X129495238Y-95480952D01*
X129542857Y-95576190D01*
X129590476Y-95623809D01*
X129685714Y-95671428D01*
X129876190Y-95671428D01*
X129971428Y-95623809D01*
X130019047Y-95576190D01*
X130066666Y-95480952D01*
X136852380Y-84709523D02*
X137566666Y-84709523D01*
X137709523Y-84757142D01*
X137804761Y-84852380D01*
X137852380Y-84995238D01*
X137852380Y-85090476D01*
X137852380Y-84233333D02*
X136852380Y-84233333D01*
X136852380Y-83852380D01*
X136900000Y-83757142D01*
X136947619Y-83709523D01*
X137042857Y-83661904D01*
X137185714Y-83661904D01*
X137280952Y-83709523D01*
X137328571Y-83757142D01*
X137376190Y-83852380D01*
X137376190Y-84233333D01*
X137852380Y-82709523D02*
X137852380Y-83280952D01*
X137852380Y-82995238D02*
X136852380Y-82995238D01*
X136995238Y-83090476D01*
X137090476Y-83185714D01*
X137138095Y-83280952D01*
X136852380Y-82090476D02*
X136852380Y-81995238D01*
X136900000Y-81900000D01*
X136947619Y-81852380D01*
X137042857Y-81804761D01*
X137233333Y-81757142D01*
X137471428Y-81757142D01*
X137661904Y-81804761D01*
X137757142Y-81852380D01*
X137804761Y-81900000D01*
X137852380Y-81995238D01*
X137852380Y-82090476D01*
X137804761Y-82185714D01*
X137757142Y-82233333D01*
X137661904Y-82280952D01*
X137471428Y-82328571D01*
X137233333Y-82328571D01*
X137042857Y-82280952D01*
X136947619Y-82233333D01*
X136900000Y-82185714D01*
X136852380Y-82090476D01*
X132304761Y-85247619D02*
X132209523Y-85200000D01*
X132114285Y-85104761D01*
X131971428Y-84961904D01*
X131876190Y-84914285D01*
X131780952Y-84914285D01*
X131828571Y-85152380D02*
X131733333Y-85104761D01*
X131638095Y-85009523D01*
X131590476Y-84819047D01*
X131590476Y-84485714D01*
X131638095Y-84295238D01*
X131733333Y-84200000D01*
X131828571Y-84152380D01*
X132019047Y-84152380D01*
X132114285Y-84200000D01*
X132209523Y-84295238D01*
X132257142Y-84485714D01*
X132257142Y-84819047D01*
X132209523Y-85009523D01*
X132114285Y-85104761D01*
X132019047Y-85152380D01*
X131828571Y-85152380D01*
X133209523Y-85152380D02*
X132638095Y-85152380D01*
X132923809Y-85152380D02*
X132923809Y-84152380D01*
X132828571Y-84295238D01*
X132733333Y-84390476D01*
X132638095Y-84438095D01*
X101633333Y-71852380D02*
X101300000Y-71376190D01*
X101061904Y-71852380D02*
X101061904Y-70852380D01*
X101442857Y-70852380D01*
X101538095Y-70900000D01*
X101585714Y-70947619D01*
X101633333Y-71042857D01*
X101633333Y-71185714D01*
X101585714Y-71280952D01*
X101538095Y-71328571D01*
X101442857Y-71376190D01*
X101061904Y-71376190D01*
X102585714Y-71852380D02*
X102014285Y-71852380D01*
X102300000Y-71852380D02*
X102300000Y-70852380D01*
X102204761Y-70995238D01*
X102109523Y-71090476D01*
X102014285Y-71138095D01*
X115633333Y-93552380D02*
X115300000Y-93076190D01*
X115061904Y-93552380D02*
X115061904Y-92552380D01*
X115442857Y-92552380D01*
X115538095Y-92600000D01*
X115585714Y-92647619D01*
X115633333Y-92742857D01*
X115633333Y-92885714D01*
X115585714Y-92980952D01*
X115538095Y-93028571D01*
X115442857Y-93076190D01*
X115061904Y-93076190D01*
X116490476Y-92885714D02*
X116490476Y-93552380D01*
X116252380Y-92504761D02*
X116014285Y-93219047D01*
X116633333Y-93219047D01*
X136752380Y-92566666D02*
X136276190Y-92900000D01*
X136752380Y-93138095D02*
X135752380Y-93138095D01*
X135752380Y-92757142D01*
X135800000Y-92661904D01*
X135847619Y-92614285D01*
X135942857Y-92566666D01*
X136085714Y-92566666D01*
X136180952Y-92614285D01*
X136228571Y-92661904D01*
X136276190Y-92757142D01*
X136276190Y-93138095D01*
X135752380Y-92233333D02*
X135752380Y-91566666D01*
X136752380Y-91995238D01*
X129633333Y-99652380D02*
X129300000Y-99176190D01*
X129061904Y-99652380D02*
X129061904Y-98652380D01*
X129442857Y-98652380D01*
X129538095Y-98700000D01*
X129585714Y-98747619D01*
X129633333Y-98842857D01*
X129633333Y-98985714D01*
X129585714Y-99080952D01*
X129538095Y-99128571D01*
X129442857Y-99176190D01*
X129061904Y-99176190D01*
X130204761Y-99080952D02*
X130109523Y-99033333D01*
X130061904Y-98985714D01*
X130014285Y-98890476D01*
X130014285Y-98842857D01*
X130061904Y-98747619D01*
X130109523Y-98700000D01*
X130204761Y-98652380D01*
X130395238Y-98652380D01*
X130490476Y-98700000D01*
X130538095Y-98747619D01*
X130585714Y-98842857D01*
X130585714Y-98890476D01*
X130538095Y-98985714D01*
X130490476Y-99033333D01*
X130395238Y-99080952D01*
X130204761Y-99080952D01*
X130109523Y-99128571D01*
X130061904Y-99176190D01*
X130014285Y-99271428D01*
X130014285Y-99461904D01*
X130061904Y-99557142D01*
X130109523Y-99604761D01*
X130204761Y-99652380D01*
X130395238Y-99652380D01*
X130490476Y-99604761D01*
X130538095Y-99557142D01*
X130585714Y-99461904D01*
X130585714Y-99271428D01*
X130538095Y-99176190D01*
X130490476Y-99128571D01*
X130395238Y-99080952D01*
X127833333Y-101052380D02*
X127500000Y-100576190D01*
X127261904Y-101052380D02*
X127261904Y-100052380D01*
X127642857Y-100052380D01*
X127738095Y-100100000D01*
X127785714Y-100147619D01*
X127833333Y-100242857D01*
X127833333Y-100385714D01*
X127785714Y-100480952D01*
X127738095Y-100528571D01*
X127642857Y-100576190D01*
X127261904Y-100576190D01*
X128309523Y-101052380D02*
X128500000Y-101052380D01*
X128595238Y-101004761D01*
X128642857Y-100957142D01*
X128738095Y-100814285D01*
X128785714Y-100623809D01*
X128785714Y-100242857D01*
X128738095Y-100147619D01*
X128690476Y-100100000D01*
X128595238Y-100052380D01*
X128404761Y-100052380D01*
X128309523Y-100100000D01*
X128261904Y-100147619D01*
X128214285Y-100242857D01*
X128214285Y-100480952D01*
X128261904Y-100576190D01*
X128309523Y-100623809D01*
X128404761Y-100671428D01*
X128595238Y-100671428D01*
X128690476Y-100623809D01*
X128738095Y-100576190D01*
X128785714Y-100480952D01*
X103652380Y-78642857D02*
X103176190Y-78976190D01*
X103652380Y-79214285D02*
X102652380Y-79214285D01*
X102652380Y-78833333D01*
X102700000Y-78738095D01*
X102747619Y-78690476D01*
X102842857Y-78642857D01*
X102985714Y-78642857D01*
X103080952Y-78690476D01*
X103128571Y-78738095D01*
X103176190Y-78833333D01*
X103176190Y-79214285D01*
X103652380Y-77690476D02*
X103652380Y-78261904D01*
X103652380Y-77976190D02*
X102652380Y-77976190D01*
X102795238Y-78071428D01*
X102890476Y-78166666D01*
X102938095Y-78261904D01*
X103652380Y-76738095D02*
X103652380Y-77309523D01*
X103652380Y-77023809D02*
X102652380Y-77023809D01*
X102795238Y-77119047D01*
X102890476Y-77214285D01*
X102938095Y-77309523D01*
X120438095Y-101252380D02*
X120438095Y-102061904D01*
X120485714Y-102157142D01*
X120533333Y-102204761D01*
X120628571Y-102252380D01*
X120819047Y-102252380D01*
X120914285Y-102204761D01*
X120961904Y-102157142D01*
X121009523Y-102061904D01*
X121009523Y-101252380D01*
X121438095Y-101347619D02*
X121485714Y-101300000D01*
X121580952Y-101252380D01*
X121819047Y-101252380D01*
X121914285Y-101300000D01*
X121961904Y-101347619D01*
X122009523Y-101442857D01*
X122009523Y-101538095D01*
X121961904Y-101680952D01*
X121390476Y-102252380D01*
X122009523Y-102252380D01*
M02*
