%FSLAX45Y45*%
G04 Gerber Fmt 4.5, Leading zero omitted, Abs format (unit mm)*
G04 Created by KiCad (PCBNEW no-vcs-found-33e0758~58~ubuntu16.04.1) date Wed May  9 13:31:19 2018*
%MOMM*%
%LPD*%
G01*
G04 APERTURE LIST*
%ADD10C,0.127000*%
%ADD11C,0.150000*%
%ADD12C,0.200000*%
%ADD13C,0.300000*%
G04 APERTURE END LIST*
D10*
D11*
X13640000Y-6880000D02*
X13640000Y-6880000D01*
X10200000Y-6880000D02*
X13640000Y-6880000D01*
X13640000Y-6880000D02*
G75*
G02X10200000Y-6880000I-1720000J-1320000D01*
G01*
D12*
X11220000Y-7060000D02*
X11260000Y-7100000D01*
X11260000Y-7060000D02*
X11220000Y-7100000D01*
X11240000Y-7200000D02*
X11280000Y-7240000D01*
X11280000Y-7200000D02*
X11240000Y-7240000D01*
X11880000Y-9120000D02*
X11920000Y-9160000D01*
X11920000Y-9120000D02*
X11880000Y-9160000D01*
X12140000Y-9020000D02*
X12180000Y-9060000D01*
X12180000Y-9020000D02*
X12140000Y-9060000D01*
X12280000Y-9520000D02*
X12320000Y-9560000D01*
X12320000Y-9520000D02*
X12280000Y-9560000D01*
X12460000Y-9820000D02*
X12500000Y-9860000D01*
X12500000Y-9820000D02*
X12460000Y-9860000D01*
X12580000Y-7900000D02*
X12620000Y-7940000D01*
X12620000Y-7900000D02*
X12580000Y-7940000D01*
X12580000Y-8060000D02*
X12620000Y-8100000D01*
X12620000Y-8060000D02*
X12580000Y-8100000D01*
X12580000Y-8320000D02*
X12620000Y-8360000D01*
X12620000Y-8320000D02*
X12580000Y-8360000D01*
X12580000Y-8500000D02*
X12620000Y-8540000D01*
X12620000Y-8500000D02*
X12580000Y-8540000D01*
X12600000Y-7740000D02*
X12640000Y-7780000D01*
X12640000Y-7740000D02*
X12600000Y-7780000D01*
X12880000Y-8800000D02*
X12920000Y-8840000D01*
X12920000Y-8800000D02*
X12880000Y-8840000D01*
X13100000Y-9900000D02*
X13140000Y-9940000D01*
X13140000Y-9900000D02*
X13100000Y-9940000D01*
X13360000Y-6960000D02*
X13400000Y-7000000D01*
X13400000Y-6960000D02*
X13360000Y-7000000D01*
X13360000Y-7160000D02*
X13400000Y-7200000D01*
X13400000Y-7160000D02*
X13360000Y-7200000D01*
X13440000Y-8900000D02*
X13480000Y-8940000D01*
X13480000Y-8900000D02*
X13440000Y-8940000D01*
X13620000Y-9080000D02*
X13660000Y-9120000D01*
X13660000Y-9080000D02*
X13620000Y-9120000D01*
X13740000Y-7560000D02*
X13780000Y-7600000D01*
X13780000Y-7560000D02*
X13740000Y-7600000D01*
X10545000Y-8837157D02*
G75*
G03X10545000Y-8837157I-45000J0D01*
G01*
X10827843Y-9120000D02*
G75*
G03X10827843Y-9120000I-45000J0D01*
G01*
X11110685Y-9402843D02*
G75*
G03X11110685Y-9402843I-45000J0D01*
G01*
X11945000Y-7600000D02*
G75*
G03X11945000Y-7600000I-45000J0D01*
G01*
X11725000Y-7820000D02*
G75*
G03X11725000Y-7820000I-45000J0D01*
G01*
X12165000Y-7600000D02*
G75*
G03X12165000Y-7600000I-45000J0D01*
G01*
X11725000Y-7600000D02*
G75*
G03X11725000Y-7600000I-45000J0D01*
G01*
X11725000Y-8040000D02*
G75*
G03X11725000Y-8040000I-45000J0D01*
G01*
X12165000Y-7820000D02*
G75*
G03X12165000Y-7820000I-45000J0D01*
G01*
X11945000Y-8040000D02*
G75*
G03X11945000Y-8040000I-45000J0D01*
G01*
X12165000Y-8040000D02*
G75*
G03X12165000Y-8040000I-45000J0D01*
G01*
X11945000Y-7820000D02*
G75*
G03X11945000Y-7820000I-45000J0D01*
G01*
X10100000Y-7550000D02*
X10100000Y-7650000D01*
X10050000Y-7600000D02*
X10150000Y-7600000D01*
X10100000Y-7804000D02*
X10100000Y-7904000D01*
X10050000Y-7854000D02*
X10150000Y-7854000D01*
X10020395Y-8389605D02*
X10020395Y-8489605D01*
X9970395Y-8439605D02*
X10070395Y-8439605D01*
X10200000Y-8210000D02*
X10200000Y-8310000D01*
X10150000Y-8260000D02*
X10250000Y-8260000D01*
X10100485Y-9038683D02*
X10100485Y-8953830D01*
X10015632Y-8953830D01*
X10015632Y-9038683D01*
X10100485Y-9038683D01*
X10524749Y-8614419D02*
X10524749Y-8529566D01*
X10439896Y-8529566D01*
X10439896Y-8614419D01*
X10524749Y-8614419D01*
X10949013Y-9887211D02*
X10949013Y-9802358D01*
X10864160Y-9802358D01*
X10864160Y-9887211D01*
X10949013Y-9887211D01*
X11373277Y-9462947D02*
X11373277Y-9378094D01*
X11288424Y-9378094D01*
X11288424Y-9462947D01*
X11373277Y-9462947D01*
X10657572Y-8270853D02*
X10732629Y-8195796D01*
X10657572Y-8120739D01*
X10582515Y-8195796D01*
X10657572Y-8270853D01*
X13197572Y-8270853D02*
X13272629Y-8195796D01*
X13197572Y-8120739D01*
X13122515Y-8195796D01*
X13197572Y-8270853D01*
D13*
X10030796Y-10841347D02*
X10030796Y-10541347D01*
X10102224Y-10541347D01*
X10145081Y-10555633D01*
X10173653Y-10584204D01*
X10187939Y-10612776D01*
X10202224Y-10669919D01*
X10202224Y-10712776D01*
X10187939Y-10769919D01*
X10173653Y-10798490D01*
X10145081Y-10827061D01*
X10102224Y-10841347D01*
X10030796Y-10841347D01*
X10330796Y-10841347D02*
X10330796Y-10641347D01*
X10330796Y-10698490D02*
X10345081Y-10669919D01*
X10359367Y-10655633D01*
X10387939Y-10641347D01*
X10416510Y-10641347D01*
X10516510Y-10841347D02*
X10516510Y-10641347D01*
X10516510Y-10541347D02*
X10502224Y-10555633D01*
X10516510Y-10569919D01*
X10530796Y-10555633D01*
X10516510Y-10541347D01*
X10516510Y-10569919D01*
X10702224Y-10841347D02*
X10673653Y-10827061D01*
X10659367Y-10798490D01*
X10659367Y-10541347D01*
X10859367Y-10841347D02*
X10830796Y-10827061D01*
X10816510Y-10798490D01*
X10816510Y-10541347D01*
X11202224Y-10841347D02*
X11202224Y-10541347D01*
X11302224Y-10755633D01*
X11402224Y-10541347D01*
X11402224Y-10841347D01*
X11673653Y-10841347D02*
X11673653Y-10684204D01*
X11659367Y-10655633D01*
X11630796Y-10641347D01*
X11573653Y-10641347D01*
X11545081Y-10655633D01*
X11673653Y-10827061D02*
X11645081Y-10841347D01*
X11573653Y-10841347D01*
X11545081Y-10827061D01*
X11530796Y-10798490D01*
X11530796Y-10769919D01*
X11545081Y-10741347D01*
X11573653Y-10727061D01*
X11645081Y-10727061D01*
X11673653Y-10712776D01*
X11816510Y-10641347D02*
X11816510Y-10941347D01*
X11816510Y-10655633D02*
X11845081Y-10641347D01*
X11902224Y-10641347D01*
X11930796Y-10655633D01*
X11945081Y-10669919D01*
X11959367Y-10698490D01*
X11959367Y-10784204D01*
X11945081Y-10812776D01*
X11930796Y-10827061D01*
X11902224Y-10841347D01*
X11845081Y-10841347D01*
X11816510Y-10827061D01*
X12087939Y-10812776D02*
X12102224Y-10827061D01*
X12087939Y-10841347D01*
X12073653Y-10827061D01*
X12087939Y-10812776D01*
X12087939Y-10841347D01*
X12087939Y-10655633D02*
X12102224Y-10669919D01*
X12087939Y-10684204D01*
X12073653Y-10669919D01*
X12087939Y-10655633D01*
X12087939Y-10684204D01*
X9704367Y-11315633D02*
X9744367Y-11355633D01*
X9744367Y-11315633D02*
X9704367Y-11355633D01*
X10087939Y-11171347D02*
X10116510Y-11171347D01*
X10145081Y-11185633D01*
X10159367Y-11199918D01*
X10173653Y-11228490D01*
X10187939Y-11285633D01*
X10187939Y-11357061D01*
X10173653Y-11414204D01*
X10159367Y-11442776D01*
X10145081Y-11457061D01*
X10116510Y-11471347D01*
X10087939Y-11471347D01*
X10059367Y-11457061D01*
X10045081Y-11442776D01*
X10030796Y-11414204D01*
X10016510Y-11357061D01*
X10016510Y-11285633D01*
X10030796Y-11228490D01*
X10045081Y-11199918D01*
X10059367Y-11185633D01*
X10087939Y-11171347D01*
X10316510Y-11442776D02*
X10330796Y-11457061D01*
X10316510Y-11471347D01*
X10302224Y-11457061D01*
X10316510Y-11442776D01*
X10316510Y-11471347D01*
X10587939Y-11271347D02*
X10587939Y-11471347D01*
X10516510Y-11157061D02*
X10445081Y-11371347D01*
X10630796Y-11371347D01*
X10802224Y-11171347D02*
X10830796Y-11171347D01*
X10859367Y-11185633D01*
X10873653Y-11199918D01*
X10887939Y-11228490D01*
X10902224Y-11285633D01*
X10902224Y-11357061D01*
X10887939Y-11414204D01*
X10873653Y-11442776D01*
X10859367Y-11457061D01*
X10830796Y-11471347D01*
X10802224Y-11471347D01*
X10773653Y-11457061D01*
X10759367Y-11442776D01*
X10745081Y-11414204D01*
X10730796Y-11357061D01*
X10730796Y-11285633D01*
X10745081Y-11228490D01*
X10759367Y-11199918D01*
X10773653Y-11185633D01*
X10802224Y-11171347D01*
X11030796Y-11471347D02*
X11030796Y-11271347D01*
X11030796Y-11299918D02*
X11045081Y-11285633D01*
X11073653Y-11271347D01*
X11116510Y-11271347D01*
X11145081Y-11285633D01*
X11159367Y-11314204D01*
X11159367Y-11471347D01*
X11159367Y-11314204D02*
X11173653Y-11285633D01*
X11202224Y-11271347D01*
X11245081Y-11271347D01*
X11273653Y-11285633D01*
X11287939Y-11314204D01*
X11287939Y-11471347D01*
X11430796Y-11471347D02*
X11430796Y-11271347D01*
X11430796Y-11299918D02*
X11445081Y-11285633D01*
X11473653Y-11271347D01*
X11516510Y-11271347D01*
X11545081Y-11285633D01*
X11559367Y-11314204D01*
X11559367Y-11471347D01*
X11559367Y-11314204D02*
X11573653Y-11285633D01*
X11602224Y-11271347D01*
X11645081Y-11271347D01*
X11673653Y-11285633D01*
X11687939Y-11314204D01*
X11687939Y-11471347D01*
X12273653Y-11157061D02*
X12016510Y-11542776D01*
X12659367Y-11171347D02*
X12687939Y-11171347D01*
X12716510Y-11185633D01*
X12730796Y-11199918D01*
X12745081Y-11228490D01*
X12759367Y-11285633D01*
X12759367Y-11357061D01*
X12745081Y-11414204D01*
X12730796Y-11442776D01*
X12716510Y-11457061D01*
X12687939Y-11471347D01*
X12659367Y-11471347D01*
X12630796Y-11457061D01*
X12616510Y-11442776D01*
X12602224Y-11414204D01*
X12587939Y-11357061D01*
X12587939Y-11285633D01*
X12602224Y-11228490D01*
X12616510Y-11199918D01*
X12630796Y-11185633D01*
X12659367Y-11171347D01*
X12887939Y-11442776D02*
X12902224Y-11457061D01*
X12887939Y-11471347D01*
X12873653Y-11457061D01*
X12887939Y-11442776D01*
X12887939Y-11471347D01*
X13087939Y-11171347D02*
X13116510Y-11171347D01*
X13145081Y-11185633D01*
X13159367Y-11199918D01*
X13173653Y-11228490D01*
X13187939Y-11285633D01*
X13187939Y-11357061D01*
X13173653Y-11414204D01*
X13159367Y-11442776D01*
X13145081Y-11457061D01*
X13116510Y-11471347D01*
X13087939Y-11471347D01*
X13059367Y-11457061D01*
X13045081Y-11442776D01*
X13030796Y-11414204D01*
X13016510Y-11357061D01*
X13016510Y-11285633D01*
X13030796Y-11228490D01*
X13045081Y-11199918D01*
X13059367Y-11185633D01*
X13087939Y-11171347D01*
X13473653Y-11471347D02*
X13302224Y-11471347D01*
X13387939Y-11471347D02*
X13387939Y-11171347D01*
X13359367Y-11214204D01*
X13330796Y-11242776D01*
X13302224Y-11257061D01*
X13730796Y-11171347D02*
X13673653Y-11171347D01*
X13645081Y-11185633D01*
X13630796Y-11199918D01*
X13602224Y-11242776D01*
X13587939Y-11299918D01*
X13587939Y-11414204D01*
X13602224Y-11442776D01*
X13616510Y-11457061D01*
X13645081Y-11471347D01*
X13702224Y-11471347D01*
X13730796Y-11457061D01*
X13745081Y-11442776D01*
X13759367Y-11414204D01*
X13759367Y-11342776D01*
X13745081Y-11314204D01*
X13730796Y-11299918D01*
X13702224Y-11285633D01*
X13645081Y-11285633D01*
X13616510Y-11299918D01*
X13602224Y-11314204D01*
X13587939Y-11342776D01*
X13873653Y-11171347D02*
X13873653Y-11228490D01*
X13987939Y-11171347D02*
X13987939Y-11228490D01*
X14430796Y-11585633D02*
X14416510Y-11571347D01*
X14387939Y-11528490D01*
X14373653Y-11499918D01*
X14359367Y-11457061D01*
X14345081Y-11385633D01*
X14345081Y-11328490D01*
X14359367Y-11257061D01*
X14373653Y-11214204D01*
X14387939Y-11185633D01*
X14416510Y-11142776D01*
X14430796Y-11128490D01*
X14702224Y-11471347D02*
X14530796Y-11471347D01*
X14616510Y-11471347D02*
X14616510Y-11171347D01*
X14587939Y-11214204D01*
X14559367Y-11242776D01*
X14530796Y-11257061D01*
X14873653Y-11299918D02*
X14845081Y-11285633D01*
X14830796Y-11271347D01*
X14816510Y-11242776D01*
X14816510Y-11228490D01*
X14830796Y-11199918D01*
X14845081Y-11185633D01*
X14873653Y-11171347D01*
X14930796Y-11171347D01*
X14959367Y-11185633D01*
X14973653Y-11199918D01*
X14987939Y-11228490D01*
X14987939Y-11242776D01*
X14973653Y-11271347D01*
X14959367Y-11285633D01*
X14930796Y-11299918D01*
X14873653Y-11299918D01*
X14845081Y-11314204D01*
X14830796Y-11328490D01*
X14816510Y-11357061D01*
X14816510Y-11414204D01*
X14830796Y-11442776D01*
X14845081Y-11457061D01*
X14873653Y-11471347D01*
X14930796Y-11471347D01*
X14959367Y-11457061D01*
X14973653Y-11442776D01*
X14987939Y-11414204D01*
X14987939Y-11357061D01*
X14973653Y-11328490D01*
X14959367Y-11314204D01*
X14930796Y-11299918D01*
X15345081Y-11471347D02*
X15345081Y-11171347D01*
X15473653Y-11471347D02*
X15473653Y-11314204D01*
X15459367Y-11285633D01*
X15430796Y-11271347D01*
X15387939Y-11271347D01*
X15359367Y-11285633D01*
X15345081Y-11299918D01*
X15659367Y-11471347D02*
X15630796Y-11457061D01*
X15616510Y-11442776D01*
X15602224Y-11414204D01*
X15602224Y-11328490D01*
X15616510Y-11299918D01*
X15630796Y-11285633D01*
X15659367Y-11271347D01*
X15702224Y-11271347D01*
X15730796Y-11285633D01*
X15745081Y-11299918D01*
X15759367Y-11328490D01*
X15759367Y-11414204D01*
X15745081Y-11442776D01*
X15730796Y-11457061D01*
X15702224Y-11471347D01*
X15659367Y-11471347D01*
X15930796Y-11471347D02*
X15902224Y-11457061D01*
X15887939Y-11428490D01*
X15887939Y-11171347D01*
X16159367Y-11457061D02*
X16130796Y-11471347D01*
X16073653Y-11471347D01*
X16045081Y-11457061D01*
X16030796Y-11428490D01*
X16030796Y-11314204D01*
X16045081Y-11285633D01*
X16073653Y-11271347D01*
X16130796Y-11271347D01*
X16159367Y-11285633D01*
X16173653Y-11314204D01*
X16173653Y-11342776D01*
X16030796Y-11371347D01*
X16287939Y-11457061D02*
X16316510Y-11471347D01*
X16373653Y-11471347D01*
X16402224Y-11457061D01*
X16416510Y-11428490D01*
X16416510Y-11414204D01*
X16402224Y-11385633D01*
X16373653Y-11371347D01*
X16330796Y-11371347D01*
X16302224Y-11357061D01*
X16287939Y-11328490D01*
X16287939Y-11314204D01*
X16302224Y-11285633D01*
X16330796Y-11271347D01*
X16373653Y-11271347D01*
X16402224Y-11285633D01*
X16516510Y-11585633D02*
X16530796Y-11571347D01*
X16559367Y-11528490D01*
X16573653Y-11499918D01*
X16587939Y-11457061D01*
X16602224Y-11385633D01*
X16602224Y-11328490D01*
X16587939Y-11257061D01*
X16573653Y-11214204D01*
X16559367Y-11185633D01*
X16530796Y-11142776D01*
X16516510Y-11128490D01*
X9744367Y-11731633D02*
G75*
G03X9744367Y-11731633I-45000J0D01*
G01*
X10087939Y-11567347D02*
X10116510Y-11567347D01*
X10145081Y-11581633D01*
X10159367Y-11595918D01*
X10173653Y-11624490D01*
X10187939Y-11681633D01*
X10187939Y-11753061D01*
X10173653Y-11810204D01*
X10159367Y-11838776D01*
X10145081Y-11853061D01*
X10116510Y-11867347D01*
X10087939Y-11867347D01*
X10059367Y-11853061D01*
X10045081Y-11838776D01*
X10030796Y-11810204D01*
X10016510Y-11753061D01*
X10016510Y-11681633D01*
X10030796Y-11624490D01*
X10045081Y-11595918D01*
X10059367Y-11581633D01*
X10087939Y-11567347D01*
X10316510Y-11838776D02*
X10330796Y-11853061D01*
X10316510Y-11867347D01*
X10302224Y-11853061D01*
X10316510Y-11838776D01*
X10316510Y-11867347D01*
X10473653Y-11867347D02*
X10530796Y-11867347D01*
X10559367Y-11853061D01*
X10573653Y-11838776D01*
X10602224Y-11795918D01*
X10616510Y-11738776D01*
X10616510Y-11624490D01*
X10602224Y-11595918D01*
X10587939Y-11581633D01*
X10559367Y-11567347D01*
X10502224Y-11567347D01*
X10473653Y-11581633D01*
X10459367Y-11595918D01*
X10445081Y-11624490D01*
X10445081Y-11695918D01*
X10459367Y-11724490D01*
X10473653Y-11738776D01*
X10502224Y-11753061D01*
X10559367Y-11753061D01*
X10587939Y-11738776D01*
X10602224Y-11724490D01*
X10616510Y-11695918D01*
X10802224Y-11567347D02*
X10830796Y-11567347D01*
X10859367Y-11581633D01*
X10873653Y-11595918D01*
X10887939Y-11624490D01*
X10902224Y-11681633D01*
X10902224Y-11753061D01*
X10887939Y-11810204D01*
X10873653Y-11838776D01*
X10859367Y-11853061D01*
X10830796Y-11867347D01*
X10802224Y-11867347D01*
X10773653Y-11853061D01*
X10759367Y-11838776D01*
X10745081Y-11810204D01*
X10730796Y-11753061D01*
X10730796Y-11681633D01*
X10745081Y-11624490D01*
X10759367Y-11595918D01*
X10773653Y-11581633D01*
X10802224Y-11567347D01*
X11030796Y-11867347D02*
X11030796Y-11667347D01*
X11030796Y-11695918D02*
X11045081Y-11681633D01*
X11073653Y-11667347D01*
X11116510Y-11667347D01*
X11145081Y-11681633D01*
X11159367Y-11710204D01*
X11159367Y-11867347D01*
X11159367Y-11710204D02*
X11173653Y-11681633D01*
X11202224Y-11667347D01*
X11245081Y-11667347D01*
X11273653Y-11681633D01*
X11287939Y-11710204D01*
X11287939Y-11867347D01*
X11430796Y-11867347D02*
X11430796Y-11667347D01*
X11430796Y-11695918D02*
X11445081Y-11681633D01*
X11473653Y-11667347D01*
X11516510Y-11667347D01*
X11545081Y-11681633D01*
X11559367Y-11710204D01*
X11559367Y-11867347D01*
X11559367Y-11710204D02*
X11573653Y-11681633D01*
X11602224Y-11667347D01*
X11645081Y-11667347D01*
X11673653Y-11681633D01*
X11687939Y-11710204D01*
X11687939Y-11867347D01*
X12273653Y-11553061D02*
X12016510Y-11938776D01*
X12659367Y-11567347D02*
X12687939Y-11567347D01*
X12716510Y-11581633D01*
X12730796Y-11595918D01*
X12745081Y-11624490D01*
X12759367Y-11681633D01*
X12759367Y-11753061D01*
X12745081Y-11810204D01*
X12730796Y-11838776D01*
X12716510Y-11853061D01*
X12687939Y-11867347D01*
X12659367Y-11867347D01*
X12630796Y-11853061D01*
X12616510Y-11838776D01*
X12602224Y-11810204D01*
X12587939Y-11753061D01*
X12587939Y-11681633D01*
X12602224Y-11624490D01*
X12616510Y-11595918D01*
X12630796Y-11581633D01*
X12659367Y-11567347D01*
X12887939Y-11838776D02*
X12902224Y-11853061D01*
X12887939Y-11867347D01*
X12873653Y-11853061D01*
X12887939Y-11838776D01*
X12887939Y-11867347D01*
X13087939Y-11567347D02*
X13116510Y-11567347D01*
X13145081Y-11581633D01*
X13159367Y-11595918D01*
X13173653Y-11624490D01*
X13187939Y-11681633D01*
X13187939Y-11753061D01*
X13173653Y-11810204D01*
X13159367Y-11838776D01*
X13145081Y-11853061D01*
X13116510Y-11867347D01*
X13087939Y-11867347D01*
X13059367Y-11853061D01*
X13045081Y-11838776D01*
X13030796Y-11810204D01*
X13016510Y-11753061D01*
X13016510Y-11681633D01*
X13030796Y-11624490D01*
X13045081Y-11595918D01*
X13059367Y-11581633D01*
X13087939Y-11567347D01*
X13287939Y-11567347D02*
X13473653Y-11567347D01*
X13373653Y-11681633D01*
X13416510Y-11681633D01*
X13445081Y-11695918D01*
X13459367Y-11710204D01*
X13473653Y-11738776D01*
X13473653Y-11810204D01*
X13459367Y-11838776D01*
X13445081Y-11853061D01*
X13416510Y-11867347D01*
X13330796Y-11867347D01*
X13302224Y-11853061D01*
X13287939Y-11838776D01*
X13745081Y-11567347D02*
X13602224Y-11567347D01*
X13587939Y-11710204D01*
X13602224Y-11695918D01*
X13630796Y-11681633D01*
X13702224Y-11681633D01*
X13730796Y-11695918D01*
X13745081Y-11710204D01*
X13759367Y-11738776D01*
X13759367Y-11810204D01*
X13745081Y-11838776D01*
X13730796Y-11853061D01*
X13702224Y-11867347D01*
X13630796Y-11867347D01*
X13602224Y-11853061D01*
X13587939Y-11838776D01*
X13873653Y-11567347D02*
X13873653Y-11624490D01*
X13987939Y-11567347D02*
X13987939Y-11624490D01*
X14430796Y-11981633D02*
X14416510Y-11967347D01*
X14387939Y-11924490D01*
X14373653Y-11895918D01*
X14359367Y-11853061D01*
X14345081Y-11781633D01*
X14345081Y-11724490D01*
X14359367Y-11653061D01*
X14373653Y-11610204D01*
X14387939Y-11581633D01*
X14416510Y-11538776D01*
X14430796Y-11524490D01*
X14702224Y-11867347D02*
X14530796Y-11867347D01*
X14616510Y-11867347D02*
X14616510Y-11567347D01*
X14587939Y-11610204D01*
X14559367Y-11638776D01*
X14530796Y-11653061D01*
X14816510Y-11595918D02*
X14830796Y-11581633D01*
X14859367Y-11567347D01*
X14930796Y-11567347D01*
X14959367Y-11581633D01*
X14973653Y-11595918D01*
X14987939Y-11624490D01*
X14987939Y-11653061D01*
X14973653Y-11695918D01*
X14802224Y-11867347D01*
X14987939Y-11867347D01*
X15345081Y-11867347D02*
X15345081Y-11567347D01*
X15473653Y-11867347D02*
X15473653Y-11710204D01*
X15459367Y-11681633D01*
X15430796Y-11667347D01*
X15387939Y-11667347D01*
X15359367Y-11681633D01*
X15345081Y-11695918D01*
X15659367Y-11867347D02*
X15630796Y-11853061D01*
X15616510Y-11838776D01*
X15602224Y-11810204D01*
X15602224Y-11724490D01*
X15616510Y-11695918D01*
X15630796Y-11681633D01*
X15659367Y-11667347D01*
X15702224Y-11667347D01*
X15730796Y-11681633D01*
X15745081Y-11695918D01*
X15759367Y-11724490D01*
X15759367Y-11810204D01*
X15745081Y-11838776D01*
X15730796Y-11853061D01*
X15702224Y-11867347D01*
X15659367Y-11867347D01*
X15930796Y-11867347D02*
X15902224Y-11853061D01*
X15887939Y-11824490D01*
X15887939Y-11567347D01*
X16159367Y-11853061D02*
X16130796Y-11867347D01*
X16073653Y-11867347D01*
X16045081Y-11853061D01*
X16030796Y-11824490D01*
X16030796Y-11710204D01*
X16045081Y-11681633D01*
X16073653Y-11667347D01*
X16130796Y-11667347D01*
X16159367Y-11681633D01*
X16173653Y-11710204D01*
X16173653Y-11738776D01*
X16030796Y-11767347D01*
X16287939Y-11853061D02*
X16316510Y-11867347D01*
X16373653Y-11867347D01*
X16402224Y-11853061D01*
X16416510Y-11824490D01*
X16416510Y-11810204D01*
X16402224Y-11781633D01*
X16373653Y-11767347D01*
X16330796Y-11767347D01*
X16302224Y-11753061D01*
X16287939Y-11724490D01*
X16287939Y-11710204D01*
X16302224Y-11681633D01*
X16330796Y-11667347D01*
X16373653Y-11667347D01*
X16402224Y-11681633D01*
X16516510Y-11981633D02*
X16530796Y-11967347D01*
X16559367Y-11924490D01*
X16573653Y-11895918D01*
X16587939Y-11853061D01*
X16602224Y-11781633D01*
X16602224Y-11724490D01*
X16587939Y-11653061D01*
X16573653Y-11610204D01*
X16559367Y-11581633D01*
X16530796Y-11538776D01*
X16516510Y-11524490D01*
X9694367Y-12077633D02*
X9694367Y-12177633D01*
X9644367Y-12127633D02*
X9744367Y-12127633D01*
X10187939Y-12263347D02*
X10016510Y-12263347D01*
X10102224Y-12263347D02*
X10102224Y-11963347D01*
X10073653Y-12006204D01*
X10045081Y-12034776D01*
X10016510Y-12049061D01*
X10316510Y-12234776D02*
X10330796Y-12249061D01*
X10316510Y-12263347D01*
X10302224Y-12249061D01*
X10316510Y-12234776D01*
X10316510Y-12263347D01*
X10516510Y-11963347D02*
X10545081Y-11963347D01*
X10573653Y-11977633D01*
X10587939Y-11991918D01*
X10602224Y-12020490D01*
X10616510Y-12077633D01*
X10616510Y-12149061D01*
X10602224Y-12206204D01*
X10587939Y-12234776D01*
X10573653Y-12249061D01*
X10545081Y-12263347D01*
X10516510Y-12263347D01*
X10487939Y-12249061D01*
X10473653Y-12234776D01*
X10459367Y-12206204D01*
X10445081Y-12149061D01*
X10445081Y-12077633D01*
X10459367Y-12020490D01*
X10473653Y-11991918D01*
X10487939Y-11977633D01*
X10516510Y-11963347D01*
X10802224Y-11963347D02*
X10830796Y-11963347D01*
X10859367Y-11977633D01*
X10873653Y-11991918D01*
X10887939Y-12020490D01*
X10902224Y-12077633D01*
X10902224Y-12149061D01*
X10887939Y-12206204D01*
X10873653Y-12234776D01*
X10859367Y-12249061D01*
X10830796Y-12263347D01*
X10802224Y-12263347D01*
X10773653Y-12249061D01*
X10759367Y-12234776D01*
X10745081Y-12206204D01*
X10730796Y-12149061D01*
X10730796Y-12077633D01*
X10745081Y-12020490D01*
X10759367Y-11991918D01*
X10773653Y-11977633D01*
X10802224Y-11963347D01*
X11030796Y-12263347D02*
X11030796Y-12063347D01*
X11030796Y-12091918D02*
X11045081Y-12077633D01*
X11073653Y-12063347D01*
X11116510Y-12063347D01*
X11145081Y-12077633D01*
X11159367Y-12106204D01*
X11159367Y-12263347D01*
X11159367Y-12106204D02*
X11173653Y-12077633D01*
X11202224Y-12063347D01*
X11245081Y-12063347D01*
X11273653Y-12077633D01*
X11287939Y-12106204D01*
X11287939Y-12263347D01*
X11430796Y-12263347D02*
X11430796Y-12063347D01*
X11430796Y-12091918D02*
X11445081Y-12077633D01*
X11473653Y-12063347D01*
X11516510Y-12063347D01*
X11545081Y-12077633D01*
X11559367Y-12106204D01*
X11559367Y-12263347D01*
X11559367Y-12106204D02*
X11573653Y-12077633D01*
X11602224Y-12063347D01*
X11645081Y-12063347D01*
X11673653Y-12077633D01*
X11687939Y-12106204D01*
X11687939Y-12263347D01*
X12273653Y-11949061D02*
X12016510Y-12334776D01*
X12659367Y-11963347D02*
X12687939Y-11963347D01*
X12716510Y-11977633D01*
X12730796Y-11991918D01*
X12745081Y-12020490D01*
X12759367Y-12077633D01*
X12759367Y-12149061D01*
X12745081Y-12206204D01*
X12730796Y-12234776D01*
X12716510Y-12249061D01*
X12687939Y-12263347D01*
X12659367Y-12263347D01*
X12630796Y-12249061D01*
X12616510Y-12234776D01*
X12602224Y-12206204D01*
X12587939Y-12149061D01*
X12587939Y-12077633D01*
X12602224Y-12020490D01*
X12616510Y-11991918D01*
X12630796Y-11977633D01*
X12659367Y-11963347D01*
X12887939Y-12234776D02*
X12902224Y-12249061D01*
X12887939Y-12263347D01*
X12873653Y-12249061D01*
X12887939Y-12234776D01*
X12887939Y-12263347D01*
X13087939Y-11963347D02*
X13116510Y-11963347D01*
X13145081Y-11977633D01*
X13159367Y-11991918D01*
X13173653Y-12020490D01*
X13187939Y-12077633D01*
X13187939Y-12149061D01*
X13173653Y-12206204D01*
X13159367Y-12234776D01*
X13145081Y-12249061D01*
X13116510Y-12263347D01*
X13087939Y-12263347D01*
X13059367Y-12249061D01*
X13045081Y-12234776D01*
X13030796Y-12206204D01*
X13016510Y-12149061D01*
X13016510Y-12077633D01*
X13030796Y-12020490D01*
X13045081Y-11991918D01*
X13059367Y-11977633D01*
X13087939Y-11963347D01*
X13287939Y-11963347D02*
X13473653Y-11963347D01*
X13373653Y-12077633D01*
X13416510Y-12077633D01*
X13445081Y-12091918D01*
X13459367Y-12106204D01*
X13473653Y-12134776D01*
X13473653Y-12206204D01*
X13459367Y-12234776D01*
X13445081Y-12249061D01*
X13416510Y-12263347D01*
X13330796Y-12263347D01*
X13302224Y-12249061D01*
X13287939Y-12234776D01*
X13616510Y-12263347D02*
X13673653Y-12263347D01*
X13702224Y-12249061D01*
X13716510Y-12234776D01*
X13745081Y-12191918D01*
X13759367Y-12134776D01*
X13759367Y-12020490D01*
X13745081Y-11991918D01*
X13730796Y-11977633D01*
X13702224Y-11963347D01*
X13645081Y-11963347D01*
X13616510Y-11977633D01*
X13602224Y-11991918D01*
X13587939Y-12020490D01*
X13587939Y-12091918D01*
X13602224Y-12120490D01*
X13616510Y-12134776D01*
X13645081Y-12149061D01*
X13702224Y-12149061D01*
X13730796Y-12134776D01*
X13745081Y-12120490D01*
X13759367Y-12091918D01*
X13873653Y-11963347D02*
X13873653Y-12020490D01*
X13987939Y-11963347D02*
X13987939Y-12020490D01*
X14430796Y-12377633D02*
X14416510Y-12363347D01*
X14387939Y-12320490D01*
X14373653Y-12291918D01*
X14359367Y-12249061D01*
X14345081Y-12177633D01*
X14345081Y-12120490D01*
X14359367Y-12049061D01*
X14373653Y-12006204D01*
X14387939Y-11977633D01*
X14416510Y-11934776D01*
X14430796Y-11920490D01*
X14673653Y-12063347D02*
X14673653Y-12263347D01*
X14602224Y-11949061D02*
X14530796Y-12163347D01*
X14716510Y-12163347D01*
X15059367Y-12263347D02*
X15059367Y-11963347D01*
X15187939Y-12263347D02*
X15187939Y-12106204D01*
X15173653Y-12077633D01*
X15145081Y-12063347D01*
X15102224Y-12063347D01*
X15073653Y-12077633D01*
X15059367Y-12091918D01*
X15373653Y-12263347D02*
X15345081Y-12249061D01*
X15330796Y-12234776D01*
X15316510Y-12206204D01*
X15316510Y-12120490D01*
X15330796Y-12091918D01*
X15345081Y-12077633D01*
X15373653Y-12063347D01*
X15416510Y-12063347D01*
X15445081Y-12077633D01*
X15459367Y-12091918D01*
X15473653Y-12120490D01*
X15473653Y-12206204D01*
X15459367Y-12234776D01*
X15445081Y-12249061D01*
X15416510Y-12263347D01*
X15373653Y-12263347D01*
X15645081Y-12263347D02*
X15616510Y-12249061D01*
X15602224Y-12220490D01*
X15602224Y-11963347D01*
X15873653Y-12249061D02*
X15845081Y-12263347D01*
X15787939Y-12263347D01*
X15759367Y-12249061D01*
X15745081Y-12220490D01*
X15745081Y-12106204D01*
X15759367Y-12077633D01*
X15787939Y-12063347D01*
X15845081Y-12063347D01*
X15873653Y-12077633D01*
X15887939Y-12106204D01*
X15887939Y-12134776D01*
X15745081Y-12163347D01*
X16002224Y-12249061D02*
X16030796Y-12263347D01*
X16087939Y-12263347D01*
X16116510Y-12249061D01*
X16130796Y-12220490D01*
X16130796Y-12206204D01*
X16116510Y-12177633D01*
X16087939Y-12163347D01*
X16045081Y-12163347D01*
X16016510Y-12149061D01*
X16002224Y-12120490D01*
X16002224Y-12106204D01*
X16016510Y-12077633D01*
X16045081Y-12063347D01*
X16087939Y-12063347D01*
X16116510Y-12077633D01*
X16230796Y-12377633D02*
X16245081Y-12363347D01*
X16273653Y-12320490D01*
X16287939Y-12291918D01*
X16302224Y-12249061D01*
X16316510Y-12177633D01*
X16316510Y-12120490D01*
X16302224Y-12049061D01*
X16287939Y-12006204D01*
X16273653Y-11977633D01*
X16245081Y-11934776D01*
X16230796Y-11920490D01*
X9726794Y-12566060D02*
X9726794Y-12481206D01*
X9641940Y-12481206D01*
X9641940Y-12566060D01*
X9726794Y-12566060D01*
X10187939Y-12659347D02*
X10016510Y-12659347D01*
X10102224Y-12659347D02*
X10102224Y-12359347D01*
X10073653Y-12402204D01*
X10045081Y-12430776D01*
X10016510Y-12445061D01*
X10316510Y-12630776D02*
X10330796Y-12645061D01*
X10316510Y-12659347D01*
X10302224Y-12645061D01*
X10316510Y-12630776D01*
X10316510Y-12659347D01*
X10445081Y-12387918D02*
X10459367Y-12373633D01*
X10487939Y-12359347D01*
X10559367Y-12359347D01*
X10587939Y-12373633D01*
X10602224Y-12387918D01*
X10616510Y-12416490D01*
X10616510Y-12445061D01*
X10602224Y-12487918D01*
X10430796Y-12659347D01*
X10616510Y-12659347D01*
X10802224Y-12359347D02*
X10830796Y-12359347D01*
X10859367Y-12373633D01*
X10873653Y-12387918D01*
X10887939Y-12416490D01*
X10902224Y-12473633D01*
X10902224Y-12545061D01*
X10887939Y-12602204D01*
X10873653Y-12630776D01*
X10859367Y-12645061D01*
X10830796Y-12659347D01*
X10802224Y-12659347D01*
X10773653Y-12645061D01*
X10759367Y-12630776D01*
X10745081Y-12602204D01*
X10730796Y-12545061D01*
X10730796Y-12473633D01*
X10745081Y-12416490D01*
X10759367Y-12387918D01*
X10773653Y-12373633D01*
X10802224Y-12359347D01*
X11030796Y-12659347D02*
X11030796Y-12459347D01*
X11030796Y-12487918D02*
X11045081Y-12473633D01*
X11073653Y-12459347D01*
X11116510Y-12459347D01*
X11145081Y-12473633D01*
X11159367Y-12502204D01*
X11159367Y-12659347D01*
X11159367Y-12502204D02*
X11173653Y-12473633D01*
X11202224Y-12459347D01*
X11245081Y-12459347D01*
X11273653Y-12473633D01*
X11287939Y-12502204D01*
X11287939Y-12659347D01*
X11430796Y-12659347D02*
X11430796Y-12459347D01*
X11430796Y-12487918D02*
X11445081Y-12473633D01*
X11473653Y-12459347D01*
X11516510Y-12459347D01*
X11545081Y-12473633D01*
X11559367Y-12502204D01*
X11559367Y-12659347D01*
X11559367Y-12502204D02*
X11573653Y-12473633D01*
X11602224Y-12459347D01*
X11645081Y-12459347D01*
X11673653Y-12473633D01*
X11687939Y-12502204D01*
X11687939Y-12659347D01*
X12273653Y-12345061D02*
X12016510Y-12730776D01*
X12659367Y-12359347D02*
X12687939Y-12359347D01*
X12716510Y-12373633D01*
X12730796Y-12387918D01*
X12745081Y-12416490D01*
X12759367Y-12473633D01*
X12759367Y-12545061D01*
X12745081Y-12602204D01*
X12730796Y-12630776D01*
X12716510Y-12645061D01*
X12687939Y-12659347D01*
X12659367Y-12659347D01*
X12630796Y-12645061D01*
X12616510Y-12630776D01*
X12602224Y-12602204D01*
X12587939Y-12545061D01*
X12587939Y-12473633D01*
X12602224Y-12416490D01*
X12616510Y-12387918D01*
X12630796Y-12373633D01*
X12659367Y-12359347D01*
X12887939Y-12630776D02*
X12902224Y-12645061D01*
X12887939Y-12659347D01*
X12873653Y-12645061D01*
X12887939Y-12630776D01*
X12887939Y-12659347D01*
X13087939Y-12359347D02*
X13116510Y-12359347D01*
X13145081Y-12373633D01*
X13159367Y-12387918D01*
X13173653Y-12416490D01*
X13187939Y-12473633D01*
X13187939Y-12545061D01*
X13173653Y-12602204D01*
X13159367Y-12630776D01*
X13145081Y-12645061D01*
X13116510Y-12659347D01*
X13087939Y-12659347D01*
X13059367Y-12645061D01*
X13045081Y-12630776D01*
X13030796Y-12602204D01*
X13016510Y-12545061D01*
X13016510Y-12473633D01*
X13030796Y-12416490D01*
X13045081Y-12387918D01*
X13059367Y-12373633D01*
X13087939Y-12359347D01*
X13445081Y-12459347D02*
X13445081Y-12659347D01*
X13373653Y-12345061D02*
X13302224Y-12559347D01*
X13487939Y-12559347D01*
X13573653Y-12359347D02*
X13773653Y-12359347D01*
X13645081Y-12659347D01*
X13873653Y-12359347D02*
X13873653Y-12416490D01*
X13987939Y-12359347D02*
X13987939Y-12416490D01*
X14430796Y-12773633D02*
X14416510Y-12759347D01*
X14387939Y-12716490D01*
X14373653Y-12687918D01*
X14359367Y-12645061D01*
X14345081Y-12573633D01*
X14345081Y-12516490D01*
X14359367Y-12445061D01*
X14373653Y-12402204D01*
X14387939Y-12373633D01*
X14416510Y-12330776D01*
X14430796Y-12316490D01*
X14673653Y-12459347D02*
X14673653Y-12659347D01*
X14602224Y-12345061D02*
X14530796Y-12559347D01*
X14716510Y-12559347D01*
X15059367Y-12659347D02*
X15059367Y-12359347D01*
X15187939Y-12659347D02*
X15187939Y-12502204D01*
X15173653Y-12473633D01*
X15145081Y-12459347D01*
X15102224Y-12459347D01*
X15073653Y-12473633D01*
X15059367Y-12487918D01*
X15373653Y-12659347D02*
X15345081Y-12645061D01*
X15330796Y-12630776D01*
X15316510Y-12602204D01*
X15316510Y-12516490D01*
X15330796Y-12487918D01*
X15345081Y-12473633D01*
X15373653Y-12459347D01*
X15416510Y-12459347D01*
X15445081Y-12473633D01*
X15459367Y-12487918D01*
X15473653Y-12516490D01*
X15473653Y-12602204D01*
X15459367Y-12630776D01*
X15445081Y-12645061D01*
X15416510Y-12659347D01*
X15373653Y-12659347D01*
X15645081Y-12659347D02*
X15616510Y-12645061D01*
X15602224Y-12616490D01*
X15602224Y-12359347D01*
X15873653Y-12645061D02*
X15845081Y-12659347D01*
X15787939Y-12659347D01*
X15759367Y-12645061D01*
X15745081Y-12616490D01*
X15745081Y-12502204D01*
X15759367Y-12473633D01*
X15787939Y-12459347D01*
X15845081Y-12459347D01*
X15873653Y-12473633D01*
X15887939Y-12502204D01*
X15887939Y-12530776D01*
X15745081Y-12559347D01*
X16002224Y-12645061D02*
X16030796Y-12659347D01*
X16087939Y-12659347D01*
X16116510Y-12645061D01*
X16130796Y-12616490D01*
X16130796Y-12602204D01*
X16116510Y-12573633D01*
X16087939Y-12559347D01*
X16045081Y-12559347D01*
X16016510Y-12545061D01*
X16002224Y-12516490D01*
X16002224Y-12502204D01*
X16016510Y-12473633D01*
X16045081Y-12459347D01*
X16087939Y-12459347D01*
X16116510Y-12473633D01*
X16230796Y-12773633D02*
X16245081Y-12759347D01*
X16273653Y-12716490D01*
X16287939Y-12687918D01*
X16302224Y-12645061D01*
X16316510Y-12573633D01*
X16316510Y-12516490D01*
X16302224Y-12445061D01*
X16287939Y-12402204D01*
X16273653Y-12373633D01*
X16245081Y-12330776D01*
X16230796Y-12316490D01*
X9669310Y-12994690D02*
X9744367Y-12919633D01*
X9669310Y-12844576D01*
X9594253Y-12919633D01*
X9669310Y-12994690D01*
X10187939Y-13055347D02*
X10016510Y-13055347D01*
X10102224Y-13055347D02*
X10102224Y-12755347D01*
X10073653Y-12798204D01*
X10045081Y-12826776D01*
X10016510Y-12841061D01*
X10316510Y-13026776D02*
X10330796Y-13041061D01*
X10316510Y-13055347D01*
X10302224Y-13041061D01*
X10316510Y-13026776D01*
X10316510Y-13055347D01*
X10602224Y-12755347D02*
X10459367Y-12755347D01*
X10445081Y-12898204D01*
X10459367Y-12883918D01*
X10487939Y-12869633D01*
X10559367Y-12869633D01*
X10587939Y-12883918D01*
X10602224Y-12898204D01*
X10616510Y-12926776D01*
X10616510Y-12998204D01*
X10602224Y-13026776D01*
X10587939Y-13041061D01*
X10559367Y-13055347D01*
X10487939Y-13055347D01*
X10459367Y-13041061D01*
X10445081Y-13026776D01*
X10802224Y-12755347D02*
X10830796Y-12755347D01*
X10859367Y-12769633D01*
X10873653Y-12783918D01*
X10887939Y-12812490D01*
X10902224Y-12869633D01*
X10902224Y-12941061D01*
X10887939Y-12998204D01*
X10873653Y-13026776D01*
X10859367Y-13041061D01*
X10830796Y-13055347D01*
X10802224Y-13055347D01*
X10773653Y-13041061D01*
X10759367Y-13026776D01*
X10745081Y-12998204D01*
X10730796Y-12941061D01*
X10730796Y-12869633D01*
X10745081Y-12812490D01*
X10759367Y-12783918D01*
X10773653Y-12769633D01*
X10802224Y-12755347D01*
X11030796Y-13055347D02*
X11030796Y-12855347D01*
X11030796Y-12883918D02*
X11045081Y-12869633D01*
X11073653Y-12855347D01*
X11116510Y-12855347D01*
X11145081Y-12869633D01*
X11159367Y-12898204D01*
X11159367Y-13055347D01*
X11159367Y-12898204D02*
X11173653Y-12869633D01*
X11202224Y-12855347D01*
X11245081Y-12855347D01*
X11273653Y-12869633D01*
X11287939Y-12898204D01*
X11287939Y-13055347D01*
X11430796Y-13055347D02*
X11430796Y-12855347D01*
X11430796Y-12883918D02*
X11445081Y-12869633D01*
X11473653Y-12855347D01*
X11516510Y-12855347D01*
X11545081Y-12869633D01*
X11559367Y-12898204D01*
X11559367Y-13055347D01*
X11559367Y-12898204D02*
X11573653Y-12869633D01*
X11602224Y-12855347D01*
X11645081Y-12855347D01*
X11673653Y-12869633D01*
X11687939Y-12898204D01*
X11687939Y-13055347D01*
X12273653Y-12741061D02*
X12016510Y-13126776D01*
X12659367Y-12755347D02*
X12687939Y-12755347D01*
X12716510Y-12769633D01*
X12730796Y-12783918D01*
X12745081Y-12812490D01*
X12759367Y-12869633D01*
X12759367Y-12941061D01*
X12745081Y-12998204D01*
X12730796Y-13026776D01*
X12716510Y-13041061D01*
X12687939Y-13055347D01*
X12659367Y-13055347D01*
X12630796Y-13041061D01*
X12616510Y-13026776D01*
X12602224Y-12998204D01*
X12587939Y-12941061D01*
X12587939Y-12869633D01*
X12602224Y-12812490D01*
X12616510Y-12783918D01*
X12630796Y-12769633D01*
X12659367Y-12755347D01*
X12887939Y-13026776D02*
X12902224Y-13041061D01*
X12887939Y-13055347D01*
X12873653Y-13041061D01*
X12887939Y-13026776D01*
X12887939Y-13055347D01*
X13087939Y-12755347D02*
X13116510Y-12755347D01*
X13145081Y-12769633D01*
X13159367Y-12783918D01*
X13173653Y-12812490D01*
X13187939Y-12869633D01*
X13187939Y-12941061D01*
X13173653Y-12998204D01*
X13159367Y-13026776D01*
X13145081Y-13041061D01*
X13116510Y-13055347D01*
X13087939Y-13055347D01*
X13059367Y-13041061D01*
X13045081Y-13026776D01*
X13030796Y-12998204D01*
X13016510Y-12941061D01*
X13016510Y-12869633D01*
X13030796Y-12812490D01*
X13045081Y-12783918D01*
X13059367Y-12769633D01*
X13087939Y-12755347D01*
X13459367Y-12755347D02*
X13316510Y-12755347D01*
X13302224Y-12898204D01*
X13316510Y-12883918D01*
X13345081Y-12869633D01*
X13416510Y-12869633D01*
X13445081Y-12883918D01*
X13459367Y-12898204D01*
X13473653Y-12926776D01*
X13473653Y-12998204D01*
X13459367Y-13026776D01*
X13445081Y-13041061D01*
X13416510Y-13055347D01*
X13345081Y-13055347D01*
X13316510Y-13041061D01*
X13302224Y-13026776D01*
X13616510Y-13055347D02*
X13673653Y-13055347D01*
X13702224Y-13041061D01*
X13716510Y-13026776D01*
X13745081Y-12983918D01*
X13759367Y-12926776D01*
X13759367Y-12812490D01*
X13745081Y-12783918D01*
X13730796Y-12769633D01*
X13702224Y-12755347D01*
X13645081Y-12755347D01*
X13616510Y-12769633D01*
X13602224Y-12783918D01*
X13587939Y-12812490D01*
X13587939Y-12883918D01*
X13602224Y-12912490D01*
X13616510Y-12926776D01*
X13645081Y-12941061D01*
X13702224Y-12941061D01*
X13730796Y-12926776D01*
X13745081Y-12912490D01*
X13759367Y-12883918D01*
X13873653Y-12755347D02*
X13873653Y-12812490D01*
X13987939Y-12755347D02*
X13987939Y-12812490D01*
X14430796Y-13169633D02*
X14416510Y-13155347D01*
X14387939Y-13112490D01*
X14373653Y-13083918D01*
X14359367Y-13041061D01*
X14345081Y-12969633D01*
X14345081Y-12912490D01*
X14359367Y-12841061D01*
X14373653Y-12798204D01*
X14387939Y-12769633D01*
X14416510Y-12726776D01*
X14430796Y-12712490D01*
X14530796Y-12783918D02*
X14545081Y-12769633D01*
X14573653Y-12755347D01*
X14645081Y-12755347D01*
X14673653Y-12769633D01*
X14687939Y-12783918D01*
X14702224Y-12812490D01*
X14702224Y-12841061D01*
X14687939Y-12883918D01*
X14516510Y-13055347D01*
X14702224Y-13055347D01*
X15059367Y-13055347D02*
X15059367Y-12755347D01*
X15187939Y-13055347D02*
X15187939Y-12898204D01*
X15173653Y-12869633D01*
X15145081Y-12855347D01*
X15102224Y-12855347D01*
X15073653Y-12869633D01*
X15059367Y-12883918D01*
X15373653Y-13055347D02*
X15345081Y-13041061D01*
X15330796Y-13026776D01*
X15316510Y-12998204D01*
X15316510Y-12912490D01*
X15330796Y-12883918D01*
X15345081Y-12869633D01*
X15373653Y-12855347D01*
X15416510Y-12855347D01*
X15445081Y-12869633D01*
X15459367Y-12883918D01*
X15473653Y-12912490D01*
X15473653Y-12998204D01*
X15459367Y-13026776D01*
X15445081Y-13041061D01*
X15416510Y-13055347D01*
X15373653Y-13055347D01*
X15645081Y-13055347D02*
X15616510Y-13041061D01*
X15602224Y-13012490D01*
X15602224Y-12755347D01*
X15873653Y-13041061D02*
X15845081Y-13055347D01*
X15787939Y-13055347D01*
X15759367Y-13041061D01*
X15745081Y-13012490D01*
X15745081Y-12898204D01*
X15759367Y-12869633D01*
X15787939Y-12855347D01*
X15845081Y-12855347D01*
X15873653Y-12869633D01*
X15887939Y-12898204D01*
X15887939Y-12926776D01*
X15745081Y-12955347D01*
X16002224Y-13041061D02*
X16030796Y-13055347D01*
X16087939Y-13055347D01*
X16116510Y-13041061D01*
X16130796Y-13012490D01*
X16130796Y-12998204D01*
X16116510Y-12969633D01*
X16087939Y-12955347D01*
X16045081Y-12955347D01*
X16016510Y-12941061D01*
X16002224Y-12912490D01*
X16002224Y-12898204D01*
X16016510Y-12869633D01*
X16045081Y-12855347D01*
X16087939Y-12855347D01*
X16116510Y-12869633D01*
X16230796Y-13169633D02*
X16245081Y-13155347D01*
X16273653Y-13112490D01*
X16287939Y-13083918D01*
X16302224Y-13041061D01*
X16316510Y-12969633D01*
X16316510Y-12912490D01*
X16302224Y-12841061D01*
X16287939Y-12798204D01*
X16273653Y-12769633D01*
X16245081Y-12726776D01*
X16230796Y-12712490D01*
M02*
