%FSLAX45Y45*%
G04 Gerber Fmt 4.5, Leading zero omitted, Abs format (unit mm)*
G04 Created by KiCad (PCBNEW no-vcs-found-33e0758~58~ubuntu16.04.1) date Wed May  9 13:31:19 2018*
%MOMM*%
%LPD*%
G01*
G04 APERTURE LIST*
%ADD10C,0.127000*%
%ADD11C,0.150000*%
%ADD12C,0.200000*%
%ADD13C,0.300000*%
G04 APERTURE END LIST*
D10*
D11*
X13640000Y-6880000D02*
X13640000Y-6880000D01*
X10200000Y-6880000D02*
X13640000Y-6880000D01*
X13640000Y-6880000D02*
G75*
G02X10200000Y-6880000I-1720000J-1320000D01*
G01*
D12*
X11200000Y-9940000D02*
X11400000Y-10140000D01*
X11400000Y-9940000D02*
X11200000Y-10140000D01*
D13*
X10030796Y-10841347D02*
X10030796Y-10541347D01*
X10102224Y-10541347D01*
X10145081Y-10555633D01*
X10173653Y-10584204D01*
X10187939Y-10612776D01*
X10202224Y-10669919D01*
X10202224Y-10712776D01*
X10187939Y-10769919D01*
X10173653Y-10798490D01*
X10145081Y-10827061D01*
X10102224Y-10841347D01*
X10030796Y-10841347D01*
X10330796Y-10841347D02*
X10330796Y-10641347D01*
X10330796Y-10698490D02*
X10345081Y-10669919D01*
X10359367Y-10655633D01*
X10387939Y-10641347D01*
X10416510Y-10641347D01*
X10516510Y-10841347D02*
X10516510Y-10641347D01*
X10516510Y-10541347D02*
X10502224Y-10555633D01*
X10516510Y-10569919D01*
X10530796Y-10555633D01*
X10516510Y-10541347D01*
X10516510Y-10569919D01*
X10702224Y-10841347D02*
X10673653Y-10827061D01*
X10659367Y-10798490D01*
X10659367Y-10541347D01*
X10859367Y-10841347D02*
X10830796Y-10827061D01*
X10816510Y-10798490D01*
X10816510Y-10541347D01*
X11202224Y-10841347D02*
X11202224Y-10541347D01*
X11302224Y-10755633D01*
X11402224Y-10541347D01*
X11402224Y-10841347D01*
X11673653Y-10841347D02*
X11673653Y-10684204D01*
X11659367Y-10655633D01*
X11630796Y-10641347D01*
X11573653Y-10641347D01*
X11545081Y-10655633D01*
X11673653Y-10827061D02*
X11645081Y-10841347D01*
X11573653Y-10841347D01*
X11545081Y-10827061D01*
X11530796Y-10798490D01*
X11530796Y-10769919D01*
X11545081Y-10741347D01*
X11573653Y-10727061D01*
X11645081Y-10727061D01*
X11673653Y-10712776D01*
X11816510Y-10641347D02*
X11816510Y-10941347D01*
X11816510Y-10655633D02*
X11845081Y-10641347D01*
X11902224Y-10641347D01*
X11930796Y-10655633D01*
X11945081Y-10669919D01*
X11959367Y-10698490D01*
X11959367Y-10784204D01*
X11945081Y-10812776D01*
X11930796Y-10827061D01*
X11902224Y-10841347D01*
X11845081Y-10841347D01*
X11816510Y-10827061D01*
X12087939Y-10812776D02*
X12102224Y-10827061D01*
X12087939Y-10841347D01*
X12073653Y-10827061D01*
X12087939Y-10812776D01*
X12087939Y-10841347D01*
X12087939Y-10655633D02*
X12102224Y-10669919D01*
X12087939Y-10684204D01*
X12073653Y-10669919D01*
X12087939Y-10655633D01*
X12087939Y-10684204D01*
X9544367Y-11235633D02*
X9744367Y-11435633D01*
X9744367Y-11235633D02*
X9544367Y-11435633D01*
X10016510Y-11199918D02*
X10030796Y-11185633D01*
X10059367Y-11171347D01*
X10130796Y-11171347D01*
X10159367Y-11185633D01*
X10173653Y-11199918D01*
X10187939Y-11228490D01*
X10187939Y-11257061D01*
X10173653Y-11299918D01*
X10002224Y-11471347D01*
X10187939Y-11471347D01*
X10316510Y-11442776D02*
X10330796Y-11457061D01*
X10316510Y-11471347D01*
X10302224Y-11457061D01*
X10316510Y-11442776D01*
X10316510Y-11471347D01*
X10516510Y-11171347D02*
X10545081Y-11171347D01*
X10573653Y-11185633D01*
X10587939Y-11199918D01*
X10602224Y-11228490D01*
X10616510Y-11285633D01*
X10616510Y-11357061D01*
X10602224Y-11414204D01*
X10587939Y-11442776D01*
X10573653Y-11457061D01*
X10545081Y-11471347D01*
X10516510Y-11471347D01*
X10487939Y-11457061D01*
X10473653Y-11442776D01*
X10459367Y-11414204D01*
X10445081Y-11357061D01*
X10445081Y-11285633D01*
X10459367Y-11228490D01*
X10473653Y-11199918D01*
X10487939Y-11185633D01*
X10516510Y-11171347D01*
X10802224Y-11171347D02*
X10830796Y-11171347D01*
X10859367Y-11185633D01*
X10873653Y-11199918D01*
X10887939Y-11228490D01*
X10902224Y-11285633D01*
X10902224Y-11357061D01*
X10887939Y-11414204D01*
X10873653Y-11442776D01*
X10859367Y-11457061D01*
X10830796Y-11471347D01*
X10802224Y-11471347D01*
X10773653Y-11457061D01*
X10759367Y-11442776D01*
X10745081Y-11414204D01*
X10730796Y-11357061D01*
X10730796Y-11285633D01*
X10745081Y-11228490D01*
X10759367Y-11199918D01*
X10773653Y-11185633D01*
X10802224Y-11171347D01*
X11030796Y-11471347D02*
X11030796Y-11271347D01*
X11030796Y-11299918D02*
X11045081Y-11285633D01*
X11073653Y-11271347D01*
X11116510Y-11271347D01*
X11145081Y-11285633D01*
X11159367Y-11314204D01*
X11159367Y-11471347D01*
X11159367Y-11314204D02*
X11173653Y-11285633D01*
X11202224Y-11271347D01*
X11245081Y-11271347D01*
X11273653Y-11285633D01*
X11287939Y-11314204D01*
X11287939Y-11471347D01*
X11430796Y-11471347D02*
X11430796Y-11271347D01*
X11430796Y-11299918D02*
X11445081Y-11285633D01*
X11473653Y-11271347D01*
X11516510Y-11271347D01*
X11545081Y-11285633D01*
X11559367Y-11314204D01*
X11559367Y-11471347D01*
X11559367Y-11314204D02*
X11573653Y-11285633D01*
X11602224Y-11271347D01*
X11645081Y-11271347D01*
X11673653Y-11285633D01*
X11687939Y-11314204D01*
X11687939Y-11471347D01*
X12273653Y-11157061D02*
X12016510Y-11542776D01*
X12659367Y-11171347D02*
X12687939Y-11171347D01*
X12716510Y-11185633D01*
X12730796Y-11199918D01*
X12745081Y-11228490D01*
X12759367Y-11285633D01*
X12759367Y-11357061D01*
X12745081Y-11414204D01*
X12730796Y-11442776D01*
X12716510Y-11457061D01*
X12687939Y-11471347D01*
X12659367Y-11471347D01*
X12630796Y-11457061D01*
X12616510Y-11442776D01*
X12602224Y-11414204D01*
X12587939Y-11357061D01*
X12587939Y-11285633D01*
X12602224Y-11228490D01*
X12616510Y-11199918D01*
X12630796Y-11185633D01*
X12659367Y-11171347D01*
X12887939Y-11442776D02*
X12902224Y-11457061D01*
X12887939Y-11471347D01*
X12873653Y-11457061D01*
X12887939Y-11442776D01*
X12887939Y-11471347D01*
X13087939Y-11171347D02*
X13116510Y-11171347D01*
X13145081Y-11185633D01*
X13159367Y-11199918D01*
X13173653Y-11228490D01*
X13187939Y-11285633D01*
X13187939Y-11357061D01*
X13173653Y-11414204D01*
X13159367Y-11442776D01*
X13145081Y-11457061D01*
X13116510Y-11471347D01*
X13087939Y-11471347D01*
X13059367Y-11457061D01*
X13045081Y-11442776D01*
X13030796Y-11414204D01*
X13016510Y-11357061D01*
X13016510Y-11285633D01*
X13030796Y-11228490D01*
X13045081Y-11199918D01*
X13059367Y-11185633D01*
X13087939Y-11171347D01*
X13287939Y-11171347D02*
X13487939Y-11171347D01*
X13359367Y-11471347D01*
X13616510Y-11471347D02*
X13673653Y-11471347D01*
X13702224Y-11457061D01*
X13716510Y-11442776D01*
X13745081Y-11399918D01*
X13759367Y-11342776D01*
X13759367Y-11228490D01*
X13745081Y-11199918D01*
X13730796Y-11185633D01*
X13702224Y-11171347D01*
X13645081Y-11171347D01*
X13616510Y-11185633D01*
X13602224Y-11199918D01*
X13587939Y-11228490D01*
X13587939Y-11299918D01*
X13602224Y-11328490D01*
X13616510Y-11342776D01*
X13645081Y-11357061D01*
X13702224Y-11357061D01*
X13730796Y-11342776D01*
X13745081Y-11328490D01*
X13759367Y-11299918D01*
X13873653Y-11171347D02*
X13873653Y-11228490D01*
X13987939Y-11171347D02*
X13987939Y-11228490D01*
X14430796Y-11585633D02*
X14416510Y-11571347D01*
X14387939Y-11528490D01*
X14373653Y-11499918D01*
X14359367Y-11457061D01*
X14345081Y-11385633D01*
X14345081Y-11328490D01*
X14359367Y-11257061D01*
X14373653Y-11214204D01*
X14387939Y-11185633D01*
X14416510Y-11142776D01*
X14430796Y-11128490D01*
X14702224Y-11471347D02*
X14530796Y-11471347D01*
X14616510Y-11471347D02*
X14616510Y-11171347D01*
X14587939Y-11214204D01*
X14559367Y-11242776D01*
X14530796Y-11257061D01*
X15059367Y-11471347D02*
X15059367Y-11171347D01*
X15187939Y-11471347D02*
X15187939Y-11314204D01*
X15173653Y-11285633D01*
X15145081Y-11271347D01*
X15102224Y-11271347D01*
X15073653Y-11285633D01*
X15059367Y-11299918D01*
X15373653Y-11471347D02*
X15345081Y-11457061D01*
X15330796Y-11442776D01*
X15316510Y-11414204D01*
X15316510Y-11328490D01*
X15330796Y-11299918D01*
X15345081Y-11285633D01*
X15373653Y-11271347D01*
X15416510Y-11271347D01*
X15445081Y-11285633D01*
X15459367Y-11299918D01*
X15473653Y-11328490D01*
X15473653Y-11414204D01*
X15459367Y-11442776D01*
X15445081Y-11457061D01*
X15416510Y-11471347D01*
X15373653Y-11471347D01*
X15645081Y-11471347D02*
X15616510Y-11457061D01*
X15602224Y-11428490D01*
X15602224Y-11171347D01*
X15873653Y-11457061D02*
X15845081Y-11471347D01*
X15787939Y-11471347D01*
X15759367Y-11457061D01*
X15745081Y-11428490D01*
X15745081Y-11314204D01*
X15759367Y-11285633D01*
X15787939Y-11271347D01*
X15845081Y-11271347D01*
X15873653Y-11285633D01*
X15887939Y-11314204D01*
X15887939Y-11342776D01*
X15745081Y-11371347D01*
X15987939Y-11585633D02*
X16002224Y-11571347D01*
X16030796Y-11528490D01*
X16045081Y-11499918D01*
X16059367Y-11457061D01*
X16073653Y-11385633D01*
X16073653Y-11328490D01*
X16059367Y-11257061D01*
X16045081Y-11214204D01*
X16030796Y-11185633D01*
X16002224Y-11142776D01*
X15987939Y-11128490D01*
X16530796Y-11585633D02*
X16516510Y-11571347D01*
X16487939Y-11528490D01*
X16473653Y-11499918D01*
X16459367Y-11457061D01*
X16445081Y-11385633D01*
X16445081Y-11328490D01*
X16459367Y-11257061D01*
X16473653Y-11214204D01*
X16487939Y-11185633D01*
X16516510Y-11142776D01*
X16530796Y-11128490D01*
X16645081Y-11271347D02*
X16645081Y-11471347D01*
X16645081Y-11299918D02*
X16659367Y-11285633D01*
X16687939Y-11271347D01*
X16730796Y-11271347D01*
X16759367Y-11285633D01*
X16773653Y-11314204D01*
X16773653Y-11471347D01*
X16959367Y-11471347D02*
X16930796Y-11457061D01*
X16916510Y-11442776D01*
X16902224Y-11414204D01*
X16902224Y-11328490D01*
X16916510Y-11299918D01*
X16930796Y-11285633D01*
X16959367Y-11271347D01*
X17002224Y-11271347D01*
X17030796Y-11285633D01*
X17045081Y-11299918D01*
X17059367Y-11328490D01*
X17059367Y-11414204D01*
X17045081Y-11442776D01*
X17030796Y-11457061D01*
X17002224Y-11471347D01*
X16959367Y-11471347D01*
X17145081Y-11271347D02*
X17259367Y-11271347D01*
X17187939Y-11171347D02*
X17187939Y-11428490D01*
X17202224Y-11457061D01*
X17230796Y-11471347D01*
X17259367Y-11471347D01*
X17587939Y-11271347D02*
X17587939Y-11571347D01*
X17587939Y-11285633D02*
X17616510Y-11271347D01*
X17673653Y-11271347D01*
X17702224Y-11285633D01*
X17716510Y-11299918D01*
X17730796Y-11328490D01*
X17730796Y-11414204D01*
X17716510Y-11442776D01*
X17702224Y-11457061D01*
X17673653Y-11471347D01*
X17616510Y-11471347D01*
X17587939Y-11457061D01*
X17902224Y-11471347D02*
X17873653Y-11457061D01*
X17859367Y-11428490D01*
X17859367Y-11171347D01*
X18145081Y-11471347D02*
X18145081Y-11314204D01*
X18130796Y-11285633D01*
X18102224Y-11271347D01*
X18045081Y-11271347D01*
X18016510Y-11285633D01*
X18145081Y-11457061D02*
X18116510Y-11471347D01*
X18045081Y-11471347D01*
X18016510Y-11457061D01*
X18002224Y-11428490D01*
X18002224Y-11399918D01*
X18016510Y-11371347D01*
X18045081Y-11357061D01*
X18116510Y-11357061D01*
X18145081Y-11342776D01*
X18245081Y-11271347D02*
X18359367Y-11271347D01*
X18287939Y-11171347D02*
X18287939Y-11428490D01*
X18302224Y-11457061D01*
X18330796Y-11471347D01*
X18359367Y-11471347D01*
X18573653Y-11457061D02*
X18545081Y-11471347D01*
X18487939Y-11471347D01*
X18459367Y-11457061D01*
X18445081Y-11428490D01*
X18445081Y-11314204D01*
X18459367Y-11285633D01*
X18487939Y-11271347D01*
X18545081Y-11271347D01*
X18573653Y-11285633D01*
X18587939Y-11314204D01*
X18587939Y-11342776D01*
X18445081Y-11371347D01*
X18845081Y-11471347D02*
X18845081Y-11171347D01*
X18845081Y-11457061D02*
X18816510Y-11471347D01*
X18759367Y-11471347D01*
X18730796Y-11457061D01*
X18716510Y-11442776D01*
X18702224Y-11414204D01*
X18702224Y-11328490D01*
X18716510Y-11299918D01*
X18730796Y-11285633D01*
X18759367Y-11271347D01*
X18816510Y-11271347D01*
X18845081Y-11285633D01*
X18959367Y-11585633D02*
X18973653Y-11571347D01*
X19002224Y-11528490D01*
X19016510Y-11499918D01*
X19030796Y-11457061D01*
X19045081Y-11385633D01*
X19045081Y-11328490D01*
X19030796Y-11257061D01*
X19016510Y-11214204D01*
X19002224Y-11185633D01*
X18973653Y-11142776D01*
X18959367Y-11128490D01*
M02*
