G04 #@! TF.GenerationSoftware,KiCad,Pcbnew,no-vcs-found-33e0758~58~ubuntu16.04.1*
G04 #@! TF.CreationDate,2018-03-21T11:11:48+01:00*
G04 #@! TF.ProjectId,dropbuzzer,64726F7062757A7A65722E6B69636164,rev?*
G04 #@! TF.FileFunction,Copper,L2,Bot,Signal*
G04 #@! TF.FilePolarity,Positive*
%FSLAX46Y46*%
G04 Gerber Fmt 4.6, Leading zero omitted, Abs format (unit mm)*
G04 Created by KiCad (PCBNEW no-vcs-found-33e0758~58~ubuntu16.04.1) date Wed Mar 21 11:11:48 2018*
%MOMM*%
%LPD*%
G01*
G04 APERTURE LIST*
%ADD10C,0.100000*%
%ADD11C,4.400000*%
%ADD12C,1.524000*%
%ADD13R,1.000000X2.580000*%
%ADD14R,0.900000X0.800000*%
%ADD15R,0.800000X0.750000*%
%ADD16C,0.750000*%
%ADD17R,1.350000X1.350000*%
%ADD18O,1.350000X1.350000*%
%ADD19R,1.300000X1.500000*%
%ADD20C,1.300000*%
%ADD21R,1.500000X1.300000*%
%ADD22R,1.500000X2.000000*%
%ADD23R,3.800000X2.000000*%
%ADD24C,0.800000*%
%ADD25C,0.250000*%
%ADD26C,0.254000*%
G04 APERTURE END LIST*
D10*
D11*
X103000000Y-76500000D03*
D12*
X101450000Y-73100000D03*
X101450000Y-57900000D03*
D11*
X123750000Y-76500000D03*
D13*
X107250000Y-60585000D03*
X107250000Y-56415000D03*
X105250000Y-60585000D03*
X105250000Y-56415000D03*
X103250000Y-60585000D03*
X103250000Y-56415000D03*
X118250000Y-55165000D03*
X118250000Y-59335000D03*
X120250000Y-55165000D03*
X120250000Y-59335000D03*
X122250000Y-55165000D03*
X122250000Y-59335000D03*
X124250000Y-55165000D03*
X124250000Y-59335000D03*
D14*
X106500000Y-64050000D03*
X106500000Y-65950000D03*
X104500000Y-65000000D03*
D15*
X114250000Y-54750000D03*
X115750000Y-54750000D03*
X112750000Y-54750000D03*
X111250000Y-54750000D03*
X111250000Y-56250000D03*
X112750000Y-56250000D03*
D16*
X118219670Y-69469670D03*
D10*
G36*
X117671662Y-69451992D02*
X118201992Y-68921662D01*
X118767678Y-69487348D01*
X118237348Y-70017678D01*
X117671662Y-69451992D01*
X117671662Y-69451992D01*
G37*
D16*
X119280330Y-70530330D03*
D10*
G36*
X118732322Y-70512652D02*
X119262652Y-69982322D01*
X119828338Y-70548008D01*
X119298008Y-71078338D01*
X118732322Y-70512652D01*
X118732322Y-70512652D01*
G37*
D15*
X109750000Y-63500000D03*
X108250000Y-63500000D03*
D16*
X118530330Y-66780330D03*
D10*
G36*
X117982322Y-66762652D02*
X118512652Y-66232322D01*
X119078338Y-66798008D01*
X118548008Y-67328338D01*
X117982322Y-66762652D01*
X117982322Y-66762652D01*
G37*
D16*
X117469670Y-65719670D03*
D10*
G36*
X116921662Y-65701992D02*
X117451992Y-65171662D01*
X118017678Y-65737348D01*
X117487348Y-66267678D01*
X116921662Y-65701992D01*
X116921662Y-65701992D01*
G37*
D17*
X119500000Y-77250000D03*
D18*
X119500000Y-75250000D03*
D19*
X115000000Y-59350000D03*
X115000000Y-56650000D03*
X121250000Y-66400000D03*
X121250000Y-69100000D03*
X123750000Y-66850000D03*
X123750000Y-64150000D03*
D20*
X108454594Y-72954594D03*
D10*
G36*
X107464645Y-72883883D02*
X108383883Y-71964645D01*
X109444543Y-73025305D01*
X108525305Y-73944543D01*
X107464645Y-72883883D01*
X107464645Y-72883883D01*
G37*
D20*
X106545406Y-71045406D03*
D10*
G36*
X105555457Y-70974695D02*
X106474695Y-70055457D01*
X107535355Y-71116117D01*
X106616117Y-72035355D01*
X105555457Y-70974695D01*
X105555457Y-70974695D01*
G37*
D19*
X108801776Y-65550126D03*
X108801776Y-68250126D03*
D21*
X114600000Y-64000000D03*
X111900000Y-64000000D03*
D22*
X111251777Y-68000126D03*
X115851777Y-68000126D03*
X113551777Y-68000126D03*
D23*
X113551777Y-74300126D03*
D24*
X108500000Y-70000000D03*
X121250000Y-53500000D03*
X116750000Y-54250000D03*
X113500000Y-57500000D03*
X117250000Y-57250000D03*
X109250000Y-55500000D03*
X124750000Y-61250000D03*
X121000000Y-57250000D03*
X125000000Y-68500000D03*
X120750000Y-61750000D03*
X109750000Y-53750000D03*
X107500000Y-58500000D03*
X107000000Y-62750000D03*
X103000000Y-58500000D03*
X102000000Y-60750000D03*
X103000000Y-66250000D03*
X121000000Y-72750000D03*
D25*
X108454594Y-72954594D02*
X101545406Y-72954594D01*
X101545406Y-72954594D02*
X101500000Y-73000000D01*
X101500000Y-73000000D02*
X101450000Y-73100000D01*
X108454594Y-72954594D02*
X108454594Y-73204594D01*
X108454594Y-72954594D02*
X108454594Y-73704594D01*
X101450000Y-57900000D02*
X101450000Y-59050000D01*
X103750000Y-65000000D02*
X104250000Y-65000000D01*
X101000000Y-62250000D02*
X103750000Y-65000000D01*
X101000000Y-59500000D02*
X101000000Y-62250000D01*
X101450000Y-59050000D02*
X101000000Y-59500000D01*
X104250000Y-65000000D02*
X104500000Y-65000000D01*
X104250000Y-65000000D02*
X104500000Y-65000000D01*
X104500000Y-65250000D02*
X104500000Y-65000000D01*
X108750000Y-69750000D02*
X108750000Y-68500000D01*
X108500000Y-70000000D02*
X108750000Y-69750000D01*
X108750000Y-68500000D02*
X108801776Y-68250126D01*
X122250000Y-55165000D02*
X122250000Y-54500000D01*
X122250000Y-54500000D02*
X121250000Y-53500000D01*
X122250000Y-55000000D02*
X122250000Y-55165000D01*
X115750000Y-54750000D02*
X116250000Y-54750000D01*
X116250000Y-54750000D02*
X116750000Y-54250000D01*
X114100000Y-56900000D02*
X113500000Y-57500000D01*
X115000000Y-56900000D02*
X114100000Y-56900000D01*
X118250000Y-59335000D02*
X118250000Y-58250000D01*
X118250000Y-58250000D02*
X117250000Y-57250000D01*
X118250000Y-59335000D02*
X118250000Y-59250000D01*
X111250000Y-56500000D02*
X111250000Y-58750000D01*
X113750000Y-61250000D02*
X111250000Y-58750000D01*
X115000000Y-61250000D02*
X113750000Y-61250000D01*
X117000000Y-63250000D02*
X115000000Y-61250000D01*
X117000000Y-64750000D02*
X117000000Y-63250000D01*
X117000000Y-64750000D02*
X117250000Y-65000000D01*
X111250000Y-56500000D02*
X111250000Y-56250000D01*
X111250000Y-56250000D02*
X111250000Y-55000000D01*
X111250000Y-55000000D02*
X111250000Y-54750000D01*
X109250000Y-55500000D02*
X110000000Y-55500000D01*
X110750000Y-54750000D02*
X111250000Y-54750000D01*
X110500000Y-55000000D02*
X110750000Y-54750000D01*
X110000000Y-55500000D02*
X110500000Y-55000000D01*
X117250000Y-65000000D02*
X117250000Y-65500000D01*
X117250000Y-65500000D02*
X117469670Y-65719670D01*
X117469670Y-65719670D02*
X117469670Y-65280330D01*
X117469670Y-65280330D02*
X117500000Y-65250000D01*
X117500000Y-65250000D02*
X117500000Y-62750000D01*
X117469670Y-65719670D02*
X117530330Y-65719670D01*
X117530330Y-65719670D02*
X118250000Y-65000000D01*
X118250000Y-65000000D02*
X118250000Y-64250000D01*
X117469670Y-65719670D02*
X119280330Y-65719670D01*
X119280330Y-65719670D02*
X120000000Y-65000000D01*
X117469670Y-64780330D02*
X117469670Y-65719670D01*
X117469670Y-65719670D02*
X117469670Y-65219670D01*
X117469670Y-65219670D02*
X117250000Y-65000000D01*
X111250000Y-55000000D02*
X111250000Y-54750000D01*
X115250000Y-60500000D02*
X115250000Y-59500000D01*
X117500000Y-62750000D02*
X115250000Y-60500000D01*
X117500000Y-64750000D02*
X117500000Y-62750000D01*
X117469670Y-64780330D02*
X117500000Y-64750000D01*
X115250000Y-59500000D02*
X115000000Y-59350000D01*
X118250000Y-62500000D02*
X118250000Y-64250000D01*
X117375000Y-65625000D02*
X117469670Y-65719670D01*
X117250000Y-65500000D02*
X117469670Y-65719670D01*
X108875000Y-62125000D02*
X114875000Y-62125000D01*
X114875000Y-62125000D02*
X115250000Y-62500000D01*
X117250000Y-65750000D02*
X116250000Y-64750000D01*
X116250000Y-63500000D02*
X116250000Y-64750000D01*
X115500000Y-62750000D02*
X116250000Y-63500000D01*
X115500000Y-62750000D02*
X115250000Y-62500000D01*
X108875000Y-62125000D02*
X107250000Y-60500000D01*
X107250000Y-60500000D02*
X107250000Y-60585000D01*
X117469670Y-65719670D02*
X117469670Y-65469670D01*
X115250000Y-59750000D02*
X115000000Y-59600000D01*
X117250000Y-61500000D02*
X118250000Y-62500000D01*
X116250000Y-60500000D02*
X117250000Y-61500000D01*
X121250000Y-65000000D02*
X122000000Y-64250000D01*
X122000000Y-64250000D02*
X123500000Y-64250000D01*
X120000000Y-65000000D02*
X121250000Y-65000000D01*
X117250000Y-65750000D02*
X117469670Y-65719670D01*
X114850000Y-64000000D02*
X114850000Y-65100000D01*
X115469670Y-65719670D02*
X117469670Y-65719670D01*
X114850000Y-65100000D02*
X115469670Y-65719670D01*
X123500000Y-64250000D02*
X123750000Y-64150000D01*
X117250000Y-65750000D02*
X117250000Y-65500000D01*
X117250000Y-65500000D02*
X117250000Y-65750000D01*
X117585000Y-55165000D02*
X116250000Y-56500000D01*
X116250000Y-56500000D02*
X116250000Y-60500000D01*
X118250000Y-55165000D02*
X117585000Y-55165000D01*
X123750000Y-64500000D02*
X123750000Y-64150000D01*
X115000000Y-64250000D02*
X114850000Y-64000000D01*
X113551777Y-68000126D02*
X113551777Y-65448223D01*
X113551777Y-65448223D02*
X115000000Y-64000000D01*
X115000000Y-64000000D02*
X114850000Y-64000000D01*
X114850000Y-64000000D02*
X114850000Y-63900000D01*
X114850000Y-63900000D02*
X115000000Y-63750000D01*
X115000000Y-63750000D02*
X114850000Y-64000000D01*
X114500000Y-64250000D02*
X114850000Y-64000000D01*
X115851777Y-68000126D02*
X115851777Y-68351777D01*
X115851777Y-68351777D02*
X116750000Y-69250000D01*
X119500000Y-74000000D02*
X119500000Y-75000000D01*
X116750000Y-71250000D02*
X119500000Y-74000000D01*
X116750000Y-69250000D02*
X116750000Y-71250000D01*
X119500000Y-75000000D02*
X119500000Y-75250000D01*
X115851777Y-68000126D02*
X116750126Y-68000126D01*
X116750126Y-68000126D02*
X118250000Y-69500000D01*
X118250000Y-69500000D02*
X118219670Y-69469670D01*
X114000000Y-71000000D02*
X106500000Y-71000000D01*
X115000000Y-70000000D02*
X114000000Y-71000000D01*
X106500000Y-71000000D02*
X106500000Y-70850000D01*
X115851777Y-68000126D02*
X115851777Y-68398223D01*
X115851777Y-68398223D02*
X115000000Y-69250000D01*
X115000000Y-69250000D02*
X115000000Y-70000000D01*
X115851777Y-68000126D02*
X115851777Y-68148223D01*
X116000000Y-68500000D02*
X115851777Y-68000126D01*
X115851903Y-68000000D02*
X116000000Y-68000000D01*
X116000000Y-68000000D02*
X115851777Y-68000126D01*
X116250000Y-68750000D02*
X116000000Y-68500000D01*
X116000000Y-68500000D02*
X115851777Y-68000126D01*
X112150000Y-64000000D02*
X112150000Y-63900000D01*
X112150000Y-63900000D02*
X111750000Y-63500000D01*
X111750000Y-63500000D02*
X109750000Y-63500000D01*
X110875000Y-66125000D02*
X111125000Y-66125000D01*
X112000000Y-65250000D02*
X112000000Y-64000000D01*
X111125000Y-66125000D02*
X112000000Y-65250000D01*
X112000000Y-64000000D02*
X112150000Y-64000000D01*
X111251777Y-68000126D02*
X111251777Y-66501777D01*
X110500000Y-65750000D02*
X108750000Y-65750000D01*
X111251777Y-66501777D02*
X110875000Y-66125000D01*
X110875000Y-66125000D02*
X110500000Y-65750000D01*
X108750000Y-65750000D02*
X108801776Y-65550126D01*
X108750000Y-65750000D02*
X108801776Y-65550126D01*
X124250000Y-59335000D02*
X124250000Y-60750000D01*
X124250000Y-60750000D02*
X124750000Y-61250000D01*
X124250000Y-59335000D02*
X124250000Y-58250000D01*
X123250000Y-57250000D02*
X124250000Y-56250000D01*
X121000000Y-57250000D02*
X123250000Y-57250000D01*
X124250000Y-56250000D02*
X124250000Y-55165000D01*
X124500000Y-55000000D02*
X124250000Y-55165000D01*
X124250000Y-55165000D02*
X124250000Y-55500000D01*
X124250000Y-62250000D02*
X125000000Y-63000000D01*
X122250000Y-61500000D02*
X123000000Y-62250000D01*
X123000000Y-62250000D02*
X124250000Y-62250000D01*
X122250000Y-59335000D02*
X122250000Y-61500000D01*
X125000000Y-63000000D02*
X125000000Y-68500000D01*
X125125000Y-68375000D02*
X125000000Y-68500000D01*
X123750000Y-66850000D02*
X123750000Y-67250000D01*
X123750000Y-67250000D02*
X125000000Y-68500000D01*
X122250000Y-59335000D02*
X122250000Y-60250000D01*
X122250000Y-59750000D02*
X122250000Y-59335000D01*
X124750000Y-68250000D02*
X125000000Y-68500000D01*
X120250000Y-61250000D02*
X120250000Y-59750000D01*
X120750000Y-61750000D02*
X120250000Y-61250000D01*
X120250000Y-59750000D02*
X120250000Y-59335000D01*
X110250000Y-53250000D02*
X119750000Y-53250000D01*
X109750000Y-53750000D02*
X110250000Y-53250000D01*
X120250000Y-55165000D02*
X120250000Y-53750000D01*
X120250000Y-53750000D02*
X119750000Y-53250000D01*
X107250000Y-58250000D02*
X107250000Y-56750000D01*
X107500000Y-58500000D02*
X107250000Y-58250000D01*
X107250000Y-56750000D02*
X107250000Y-56415000D01*
X105250000Y-60585000D02*
X105250000Y-62250000D01*
X105750000Y-62750000D02*
X107000000Y-62750000D01*
X105250000Y-62250000D02*
X105750000Y-62750000D01*
X105250000Y-56415000D02*
X105250000Y-57500000D01*
X105250000Y-57500000D02*
X104250000Y-58500000D01*
X104250000Y-58500000D02*
X103000000Y-58500000D01*
X103250000Y-60585000D02*
X102165000Y-60585000D01*
X102165000Y-60585000D02*
X102000000Y-60750000D01*
X106500000Y-65950000D02*
X103300000Y-65950000D01*
X103300000Y-65950000D02*
X103000000Y-66250000D01*
X106750000Y-66000000D02*
X106500000Y-66000000D01*
X106500000Y-66000000D02*
X106500000Y-65950000D01*
X121500000Y-72250000D02*
X121500000Y-69000000D01*
X121000000Y-72750000D02*
X121500000Y-72250000D01*
X121500000Y-69000000D02*
X121750000Y-69100000D01*
D26*
G36*
X126018000Y-75151710D02*
X125972620Y-75042153D01*
X125645164Y-74784441D01*
X123929605Y-76500000D01*
X125645164Y-78215559D01*
X125972620Y-77957847D01*
X126018000Y-77845592D01*
X126018000Y-78768000D01*
X125098290Y-78768000D01*
X125207847Y-78722620D01*
X125465559Y-78395164D01*
X123750000Y-76679605D01*
X122034441Y-78395164D01*
X122292153Y-78722620D01*
X122404408Y-78768000D01*
X104348290Y-78768000D01*
X104457847Y-78722620D01*
X104715559Y-78395164D01*
X103000000Y-76679605D01*
X101284441Y-78395164D01*
X101542153Y-78722620D01*
X101654408Y-78768000D01*
X100732000Y-78768000D01*
X100732000Y-77848290D01*
X100777380Y-77957847D01*
X101104836Y-78215559D01*
X102820395Y-76500000D01*
X103179605Y-76500000D01*
X104895164Y-78215559D01*
X105222620Y-77957847D01*
X105416298Y-77478750D01*
X118418000Y-77478750D01*
X118418000Y-78005958D01*
X118479962Y-78155547D01*
X118594453Y-78270038D01*
X118744043Y-78332000D01*
X119271250Y-78332000D01*
X119373000Y-78230250D01*
X119373000Y-77377000D01*
X119627000Y-77377000D01*
X119627000Y-78230250D01*
X119728750Y-78332000D01*
X120255957Y-78332000D01*
X120405547Y-78270038D01*
X120520038Y-78155547D01*
X120582000Y-78005958D01*
X120582000Y-77478750D01*
X120480250Y-77377000D01*
X119627000Y-77377000D01*
X119373000Y-77377000D01*
X118519750Y-77377000D01*
X118418000Y-77478750D01*
X105416298Y-77478750D01*
X105611327Y-76996315D01*
X105602483Y-75959224D01*
X105222620Y-75042153D01*
X104895164Y-74784441D01*
X103179605Y-76500000D01*
X102820395Y-76500000D01*
X101104836Y-74784441D01*
X100777380Y-75042153D01*
X100732000Y-75154408D01*
X100732000Y-74035406D01*
X100786950Y-74090452D01*
X101216451Y-74268797D01*
X101562147Y-74269098D01*
X101542153Y-74277380D01*
X101284441Y-74604836D01*
X103000000Y-76320395D01*
X104715559Y-74604836D01*
X104457847Y-74277380D01*
X103496315Y-73888673D01*
X102459224Y-73897517D01*
X102196904Y-74006174D01*
X102440452Y-73763050D01*
X102555247Y-73486594D01*
X107480496Y-73486594D01*
X108231875Y-74237973D01*
X108366502Y-74327928D01*
X108525305Y-74359516D01*
X108684108Y-74327928D01*
X108818735Y-74237973D01*
X109737973Y-73318735D01*
X109750407Y-73300126D01*
X111236804Y-73300126D01*
X111236804Y-75300126D01*
X111268392Y-75458929D01*
X111358347Y-75593556D01*
X111492974Y-75683511D01*
X111651777Y-75715099D01*
X115451777Y-75715099D01*
X115610580Y-75683511D01*
X115745207Y-75593556D01*
X115835162Y-75458929D01*
X115866750Y-75300126D01*
X115866750Y-73300126D01*
X115835162Y-73141323D01*
X115745207Y-73006696D01*
X115610580Y-72916741D01*
X115451777Y-72885153D01*
X111651777Y-72885153D01*
X111492974Y-72916741D01*
X111358347Y-73006696D01*
X111268392Y-73141323D01*
X111236804Y-73300126D01*
X109750407Y-73300126D01*
X109827928Y-73184108D01*
X109859516Y-73025305D01*
X109827928Y-72866502D01*
X109737973Y-72731875D01*
X108677313Y-71671215D01*
X108542686Y-71581260D01*
X108383883Y-71549672D01*
X108225080Y-71581260D01*
X108090453Y-71671215D01*
X107339074Y-72422594D01*
X106755545Y-72422594D01*
X106774920Y-72418740D01*
X106909547Y-72328785D01*
X107706332Y-71532000D01*
X114000000Y-71532000D01*
X114203588Y-71491504D01*
X114376181Y-71376181D01*
X115376178Y-70376183D01*
X115376181Y-70376181D01*
X115491504Y-70203588D01*
X115491505Y-70203587D01*
X115532001Y-70000000D01*
X115532000Y-69999995D01*
X115532000Y-69470362D01*
X115587263Y-69415099D01*
X116162737Y-69415099D01*
X116218000Y-69470362D01*
X116218000Y-71250000D01*
X116258496Y-71453588D01*
X116343804Y-71581260D01*
X116373819Y-71626181D01*
X118968000Y-74220362D01*
X118968000Y-74315001D01*
X118713712Y-74484910D01*
X118479164Y-74835937D01*
X118396802Y-75250000D01*
X118479164Y-75664063D01*
X118713712Y-76015090D01*
X118942559Y-76168000D01*
X118744043Y-76168000D01*
X118594453Y-76229962D01*
X118479962Y-76344453D01*
X118418000Y-76494042D01*
X118418000Y-77021250D01*
X118519750Y-77123000D01*
X119373000Y-77123000D01*
X119373000Y-77103000D01*
X119627000Y-77103000D01*
X119627000Y-77123000D01*
X120480250Y-77123000D01*
X120582000Y-77021250D01*
X120582000Y-76494042D01*
X120520038Y-76344453D01*
X120405547Y-76229962D01*
X120255957Y-76168000D01*
X120057441Y-76168000D01*
X120286288Y-76015090D01*
X120293908Y-76003685D01*
X121138673Y-76003685D01*
X121147517Y-77040776D01*
X121527380Y-77957847D01*
X121854836Y-78215559D01*
X123570395Y-76500000D01*
X121854836Y-74784441D01*
X121527380Y-75042153D01*
X121138673Y-76003685D01*
X120293908Y-76003685D01*
X120520836Y-75664063D01*
X120603198Y-75250000D01*
X120520836Y-74835937D01*
X120366420Y-74604836D01*
X122034441Y-74604836D01*
X123750000Y-76320395D01*
X125465559Y-74604836D01*
X125207847Y-74277380D01*
X124246315Y-73888673D01*
X123209224Y-73897517D01*
X122292153Y-74277380D01*
X122034441Y-74604836D01*
X120366420Y-74604836D01*
X120286288Y-74484910D01*
X120032000Y-74315001D01*
X120032000Y-74000000D01*
X119991504Y-73796412D01*
X119876181Y-73623819D01*
X117353504Y-71101142D01*
X118889123Y-71101142D01*
X118889123Y-71245038D01*
X119067460Y-71423375D01*
X119217050Y-71485338D01*
X119378965Y-71485338D01*
X119528554Y-71423376D01*
X119689214Y-71262716D01*
X119689214Y-71118820D01*
X119280330Y-70709935D01*
X118889123Y-71101142D01*
X117353504Y-71101142D01*
X117282000Y-71029638D01*
X117282000Y-69579239D01*
X117288277Y-69610795D01*
X117378232Y-69745422D01*
X117943918Y-70311108D01*
X118078545Y-70401063D01*
X118237348Y-70432651D01*
X118332790Y-70413666D01*
X118325322Y-70431695D01*
X118325322Y-70593610D01*
X118387285Y-70743200D01*
X118565622Y-70921537D01*
X118709518Y-70921537D01*
X119100725Y-70530330D01*
X119459935Y-70530330D01*
X119868820Y-70939214D01*
X120012716Y-70939214D01*
X120173376Y-70778554D01*
X120235338Y-70628965D01*
X120235338Y-70467050D01*
X120173375Y-70317460D01*
X119995038Y-70139123D01*
X119851142Y-70139123D01*
X119459935Y-70530330D01*
X119100725Y-70530330D01*
X119086582Y-70516188D01*
X119266188Y-70336582D01*
X119280330Y-70350725D01*
X119671537Y-69959518D01*
X119671537Y-69815622D01*
X119493200Y-69637285D01*
X119343610Y-69575322D01*
X119181695Y-69575322D01*
X119163666Y-69582790D01*
X119182651Y-69487348D01*
X119151063Y-69328545D01*
X119061108Y-69193918D01*
X118495422Y-68628232D01*
X118360795Y-68538277D01*
X118201992Y-68506689D01*
X118043189Y-68538277D01*
X118041660Y-68539298D01*
X117852362Y-68350000D01*
X120185027Y-68350000D01*
X120185027Y-69850000D01*
X120216615Y-70008803D01*
X120306570Y-70143430D01*
X120441197Y-70233385D01*
X120600000Y-70264973D01*
X120968000Y-70264973D01*
X120968000Y-71942971D01*
X120840182Y-71942860D01*
X120543468Y-72065460D01*
X120316258Y-72292274D01*
X120193140Y-72588774D01*
X120192860Y-72909818D01*
X120315460Y-73206532D01*
X120542274Y-73433742D01*
X120838774Y-73556860D01*
X121159818Y-73557140D01*
X121456532Y-73434540D01*
X121683742Y-73207726D01*
X121806860Y-72911226D01*
X121807048Y-72695314D01*
X121876181Y-72626181D01*
X121900235Y-72590182D01*
X121991504Y-72453588D01*
X122032000Y-72250000D01*
X122032000Y-70238716D01*
X122058803Y-70233385D01*
X122193430Y-70143430D01*
X122283385Y-70008803D01*
X122314973Y-69850000D01*
X122314973Y-68350000D01*
X122283385Y-68191197D01*
X122193430Y-68056570D01*
X122058803Y-67966615D01*
X121900000Y-67935027D01*
X120600000Y-67935027D01*
X120441197Y-67966615D01*
X120306570Y-68056570D01*
X120216615Y-68191197D01*
X120185027Y-68350000D01*
X117852362Y-68350000D01*
X117126307Y-67623945D01*
X117070684Y-67586779D01*
X117016750Y-67550741D01*
X117016750Y-67351142D01*
X118139123Y-67351142D01*
X118139123Y-67495038D01*
X118317460Y-67673375D01*
X118467050Y-67735338D01*
X118628965Y-67735338D01*
X118778554Y-67673376D01*
X118939214Y-67512716D01*
X118939214Y-67368820D01*
X118530330Y-66959935D01*
X118139123Y-67351142D01*
X117016750Y-67351142D01*
X117016750Y-67000126D01*
X116985162Y-66841323D01*
X116895207Y-66706696D01*
X116760580Y-66616741D01*
X116601777Y-66585153D01*
X115101777Y-66585153D01*
X114942974Y-66616741D01*
X114808347Y-66706696D01*
X114718392Y-66841323D01*
X114701777Y-66924852D01*
X114685162Y-66841323D01*
X114595207Y-66706696D01*
X114460580Y-66616741D01*
X114301777Y-66585153D01*
X114083777Y-66585153D01*
X114083777Y-65668585D01*
X114394656Y-65357706D01*
X114473819Y-65476181D01*
X115093489Y-66095851D01*
X115266082Y-66211174D01*
X115469670Y-66251670D01*
X116884480Y-66251670D01*
X117193918Y-66561108D01*
X117328545Y-66651063D01*
X117487348Y-66682651D01*
X117582790Y-66663666D01*
X117575322Y-66681695D01*
X117575322Y-66843610D01*
X117637285Y-66993200D01*
X117815622Y-67171537D01*
X117959518Y-67171537D01*
X118350725Y-66780330D01*
X118336582Y-66766188D01*
X118516188Y-66586582D01*
X118530330Y-66600725D01*
X118544473Y-66586583D01*
X118724078Y-66766188D01*
X118709935Y-66780330D01*
X119118820Y-67189214D01*
X119262716Y-67189214D01*
X119423376Y-67028554D01*
X119485338Y-66878965D01*
X119485338Y-66717050D01*
X119448763Y-66628750D01*
X120193000Y-66628750D01*
X120193000Y-67230957D01*
X120254962Y-67380547D01*
X120369453Y-67495038D01*
X120519042Y-67557000D01*
X121021250Y-67557000D01*
X121123000Y-67455250D01*
X121123000Y-66527000D01*
X121377000Y-66527000D01*
X121377000Y-67455250D01*
X121478750Y-67557000D01*
X121980958Y-67557000D01*
X122130547Y-67495038D01*
X122245038Y-67380547D01*
X122307000Y-67230957D01*
X122307000Y-66628750D01*
X122205250Y-66527000D01*
X121377000Y-66527000D01*
X121123000Y-66527000D01*
X120294750Y-66527000D01*
X120193000Y-66628750D01*
X119448763Y-66628750D01*
X119423375Y-66567460D01*
X119245038Y-66389123D01*
X119101144Y-66389123D01*
X119173091Y-66317176D01*
X119107585Y-66251670D01*
X119280330Y-66251670D01*
X119483918Y-66211174D01*
X119656511Y-66095851D01*
X120199845Y-65552517D01*
X120193000Y-65569043D01*
X120193000Y-66171250D01*
X120294750Y-66273000D01*
X121123000Y-66273000D01*
X121123000Y-66253000D01*
X121377000Y-66253000D01*
X121377000Y-66273000D01*
X122205250Y-66273000D01*
X122307000Y-66171250D01*
X122307000Y-65569043D01*
X122245038Y-65419453D01*
X122130547Y-65304962D01*
X121980958Y-65243000D01*
X121759362Y-65243000D01*
X122220362Y-64782000D01*
X122685027Y-64782000D01*
X122685027Y-64900000D01*
X122716615Y-65058803D01*
X122806570Y-65193430D01*
X122941197Y-65283385D01*
X123100000Y-65314973D01*
X124400000Y-65314973D01*
X124468000Y-65301447D01*
X124468000Y-65698553D01*
X124400000Y-65685027D01*
X123100000Y-65685027D01*
X122941197Y-65716615D01*
X122806570Y-65806570D01*
X122716615Y-65941197D01*
X122685027Y-66100000D01*
X122685027Y-67600000D01*
X122716615Y-67758803D01*
X122806570Y-67893430D01*
X122941197Y-67983385D01*
X123100000Y-68014973D01*
X123762611Y-68014973D01*
X124193047Y-68445409D01*
X124192860Y-68659818D01*
X124315460Y-68956532D01*
X124542274Y-69183742D01*
X124838774Y-69306860D01*
X125159818Y-69307140D01*
X125456532Y-69184540D01*
X125683742Y-68957726D01*
X125806860Y-68661226D01*
X125807140Y-68340182D01*
X125684540Y-68043468D01*
X125532000Y-67890662D01*
X125532000Y-63000000D01*
X125491504Y-62796412D01*
X125376181Y-62623819D01*
X124809414Y-62057052D01*
X124909818Y-62057140D01*
X125206532Y-61934540D01*
X125433742Y-61707726D01*
X125556860Y-61411226D01*
X125557140Y-61090182D01*
X125434540Y-60793468D01*
X125207726Y-60566258D01*
X125164973Y-60548505D01*
X125164973Y-58045000D01*
X125133385Y-57886197D01*
X125043430Y-57751570D01*
X124908803Y-57661615D01*
X124750000Y-57630027D01*
X123750000Y-57630027D01*
X123591197Y-57661615D01*
X123456570Y-57751570D01*
X123366615Y-57886197D01*
X123335027Y-58045000D01*
X123335027Y-60625000D01*
X123366615Y-60783803D01*
X123456570Y-60918430D01*
X123591197Y-61008385D01*
X123750000Y-61039973D01*
X123816217Y-61039973D01*
X123849765Y-61090182D01*
X123873819Y-61126181D01*
X123943047Y-61195409D01*
X123942860Y-61409818D01*
X124065460Y-61706532D01*
X124076908Y-61718000D01*
X123220362Y-61718000D01*
X122782000Y-61279638D01*
X122782000Y-61033608D01*
X122908803Y-61008385D01*
X123043430Y-60918430D01*
X123133385Y-60783803D01*
X123164973Y-60625000D01*
X123164973Y-58045000D01*
X123133385Y-57886197D01*
X123063763Y-57782000D01*
X123250000Y-57782000D01*
X123453588Y-57741504D01*
X123626181Y-57626181D01*
X124382388Y-56869973D01*
X124750000Y-56869973D01*
X124908803Y-56838385D01*
X125043430Y-56748430D01*
X125133385Y-56613803D01*
X125164973Y-56455000D01*
X125164973Y-53875000D01*
X125133385Y-53716197D01*
X125043430Y-53581570D01*
X124908803Y-53491615D01*
X124750000Y-53460027D01*
X123750000Y-53460027D01*
X123591197Y-53491615D01*
X123456570Y-53581570D01*
X123366615Y-53716197D01*
X123335027Y-53875000D01*
X123335027Y-56412611D01*
X123118335Y-56629304D01*
X123157000Y-56535957D01*
X123157000Y-55393750D01*
X123055250Y-55292000D01*
X122377000Y-55292000D01*
X122377000Y-55312000D01*
X122123000Y-55312000D01*
X122123000Y-55292000D01*
X121444750Y-55292000D01*
X121343000Y-55393750D01*
X121343000Y-56518619D01*
X121164973Y-56444696D01*
X121164973Y-53875000D01*
X121148870Y-53794043D01*
X121343000Y-53794043D01*
X121343000Y-54936250D01*
X121444750Y-55038000D01*
X122123000Y-55038000D01*
X122123000Y-53569750D01*
X122377000Y-53569750D01*
X122377000Y-55038000D01*
X123055250Y-55038000D01*
X123157000Y-54936250D01*
X123157000Y-53794043D01*
X123095038Y-53644453D01*
X122980547Y-53529962D01*
X122830958Y-53468000D01*
X122478750Y-53468000D01*
X122377000Y-53569750D01*
X122123000Y-53569750D01*
X122021250Y-53468000D01*
X121669042Y-53468000D01*
X121519453Y-53529962D01*
X121404962Y-53644453D01*
X121343000Y-53794043D01*
X121148870Y-53794043D01*
X121133385Y-53716197D01*
X121043430Y-53581570D01*
X120908803Y-53491615D01*
X120750000Y-53460027D01*
X120683783Y-53460027D01*
X120626181Y-53373819D01*
X120484362Y-53232000D01*
X126018000Y-53232000D01*
X126018000Y-75151710D01*
X126018000Y-75151710D01*
G37*
X126018000Y-75151710D02*
X125972620Y-75042153D01*
X125645164Y-74784441D01*
X123929605Y-76500000D01*
X125645164Y-78215559D01*
X125972620Y-77957847D01*
X126018000Y-77845592D01*
X126018000Y-78768000D01*
X125098290Y-78768000D01*
X125207847Y-78722620D01*
X125465559Y-78395164D01*
X123750000Y-76679605D01*
X122034441Y-78395164D01*
X122292153Y-78722620D01*
X122404408Y-78768000D01*
X104348290Y-78768000D01*
X104457847Y-78722620D01*
X104715559Y-78395164D01*
X103000000Y-76679605D01*
X101284441Y-78395164D01*
X101542153Y-78722620D01*
X101654408Y-78768000D01*
X100732000Y-78768000D01*
X100732000Y-77848290D01*
X100777380Y-77957847D01*
X101104836Y-78215559D01*
X102820395Y-76500000D01*
X103179605Y-76500000D01*
X104895164Y-78215559D01*
X105222620Y-77957847D01*
X105416298Y-77478750D01*
X118418000Y-77478750D01*
X118418000Y-78005958D01*
X118479962Y-78155547D01*
X118594453Y-78270038D01*
X118744043Y-78332000D01*
X119271250Y-78332000D01*
X119373000Y-78230250D01*
X119373000Y-77377000D01*
X119627000Y-77377000D01*
X119627000Y-78230250D01*
X119728750Y-78332000D01*
X120255957Y-78332000D01*
X120405547Y-78270038D01*
X120520038Y-78155547D01*
X120582000Y-78005958D01*
X120582000Y-77478750D01*
X120480250Y-77377000D01*
X119627000Y-77377000D01*
X119373000Y-77377000D01*
X118519750Y-77377000D01*
X118418000Y-77478750D01*
X105416298Y-77478750D01*
X105611327Y-76996315D01*
X105602483Y-75959224D01*
X105222620Y-75042153D01*
X104895164Y-74784441D01*
X103179605Y-76500000D01*
X102820395Y-76500000D01*
X101104836Y-74784441D01*
X100777380Y-75042153D01*
X100732000Y-75154408D01*
X100732000Y-74035406D01*
X100786950Y-74090452D01*
X101216451Y-74268797D01*
X101562147Y-74269098D01*
X101542153Y-74277380D01*
X101284441Y-74604836D01*
X103000000Y-76320395D01*
X104715559Y-74604836D01*
X104457847Y-74277380D01*
X103496315Y-73888673D01*
X102459224Y-73897517D01*
X102196904Y-74006174D01*
X102440452Y-73763050D01*
X102555247Y-73486594D01*
X107480496Y-73486594D01*
X108231875Y-74237973D01*
X108366502Y-74327928D01*
X108525305Y-74359516D01*
X108684108Y-74327928D01*
X108818735Y-74237973D01*
X109737973Y-73318735D01*
X109750407Y-73300126D01*
X111236804Y-73300126D01*
X111236804Y-75300126D01*
X111268392Y-75458929D01*
X111358347Y-75593556D01*
X111492974Y-75683511D01*
X111651777Y-75715099D01*
X115451777Y-75715099D01*
X115610580Y-75683511D01*
X115745207Y-75593556D01*
X115835162Y-75458929D01*
X115866750Y-75300126D01*
X115866750Y-73300126D01*
X115835162Y-73141323D01*
X115745207Y-73006696D01*
X115610580Y-72916741D01*
X115451777Y-72885153D01*
X111651777Y-72885153D01*
X111492974Y-72916741D01*
X111358347Y-73006696D01*
X111268392Y-73141323D01*
X111236804Y-73300126D01*
X109750407Y-73300126D01*
X109827928Y-73184108D01*
X109859516Y-73025305D01*
X109827928Y-72866502D01*
X109737973Y-72731875D01*
X108677313Y-71671215D01*
X108542686Y-71581260D01*
X108383883Y-71549672D01*
X108225080Y-71581260D01*
X108090453Y-71671215D01*
X107339074Y-72422594D01*
X106755545Y-72422594D01*
X106774920Y-72418740D01*
X106909547Y-72328785D01*
X107706332Y-71532000D01*
X114000000Y-71532000D01*
X114203588Y-71491504D01*
X114376181Y-71376181D01*
X115376178Y-70376183D01*
X115376181Y-70376181D01*
X115491504Y-70203588D01*
X115491505Y-70203587D01*
X115532001Y-70000000D01*
X115532000Y-69999995D01*
X115532000Y-69470362D01*
X115587263Y-69415099D01*
X116162737Y-69415099D01*
X116218000Y-69470362D01*
X116218000Y-71250000D01*
X116258496Y-71453588D01*
X116343804Y-71581260D01*
X116373819Y-71626181D01*
X118968000Y-74220362D01*
X118968000Y-74315001D01*
X118713712Y-74484910D01*
X118479164Y-74835937D01*
X118396802Y-75250000D01*
X118479164Y-75664063D01*
X118713712Y-76015090D01*
X118942559Y-76168000D01*
X118744043Y-76168000D01*
X118594453Y-76229962D01*
X118479962Y-76344453D01*
X118418000Y-76494042D01*
X118418000Y-77021250D01*
X118519750Y-77123000D01*
X119373000Y-77123000D01*
X119373000Y-77103000D01*
X119627000Y-77103000D01*
X119627000Y-77123000D01*
X120480250Y-77123000D01*
X120582000Y-77021250D01*
X120582000Y-76494042D01*
X120520038Y-76344453D01*
X120405547Y-76229962D01*
X120255957Y-76168000D01*
X120057441Y-76168000D01*
X120286288Y-76015090D01*
X120293908Y-76003685D01*
X121138673Y-76003685D01*
X121147517Y-77040776D01*
X121527380Y-77957847D01*
X121854836Y-78215559D01*
X123570395Y-76500000D01*
X121854836Y-74784441D01*
X121527380Y-75042153D01*
X121138673Y-76003685D01*
X120293908Y-76003685D01*
X120520836Y-75664063D01*
X120603198Y-75250000D01*
X120520836Y-74835937D01*
X120366420Y-74604836D01*
X122034441Y-74604836D01*
X123750000Y-76320395D01*
X125465559Y-74604836D01*
X125207847Y-74277380D01*
X124246315Y-73888673D01*
X123209224Y-73897517D01*
X122292153Y-74277380D01*
X122034441Y-74604836D01*
X120366420Y-74604836D01*
X120286288Y-74484910D01*
X120032000Y-74315001D01*
X120032000Y-74000000D01*
X119991504Y-73796412D01*
X119876181Y-73623819D01*
X117353504Y-71101142D01*
X118889123Y-71101142D01*
X118889123Y-71245038D01*
X119067460Y-71423375D01*
X119217050Y-71485338D01*
X119378965Y-71485338D01*
X119528554Y-71423376D01*
X119689214Y-71262716D01*
X119689214Y-71118820D01*
X119280330Y-70709935D01*
X118889123Y-71101142D01*
X117353504Y-71101142D01*
X117282000Y-71029638D01*
X117282000Y-69579239D01*
X117288277Y-69610795D01*
X117378232Y-69745422D01*
X117943918Y-70311108D01*
X118078545Y-70401063D01*
X118237348Y-70432651D01*
X118332790Y-70413666D01*
X118325322Y-70431695D01*
X118325322Y-70593610D01*
X118387285Y-70743200D01*
X118565622Y-70921537D01*
X118709518Y-70921537D01*
X119100725Y-70530330D01*
X119459935Y-70530330D01*
X119868820Y-70939214D01*
X120012716Y-70939214D01*
X120173376Y-70778554D01*
X120235338Y-70628965D01*
X120235338Y-70467050D01*
X120173375Y-70317460D01*
X119995038Y-70139123D01*
X119851142Y-70139123D01*
X119459935Y-70530330D01*
X119100725Y-70530330D01*
X119086582Y-70516188D01*
X119266188Y-70336582D01*
X119280330Y-70350725D01*
X119671537Y-69959518D01*
X119671537Y-69815622D01*
X119493200Y-69637285D01*
X119343610Y-69575322D01*
X119181695Y-69575322D01*
X119163666Y-69582790D01*
X119182651Y-69487348D01*
X119151063Y-69328545D01*
X119061108Y-69193918D01*
X118495422Y-68628232D01*
X118360795Y-68538277D01*
X118201992Y-68506689D01*
X118043189Y-68538277D01*
X118041660Y-68539298D01*
X117852362Y-68350000D01*
X120185027Y-68350000D01*
X120185027Y-69850000D01*
X120216615Y-70008803D01*
X120306570Y-70143430D01*
X120441197Y-70233385D01*
X120600000Y-70264973D01*
X120968000Y-70264973D01*
X120968000Y-71942971D01*
X120840182Y-71942860D01*
X120543468Y-72065460D01*
X120316258Y-72292274D01*
X120193140Y-72588774D01*
X120192860Y-72909818D01*
X120315460Y-73206532D01*
X120542274Y-73433742D01*
X120838774Y-73556860D01*
X121159818Y-73557140D01*
X121456532Y-73434540D01*
X121683742Y-73207726D01*
X121806860Y-72911226D01*
X121807048Y-72695314D01*
X121876181Y-72626181D01*
X121900235Y-72590182D01*
X121991504Y-72453588D01*
X122032000Y-72250000D01*
X122032000Y-70238716D01*
X122058803Y-70233385D01*
X122193430Y-70143430D01*
X122283385Y-70008803D01*
X122314973Y-69850000D01*
X122314973Y-68350000D01*
X122283385Y-68191197D01*
X122193430Y-68056570D01*
X122058803Y-67966615D01*
X121900000Y-67935027D01*
X120600000Y-67935027D01*
X120441197Y-67966615D01*
X120306570Y-68056570D01*
X120216615Y-68191197D01*
X120185027Y-68350000D01*
X117852362Y-68350000D01*
X117126307Y-67623945D01*
X117070684Y-67586779D01*
X117016750Y-67550741D01*
X117016750Y-67351142D01*
X118139123Y-67351142D01*
X118139123Y-67495038D01*
X118317460Y-67673375D01*
X118467050Y-67735338D01*
X118628965Y-67735338D01*
X118778554Y-67673376D01*
X118939214Y-67512716D01*
X118939214Y-67368820D01*
X118530330Y-66959935D01*
X118139123Y-67351142D01*
X117016750Y-67351142D01*
X117016750Y-67000126D01*
X116985162Y-66841323D01*
X116895207Y-66706696D01*
X116760580Y-66616741D01*
X116601777Y-66585153D01*
X115101777Y-66585153D01*
X114942974Y-66616741D01*
X114808347Y-66706696D01*
X114718392Y-66841323D01*
X114701777Y-66924852D01*
X114685162Y-66841323D01*
X114595207Y-66706696D01*
X114460580Y-66616741D01*
X114301777Y-66585153D01*
X114083777Y-66585153D01*
X114083777Y-65668585D01*
X114394656Y-65357706D01*
X114473819Y-65476181D01*
X115093489Y-66095851D01*
X115266082Y-66211174D01*
X115469670Y-66251670D01*
X116884480Y-66251670D01*
X117193918Y-66561108D01*
X117328545Y-66651063D01*
X117487348Y-66682651D01*
X117582790Y-66663666D01*
X117575322Y-66681695D01*
X117575322Y-66843610D01*
X117637285Y-66993200D01*
X117815622Y-67171537D01*
X117959518Y-67171537D01*
X118350725Y-66780330D01*
X118336582Y-66766188D01*
X118516188Y-66586582D01*
X118530330Y-66600725D01*
X118544473Y-66586583D01*
X118724078Y-66766188D01*
X118709935Y-66780330D01*
X119118820Y-67189214D01*
X119262716Y-67189214D01*
X119423376Y-67028554D01*
X119485338Y-66878965D01*
X119485338Y-66717050D01*
X119448763Y-66628750D01*
X120193000Y-66628750D01*
X120193000Y-67230957D01*
X120254962Y-67380547D01*
X120369453Y-67495038D01*
X120519042Y-67557000D01*
X121021250Y-67557000D01*
X121123000Y-67455250D01*
X121123000Y-66527000D01*
X121377000Y-66527000D01*
X121377000Y-67455250D01*
X121478750Y-67557000D01*
X121980958Y-67557000D01*
X122130547Y-67495038D01*
X122245038Y-67380547D01*
X122307000Y-67230957D01*
X122307000Y-66628750D01*
X122205250Y-66527000D01*
X121377000Y-66527000D01*
X121123000Y-66527000D01*
X120294750Y-66527000D01*
X120193000Y-66628750D01*
X119448763Y-66628750D01*
X119423375Y-66567460D01*
X119245038Y-66389123D01*
X119101144Y-66389123D01*
X119173091Y-66317176D01*
X119107585Y-66251670D01*
X119280330Y-66251670D01*
X119483918Y-66211174D01*
X119656511Y-66095851D01*
X120199845Y-65552517D01*
X120193000Y-65569043D01*
X120193000Y-66171250D01*
X120294750Y-66273000D01*
X121123000Y-66273000D01*
X121123000Y-66253000D01*
X121377000Y-66253000D01*
X121377000Y-66273000D01*
X122205250Y-66273000D01*
X122307000Y-66171250D01*
X122307000Y-65569043D01*
X122245038Y-65419453D01*
X122130547Y-65304962D01*
X121980958Y-65243000D01*
X121759362Y-65243000D01*
X122220362Y-64782000D01*
X122685027Y-64782000D01*
X122685027Y-64900000D01*
X122716615Y-65058803D01*
X122806570Y-65193430D01*
X122941197Y-65283385D01*
X123100000Y-65314973D01*
X124400000Y-65314973D01*
X124468000Y-65301447D01*
X124468000Y-65698553D01*
X124400000Y-65685027D01*
X123100000Y-65685027D01*
X122941197Y-65716615D01*
X122806570Y-65806570D01*
X122716615Y-65941197D01*
X122685027Y-66100000D01*
X122685027Y-67600000D01*
X122716615Y-67758803D01*
X122806570Y-67893430D01*
X122941197Y-67983385D01*
X123100000Y-68014973D01*
X123762611Y-68014973D01*
X124193047Y-68445409D01*
X124192860Y-68659818D01*
X124315460Y-68956532D01*
X124542274Y-69183742D01*
X124838774Y-69306860D01*
X125159818Y-69307140D01*
X125456532Y-69184540D01*
X125683742Y-68957726D01*
X125806860Y-68661226D01*
X125807140Y-68340182D01*
X125684540Y-68043468D01*
X125532000Y-67890662D01*
X125532000Y-63000000D01*
X125491504Y-62796412D01*
X125376181Y-62623819D01*
X124809414Y-62057052D01*
X124909818Y-62057140D01*
X125206532Y-61934540D01*
X125433742Y-61707726D01*
X125556860Y-61411226D01*
X125557140Y-61090182D01*
X125434540Y-60793468D01*
X125207726Y-60566258D01*
X125164973Y-60548505D01*
X125164973Y-58045000D01*
X125133385Y-57886197D01*
X125043430Y-57751570D01*
X124908803Y-57661615D01*
X124750000Y-57630027D01*
X123750000Y-57630027D01*
X123591197Y-57661615D01*
X123456570Y-57751570D01*
X123366615Y-57886197D01*
X123335027Y-58045000D01*
X123335027Y-60625000D01*
X123366615Y-60783803D01*
X123456570Y-60918430D01*
X123591197Y-61008385D01*
X123750000Y-61039973D01*
X123816217Y-61039973D01*
X123849765Y-61090182D01*
X123873819Y-61126181D01*
X123943047Y-61195409D01*
X123942860Y-61409818D01*
X124065460Y-61706532D01*
X124076908Y-61718000D01*
X123220362Y-61718000D01*
X122782000Y-61279638D01*
X122782000Y-61033608D01*
X122908803Y-61008385D01*
X123043430Y-60918430D01*
X123133385Y-60783803D01*
X123164973Y-60625000D01*
X123164973Y-58045000D01*
X123133385Y-57886197D01*
X123063763Y-57782000D01*
X123250000Y-57782000D01*
X123453588Y-57741504D01*
X123626181Y-57626181D01*
X124382388Y-56869973D01*
X124750000Y-56869973D01*
X124908803Y-56838385D01*
X125043430Y-56748430D01*
X125133385Y-56613803D01*
X125164973Y-56455000D01*
X125164973Y-53875000D01*
X125133385Y-53716197D01*
X125043430Y-53581570D01*
X124908803Y-53491615D01*
X124750000Y-53460027D01*
X123750000Y-53460027D01*
X123591197Y-53491615D01*
X123456570Y-53581570D01*
X123366615Y-53716197D01*
X123335027Y-53875000D01*
X123335027Y-56412611D01*
X123118335Y-56629304D01*
X123157000Y-56535957D01*
X123157000Y-55393750D01*
X123055250Y-55292000D01*
X122377000Y-55292000D01*
X122377000Y-55312000D01*
X122123000Y-55312000D01*
X122123000Y-55292000D01*
X121444750Y-55292000D01*
X121343000Y-55393750D01*
X121343000Y-56518619D01*
X121164973Y-56444696D01*
X121164973Y-53875000D01*
X121148870Y-53794043D01*
X121343000Y-53794043D01*
X121343000Y-54936250D01*
X121444750Y-55038000D01*
X122123000Y-55038000D01*
X122123000Y-53569750D01*
X122377000Y-53569750D01*
X122377000Y-55038000D01*
X123055250Y-55038000D01*
X123157000Y-54936250D01*
X123157000Y-53794043D01*
X123095038Y-53644453D01*
X122980547Y-53529962D01*
X122830958Y-53468000D01*
X122478750Y-53468000D01*
X122377000Y-53569750D01*
X122123000Y-53569750D01*
X122021250Y-53468000D01*
X121669042Y-53468000D01*
X121519453Y-53529962D01*
X121404962Y-53644453D01*
X121343000Y-53794043D01*
X121148870Y-53794043D01*
X121133385Y-53716197D01*
X121043430Y-53581570D01*
X120908803Y-53491615D01*
X120750000Y-53460027D01*
X120683783Y-53460027D01*
X120626181Y-53373819D01*
X120484362Y-53232000D01*
X126018000Y-53232000D01*
X126018000Y-75151710D01*
G36*
X109066258Y-53292274D02*
X108943140Y-53588774D01*
X108942860Y-53909818D01*
X109065460Y-54206532D01*
X109292274Y-54433742D01*
X109588774Y-54556860D01*
X109909818Y-54557140D01*
X110206532Y-54434540D01*
X110433742Y-54207726D01*
X110556860Y-53911226D01*
X110556973Y-53782000D01*
X116076550Y-53782000D01*
X116066258Y-53792274D01*
X115996601Y-53960027D01*
X115350000Y-53960027D01*
X115191197Y-53991615D01*
X115056570Y-54081570D01*
X115002506Y-54162482D01*
X114995038Y-54144453D01*
X114880547Y-54029962D01*
X114730957Y-53968000D01*
X114478750Y-53968000D01*
X114377000Y-54069750D01*
X114377000Y-54623000D01*
X114397000Y-54623000D01*
X114397000Y-54877000D01*
X114377000Y-54877000D01*
X114377000Y-54897000D01*
X114123000Y-54897000D01*
X114123000Y-54877000D01*
X113544750Y-54877000D01*
X113500000Y-54921750D01*
X113455250Y-54877000D01*
X112877000Y-54877000D01*
X112877000Y-55430250D01*
X112946750Y-55500000D01*
X112877000Y-55569750D01*
X112877000Y-56123000D01*
X113455250Y-56123000D01*
X113557000Y-56021250D01*
X113557000Y-55794042D01*
X113495038Y-55644453D01*
X113380547Y-55529962D01*
X113308212Y-55500000D01*
X113380547Y-55470038D01*
X113495038Y-55355547D01*
X113500000Y-55343568D01*
X113504962Y-55355547D01*
X113619453Y-55470038D01*
X113769043Y-55532000D01*
X114021250Y-55532000D01*
X114122998Y-55430252D01*
X114122998Y-55532000D01*
X114168172Y-55532000D01*
X114056570Y-55606570D01*
X113966615Y-55741197D01*
X113935027Y-55900000D01*
X113935027Y-56400815D01*
X113896412Y-56408496D01*
X113759467Y-56500000D01*
X113723819Y-56523819D01*
X113557000Y-56690638D01*
X113557000Y-56478750D01*
X113455250Y-56377000D01*
X112877000Y-56377000D01*
X112877000Y-56930250D01*
X112902716Y-56955966D01*
X112816258Y-57042274D01*
X112693140Y-57338774D01*
X112692860Y-57659818D01*
X112815460Y-57956532D01*
X113042274Y-58183742D01*
X113338774Y-58306860D01*
X113659818Y-58307140D01*
X113956532Y-58184540D01*
X114183742Y-57957726D01*
X114251181Y-57795317D01*
X114350000Y-57814973D01*
X115650000Y-57814973D01*
X115718000Y-57801447D01*
X115718000Y-58198553D01*
X115650000Y-58185027D01*
X114350000Y-58185027D01*
X114191197Y-58216615D01*
X114056570Y-58306570D01*
X113966615Y-58441197D01*
X113935027Y-58600000D01*
X113935027Y-60100000D01*
X113966615Y-60258803D01*
X114056570Y-60393430D01*
X114191197Y-60483385D01*
X114350000Y-60514973D01*
X114720978Y-60514973D01*
X114758496Y-60703588D01*
X114768126Y-60718000D01*
X113970362Y-60718000D01*
X111782000Y-58529638D01*
X111782000Y-57013716D01*
X111808803Y-57008385D01*
X111943430Y-56918430D01*
X111997494Y-56837518D01*
X112004962Y-56855547D01*
X112119453Y-56970038D01*
X112269043Y-57032000D01*
X112521250Y-57032000D01*
X112623000Y-56930250D01*
X112623000Y-56377000D01*
X112603000Y-56377000D01*
X112603000Y-56123000D01*
X112623000Y-56123000D01*
X112623000Y-55569750D01*
X112553250Y-55500000D01*
X112623000Y-55430250D01*
X112623000Y-54877000D01*
X112603000Y-54877000D01*
X112603000Y-54623000D01*
X112623000Y-54623000D01*
X112623000Y-54069750D01*
X112877000Y-54069750D01*
X112877000Y-54623000D01*
X113455250Y-54623000D01*
X113500000Y-54578250D01*
X113544750Y-54623000D01*
X114123000Y-54623000D01*
X114123000Y-54069750D01*
X114021250Y-53968000D01*
X113769043Y-53968000D01*
X113619453Y-54029962D01*
X113504962Y-54144453D01*
X113500000Y-54156432D01*
X113495038Y-54144453D01*
X113380547Y-54029962D01*
X113230957Y-53968000D01*
X112978750Y-53968000D01*
X112877000Y-54069750D01*
X112623000Y-54069750D01*
X112521250Y-53968000D01*
X112269043Y-53968000D01*
X112119453Y-54029962D01*
X112004962Y-54144453D01*
X111997494Y-54162482D01*
X111943430Y-54081570D01*
X111808803Y-53991615D01*
X111650000Y-53960027D01*
X110850000Y-53960027D01*
X110691197Y-53991615D01*
X110556570Y-54081570D01*
X110466615Y-54216197D01*
X110444680Y-54326471D01*
X110373819Y-54373819D01*
X109819455Y-54928183D01*
X109707726Y-54816258D01*
X109411226Y-54693140D01*
X109090182Y-54692860D01*
X108793468Y-54815460D01*
X108566258Y-55042274D01*
X108443140Y-55338774D01*
X108442860Y-55659818D01*
X108565460Y-55956532D01*
X108792274Y-56183742D01*
X109088774Y-56306860D01*
X109409818Y-56307140D01*
X109706532Y-56184540D01*
X109859338Y-56032000D01*
X110000000Y-56032000D01*
X110203588Y-55991504D01*
X110376181Y-55876181D01*
X110449345Y-55803017D01*
X110435027Y-55875000D01*
X110435027Y-56625000D01*
X110466615Y-56783803D01*
X110556570Y-56918430D01*
X110691197Y-57008385D01*
X110718000Y-57013716D01*
X110718000Y-58750000D01*
X110758496Y-58953588D01*
X110835476Y-59068797D01*
X110873819Y-59126181D01*
X113340638Y-61593000D01*
X109095362Y-61593000D01*
X108164973Y-60662611D01*
X108164973Y-59295000D01*
X108133385Y-59136197D01*
X108081999Y-59059292D01*
X108183742Y-58957726D01*
X108306860Y-58661226D01*
X108307140Y-58340182D01*
X108184540Y-58043468D01*
X108081983Y-57940732D01*
X108133385Y-57863803D01*
X108164973Y-57705000D01*
X108164973Y-55125000D01*
X108133385Y-54966197D01*
X108043430Y-54831570D01*
X107908803Y-54741615D01*
X107750000Y-54710027D01*
X106750000Y-54710027D01*
X106591197Y-54741615D01*
X106456570Y-54831570D01*
X106366615Y-54966197D01*
X106335027Y-55125000D01*
X106335027Y-57705000D01*
X106366615Y-57863803D01*
X106456570Y-57998430D01*
X106591197Y-58088385D01*
X106718000Y-58113608D01*
X106718000Y-58250000D01*
X106721887Y-58269543D01*
X106693140Y-58338774D01*
X106692860Y-58659818D01*
X106783849Y-58880027D01*
X106750000Y-58880027D01*
X106591197Y-58911615D01*
X106456570Y-59001570D01*
X106366615Y-59136197D01*
X106335027Y-59295000D01*
X106335027Y-61875000D01*
X106366615Y-62033803D01*
X106450067Y-62158698D01*
X106390662Y-62218000D01*
X105970362Y-62218000D01*
X105969914Y-62217552D01*
X106043430Y-62168430D01*
X106133385Y-62033803D01*
X106164973Y-61875000D01*
X106164973Y-59295000D01*
X106133385Y-59136197D01*
X106043430Y-59001570D01*
X105908803Y-58911615D01*
X105750000Y-58880027D01*
X104750000Y-58880027D01*
X104591197Y-58911615D01*
X104456570Y-59001570D01*
X104366615Y-59136197D01*
X104335027Y-59295000D01*
X104335027Y-61875000D01*
X104366615Y-62033803D01*
X104456570Y-62168430D01*
X104591197Y-62258385D01*
X104724960Y-62284992D01*
X104758496Y-62453588D01*
X104849765Y-62590182D01*
X104873819Y-62626181D01*
X105373819Y-63126181D01*
X105546412Y-63241504D01*
X105750000Y-63282000D01*
X105874888Y-63282000D01*
X105819453Y-63304962D01*
X105704962Y-63419453D01*
X105643000Y-63569042D01*
X105643000Y-63821250D01*
X105744750Y-63923000D01*
X106373000Y-63923000D01*
X106373000Y-63903000D01*
X106627000Y-63903000D01*
X106627000Y-63923000D01*
X107255250Y-63923000D01*
X107357000Y-63821250D01*
X107357000Y-63728750D01*
X107443000Y-63728750D01*
X107443000Y-63955958D01*
X107504962Y-64105547D01*
X107619453Y-64220038D01*
X107769043Y-64282000D01*
X108021250Y-64282000D01*
X108123000Y-64180250D01*
X108123000Y-63627000D01*
X107544750Y-63627000D01*
X107443000Y-63728750D01*
X107357000Y-63728750D01*
X107357000Y-63569042D01*
X107323975Y-63489312D01*
X107456532Y-63434540D01*
X107531476Y-63359726D01*
X107544750Y-63373000D01*
X108123000Y-63373000D01*
X108123000Y-62819750D01*
X108021250Y-62718000D01*
X107807029Y-62718000D01*
X107807140Y-62590182D01*
X107684540Y-62293468D01*
X107681051Y-62289973D01*
X107750000Y-62289973D01*
X107908803Y-62258385D01*
X108043430Y-62168430D01*
X108092552Y-62094914D01*
X108498819Y-62501181D01*
X108671412Y-62616504D01*
X108875000Y-62657000D01*
X114654638Y-62657000D01*
X114932665Y-62935027D01*
X113850000Y-62935027D01*
X113691197Y-62966615D01*
X113556570Y-63056570D01*
X113466615Y-63191197D01*
X113435027Y-63350000D01*
X113435027Y-64650000D01*
X113462006Y-64785632D01*
X113175596Y-65072042D01*
X113060273Y-65244635D01*
X113019777Y-65448223D01*
X113019777Y-66585153D01*
X112801777Y-66585153D01*
X112642974Y-66616741D01*
X112508347Y-66706696D01*
X112418392Y-66841323D01*
X112401777Y-66924852D01*
X112385162Y-66841323D01*
X112295207Y-66706696D01*
X112160580Y-66616741D01*
X112001777Y-66585153D01*
X111783777Y-66585153D01*
X111783777Y-66501777D01*
X111743281Y-66298189D01*
X111727617Y-66274745D01*
X112376181Y-65626181D01*
X112416753Y-65565460D01*
X112491504Y-65453588D01*
X112532000Y-65250000D01*
X112532000Y-65064973D01*
X112650000Y-65064973D01*
X112808803Y-65033385D01*
X112943430Y-64943430D01*
X113033385Y-64808803D01*
X113064973Y-64650000D01*
X113064973Y-63350000D01*
X113033385Y-63191197D01*
X112943430Y-63056570D01*
X112808803Y-62966615D01*
X112650000Y-62935027D01*
X111150000Y-62935027D01*
X110991197Y-62966615D01*
X110989124Y-62968000D01*
X110533744Y-62968000D01*
X110533385Y-62966197D01*
X110443430Y-62831570D01*
X110308803Y-62741615D01*
X110150000Y-62710027D01*
X109350000Y-62710027D01*
X109191197Y-62741615D01*
X109056570Y-62831570D01*
X109002506Y-62912482D01*
X108995038Y-62894453D01*
X108880547Y-62779962D01*
X108730957Y-62718000D01*
X108478750Y-62718000D01*
X108377000Y-62819750D01*
X108377000Y-63373000D01*
X108397000Y-63373000D01*
X108397000Y-63627000D01*
X108377000Y-63627000D01*
X108377000Y-64180250D01*
X108478750Y-64282000D01*
X108730957Y-64282000D01*
X108880547Y-64220038D01*
X108995038Y-64105547D01*
X109002506Y-64087518D01*
X109056570Y-64168430D01*
X109191197Y-64258385D01*
X109350000Y-64289973D01*
X110150000Y-64289973D01*
X110308803Y-64258385D01*
X110443430Y-64168430D01*
X110533385Y-64033803D01*
X110533744Y-64032000D01*
X110735027Y-64032000D01*
X110735027Y-64650000D01*
X110766615Y-64808803D01*
X110856570Y-64943430D01*
X110991197Y-65033385D01*
X111150000Y-65064973D01*
X111432665Y-65064973D01*
X111000000Y-65497638D01*
X110876181Y-65373819D01*
X110830789Y-65343489D01*
X110703588Y-65258496D01*
X110500000Y-65218000D01*
X109866749Y-65218000D01*
X109866749Y-64800126D01*
X109835161Y-64641323D01*
X109745206Y-64506696D01*
X109610579Y-64416741D01*
X109451776Y-64385153D01*
X108151776Y-64385153D01*
X107992973Y-64416741D01*
X107858346Y-64506696D01*
X107768391Y-64641323D01*
X107736803Y-64800126D01*
X107736803Y-66300126D01*
X107768391Y-66458929D01*
X107858346Y-66593556D01*
X107992973Y-66683511D01*
X108151776Y-66715099D01*
X109451776Y-66715099D01*
X109610579Y-66683511D01*
X109745206Y-66593556D01*
X109835161Y-66458929D01*
X109866749Y-66300126D01*
X109866749Y-66282000D01*
X110279638Y-66282000D01*
X110582791Y-66585153D01*
X110501777Y-66585153D01*
X110342974Y-66616741D01*
X110208347Y-66706696D01*
X110118392Y-66841323D01*
X110086804Y-67000126D01*
X110086804Y-69000126D01*
X110118392Y-69158929D01*
X110208347Y-69293556D01*
X110342974Y-69383511D01*
X110501777Y-69415099D01*
X112001777Y-69415099D01*
X112160580Y-69383511D01*
X112295207Y-69293556D01*
X112385162Y-69158929D01*
X112401777Y-69075400D01*
X112418392Y-69158929D01*
X112508347Y-69293556D01*
X112642974Y-69383511D01*
X112801777Y-69415099D01*
X114301777Y-69415099D01*
X114460580Y-69383511D01*
X114468000Y-69378553D01*
X114468000Y-69779639D01*
X113779638Y-70468000D01*
X107474098Y-70468000D01*
X106768125Y-69762027D01*
X106633498Y-69672072D01*
X106474695Y-69640484D01*
X106315892Y-69672072D01*
X106181265Y-69762027D01*
X105262027Y-70681265D01*
X105172072Y-70815892D01*
X105140484Y-70974695D01*
X105172072Y-71133498D01*
X105262027Y-71268125D01*
X106322687Y-72328785D01*
X106457314Y-72418740D01*
X106476689Y-72422594D01*
X102425550Y-72422594D01*
X102113050Y-72109548D01*
X101683549Y-71931203D01*
X101218492Y-71930798D01*
X100788680Y-72108392D01*
X100732000Y-72164973D01*
X100732000Y-68478876D01*
X107744776Y-68478876D01*
X107744776Y-69081083D01*
X107806738Y-69230673D01*
X107921229Y-69345164D01*
X108070818Y-69407126D01*
X108573026Y-69407126D01*
X108674776Y-69305376D01*
X108674776Y-68377126D01*
X108928776Y-68377126D01*
X108928776Y-69305376D01*
X109030526Y-69407126D01*
X109532734Y-69407126D01*
X109682323Y-69345164D01*
X109796814Y-69230673D01*
X109858776Y-69081083D01*
X109858776Y-68478876D01*
X109757026Y-68377126D01*
X108928776Y-68377126D01*
X108674776Y-68377126D01*
X107846526Y-68377126D01*
X107744776Y-68478876D01*
X100732000Y-68478876D01*
X100732000Y-67419169D01*
X107744776Y-67419169D01*
X107744776Y-68021376D01*
X107846526Y-68123126D01*
X108674776Y-68123126D01*
X108674776Y-67194876D01*
X108928776Y-67194876D01*
X108928776Y-68123126D01*
X109757026Y-68123126D01*
X109858776Y-68021376D01*
X109858776Y-67419169D01*
X109796814Y-67269579D01*
X109682323Y-67155088D01*
X109532734Y-67093126D01*
X109030526Y-67093126D01*
X108928776Y-67194876D01*
X108674776Y-67194876D01*
X108573026Y-67093126D01*
X108070818Y-67093126D01*
X107921229Y-67155088D01*
X107806738Y-67269579D01*
X107744776Y-67419169D01*
X100732000Y-67419169D01*
X100732000Y-62734362D01*
X103373819Y-65376181D01*
X103436406Y-65418000D01*
X103300000Y-65418000D01*
X103165238Y-65444806D01*
X103161226Y-65443140D01*
X102840182Y-65442860D01*
X102543468Y-65565460D01*
X102316258Y-65792274D01*
X102193140Y-66088774D01*
X102192860Y-66409818D01*
X102315460Y-66706532D01*
X102542274Y-66933742D01*
X102838774Y-67056860D01*
X103159818Y-67057140D01*
X103456532Y-66934540D01*
X103683742Y-66707726D01*
X103777472Y-66482000D01*
X105661284Y-66482000D01*
X105666615Y-66508803D01*
X105756570Y-66643430D01*
X105891197Y-66733385D01*
X106050000Y-66764973D01*
X106950000Y-66764973D01*
X107108803Y-66733385D01*
X107243430Y-66643430D01*
X107333385Y-66508803D01*
X107364973Y-66350000D01*
X107364973Y-65550000D01*
X107333385Y-65391197D01*
X107243430Y-65256570D01*
X107108803Y-65166615D01*
X106950000Y-65135027D01*
X106050000Y-65135027D01*
X105891197Y-65166615D01*
X105756570Y-65256570D01*
X105666615Y-65391197D01*
X105661284Y-65418000D01*
X105361393Y-65418000D01*
X105364973Y-65400000D01*
X105364973Y-64600000D01*
X105333385Y-64441197D01*
X105243430Y-64306570D01*
X105201795Y-64278750D01*
X105643000Y-64278750D01*
X105643000Y-64530958D01*
X105704962Y-64680547D01*
X105819453Y-64795038D01*
X105969043Y-64857000D01*
X106271250Y-64857000D01*
X106373000Y-64755250D01*
X106373000Y-64177000D01*
X106627000Y-64177000D01*
X106627000Y-64755250D01*
X106728750Y-64857000D01*
X107030957Y-64857000D01*
X107180547Y-64795038D01*
X107295038Y-64680547D01*
X107357000Y-64530958D01*
X107357000Y-64278750D01*
X107255250Y-64177000D01*
X106627000Y-64177000D01*
X106373000Y-64177000D01*
X105744750Y-64177000D01*
X105643000Y-64278750D01*
X105201795Y-64278750D01*
X105108803Y-64216615D01*
X104950000Y-64185027D01*
X104050000Y-64185027D01*
X103891197Y-64216615D01*
X103787959Y-64285597D01*
X101532000Y-62029638D01*
X101532000Y-61423450D01*
X101542274Y-61433742D01*
X101838774Y-61556860D01*
X102159818Y-61557140D01*
X102335027Y-61484745D01*
X102335027Y-61875000D01*
X102366615Y-62033803D01*
X102456570Y-62168430D01*
X102591197Y-62258385D01*
X102750000Y-62289973D01*
X103750000Y-62289973D01*
X103908803Y-62258385D01*
X104043430Y-62168430D01*
X104133385Y-62033803D01*
X104164973Y-61875000D01*
X104164973Y-59295000D01*
X104133385Y-59136197D01*
X104063763Y-59032000D01*
X104250000Y-59032000D01*
X104453588Y-58991504D01*
X104626181Y-58876181D01*
X105382388Y-58119973D01*
X105750000Y-58119973D01*
X105908803Y-58088385D01*
X106043430Y-57998430D01*
X106133385Y-57863803D01*
X106164973Y-57705000D01*
X106164973Y-55125000D01*
X106133385Y-54966197D01*
X106043430Y-54831570D01*
X105908803Y-54741615D01*
X105750000Y-54710027D01*
X104750000Y-54710027D01*
X104591197Y-54741615D01*
X104456570Y-54831570D01*
X104366615Y-54966197D01*
X104335027Y-55125000D01*
X104335027Y-57662611D01*
X104118335Y-57879304D01*
X104157000Y-57785957D01*
X104157000Y-56643750D01*
X104055250Y-56542000D01*
X103377000Y-56542000D01*
X103377000Y-56562000D01*
X103123000Y-56562000D01*
X103123000Y-56542000D01*
X102444750Y-56542000D01*
X102343000Y-56643750D01*
X102343000Y-57139900D01*
X102113050Y-56909548D01*
X101683549Y-56731203D01*
X101218492Y-56730798D01*
X100788680Y-56908392D01*
X100732000Y-56964973D01*
X100732000Y-55044043D01*
X102343000Y-55044043D01*
X102343000Y-56186250D01*
X102444750Y-56288000D01*
X103123000Y-56288000D01*
X103123000Y-54819750D01*
X103377000Y-54819750D01*
X103377000Y-56288000D01*
X104055250Y-56288000D01*
X104157000Y-56186250D01*
X104157000Y-55044043D01*
X104095038Y-54894453D01*
X103980547Y-54779962D01*
X103830958Y-54718000D01*
X103478750Y-54718000D01*
X103377000Y-54819750D01*
X103123000Y-54819750D01*
X103021250Y-54718000D01*
X102669042Y-54718000D01*
X102519453Y-54779962D01*
X102404962Y-54894453D01*
X102343000Y-55044043D01*
X100732000Y-55044043D01*
X100732000Y-53232000D01*
X109126637Y-53232000D01*
X109066258Y-53292274D01*
X109066258Y-53292274D01*
G37*
X109066258Y-53292274D02*
X108943140Y-53588774D01*
X108942860Y-53909818D01*
X109065460Y-54206532D01*
X109292274Y-54433742D01*
X109588774Y-54556860D01*
X109909818Y-54557140D01*
X110206532Y-54434540D01*
X110433742Y-54207726D01*
X110556860Y-53911226D01*
X110556973Y-53782000D01*
X116076550Y-53782000D01*
X116066258Y-53792274D01*
X115996601Y-53960027D01*
X115350000Y-53960027D01*
X115191197Y-53991615D01*
X115056570Y-54081570D01*
X115002506Y-54162482D01*
X114995038Y-54144453D01*
X114880547Y-54029962D01*
X114730957Y-53968000D01*
X114478750Y-53968000D01*
X114377000Y-54069750D01*
X114377000Y-54623000D01*
X114397000Y-54623000D01*
X114397000Y-54877000D01*
X114377000Y-54877000D01*
X114377000Y-54897000D01*
X114123000Y-54897000D01*
X114123000Y-54877000D01*
X113544750Y-54877000D01*
X113500000Y-54921750D01*
X113455250Y-54877000D01*
X112877000Y-54877000D01*
X112877000Y-55430250D01*
X112946750Y-55500000D01*
X112877000Y-55569750D01*
X112877000Y-56123000D01*
X113455250Y-56123000D01*
X113557000Y-56021250D01*
X113557000Y-55794042D01*
X113495038Y-55644453D01*
X113380547Y-55529962D01*
X113308212Y-55500000D01*
X113380547Y-55470038D01*
X113495038Y-55355547D01*
X113500000Y-55343568D01*
X113504962Y-55355547D01*
X113619453Y-55470038D01*
X113769043Y-55532000D01*
X114021250Y-55532000D01*
X114122998Y-55430252D01*
X114122998Y-55532000D01*
X114168172Y-55532000D01*
X114056570Y-55606570D01*
X113966615Y-55741197D01*
X113935027Y-55900000D01*
X113935027Y-56400815D01*
X113896412Y-56408496D01*
X113759467Y-56500000D01*
X113723819Y-56523819D01*
X113557000Y-56690638D01*
X113557000Y-56478750D01*
X113455250Y-56377000D01*
X112877000Y-56377000D01*
X112877000Y-56930250D01*
X112902716Y-56955966D01*
X112816258Y-57042274D01*
X112693140Y-57338774D01*
X112692860Y-57659818D01*
X112815460Y-57956532D01*
X113042274Y-58183742D01*
X113338774Y-58306860D01*
X113659818Y-58307140D01*
X113956532Y-58184540D01*
X114183742Y-57957726D01*
X114251181Y-57795317D01*
X114350000Y-57814973D01*
X115650000Y-57814973D01*
X115718000Y-57801447D01*
X115718000Y-58198553D01*
X115650000Y-58185027D01*
X114350000Y-58185027D01*
X114191197Y-58216615D01*
X114056570Y-58306570D01*
X113966615Y-58441197D01*
X113935027Y-58600000D01*
X113935027Y-60100000D01*
X113966615Y-60258803D01*
X114056570Y-60393430D01*
X114191197Y-60483385D01*
X114350000Y-60514973D01*
X114720978Y-60514973D01*
X114758496Y-60703588D01*
X114768126Y-60718000D01*
X113970362Y-60718000D01*
X111782000Y-58529638D01*
X111782000Y-57013716D01*
X111808803Y-57008385D01*
X111943430Y-56918430D01*
X111997494Y-56837518D01*
X112004962Y-56855547D01*
X112119453Y-56970038D01*
X112269043Y-57032000D01*
X112521250Y-57032000D01*
X112623000Y-56930250D01*
X112623000Y-56377000D01*
X112603000Y-56377000D01*
X112603000Y-56123000D01*
X112623000Y-56123000D01*
X112623000Y-55569750D01*
X112553250Y-55500000D01*
X112623000Y-55430250D01*
X112623000Y-54877000D01*
X112603000Y-54877000D01*
X112603000Y-54623000D01*
X112623000Y-54623000D01*
X112623000Y-54069750D01*
X112877000Y-54069750D01*
X112877000Y-54623000D01*
X113455250Y-54623000D01*
X113500000Y-54578250D01*
X113544750Y-54623000D01*
X114123000Y-54623000D01*
X114123000Y-54069750D01*
X114021250Y-53968000D01*
X113769043Y-53968000D01*
X113619453Y-54029962D01*
X113504962Y-54144453D01*
X113500000Y-54156432D01*
X113495038Y-54144453D01*
X113380547Y-54029962D01*
X113230957Y-53968000D01*
X112978750Y-53968000D01*
X112877000Y-54069750D01*
X112623000Y-54069750D01*
X112521250Y-53968000D01*
X112269043Y-53968000D01*
X112119453Y-54029962D01*
X112004962Y-54144453D01*
X111997494Y-54162482D01*
X111943430Y-54081570D01*
X111808803Y-53991615D01*
X111650000Y-53960027D01*
X110850000Y-53960027D01*
X110691197Y-53991615D01*
X110556570Y-54081570D01*
X110466615Y-54216197D01*
X110444680Y-54326471D01*
X110373819Y-54373819D01*
X109819455Y-54928183D01*
X109707726Y-54816258D01*
X109411226Y-54693140D01*
X109090182Y-54692860D01*
X108793468Y-54815460D01*
X108566258Y-55042274D01*
X108443140Y-55338774D01*
X108442860Y-55659818D01*
X108565460Y-55956532D01*
X108792274Y-56183742D01*
X109088774Y-56306860D01*
X109409818Y-56307140D01*
X109706532Y-56184540D01*
X109859338Y-56032000D01*
X110000000Y-56032000D01*
X110203588Y-55991504D01*
X110376181Y-55876181D01*
X110449345Y-55803017D01*
X110435027Y-55875000D01*
X110435027Y-56625000D01*
X110466615Y-56783803D01*
X110556570Y-56918430D01*
X110691197Y-57008385D01*
X110718000Y-57013716D01*
X110718000Y-58750000D01*
X110758496Y-58953588D01*
X110835476Y-59068797D01*
X110873819Y-59126181D01*
X113340638Y-61593000D01*
X109095362Y-61593000D01*
X108164973Y-60662611D01*
X108164973Y-59295000D01*
X108133385Y-59136197D01*
X108081999Y-59059292D01*
X108183742Y-58957726D01*
X108306860Y-58661226D01*
X108307140Y-58340182D01*
X108184540Y-58043468D01*
X108081983Y-57940732D01*
X108133385Y-57863803D01*
X108164973Y-57705000D01*
X108164973Y-55125000D01*
X108133385Y-54966197D01*
X108043430Y-54831570D01*
X107908803Y-54741615D01*
X107750000Y-54710027D01*
X106750000Y-54710027D01*
X106591197Y-54741615D01*
X106456570Y-54831570D01*
X106366615Y-54966197D01*
X106335027Y-55125000D01*
X106335027Y-57705000D01*
X106366615Y-57863803D01*
X106456570Y-57998430D01*
X106591197Y-58088385D01*
X106718000Y-58113608D01*
X106718000Y-58250000D01*
X106721887Y-58269543D01*
X106693140Y-58338774D01*
X106692860Y-58659818D01*
X106783849Y-58880027D01*
X106750000Y-58880027D01*
X106591197Y-58911615D01*
X106456570Y-59001570D01*
X106366615Y-59136197D01*
X106335027Y-59295000D01*
X106335027Y-61875000D01*
X106366615Y-62033803D01*
X106450067Y-62158698D01*
X106390662Y-62218000D01*
X105970362Y-62218000D01*
X105969914Y-62217552D01*
X106043430Y-62168430D01*
X106133385Y-62033803D01*
X106164973Y-61875000D01*
X106164973Y-59295000D01*
X106133385Y-59136197D01*
X106043430Y-59001570D01*
X105908803Y-58911615D01*
X105750000Y-58880027D01*
X104750000Y-58880027D01*
X104591197Y-58911615D01*
X104456570Y-59001570D01*
X104366615Y-59136197D01*
X104335027Y-59295000D01*
X104335027Y-61875000D01*
X104366615Y-62033803D01*
X104456570Y-62168430D01*
X104591197Y-62258385D01*
X104724960Y-62284992D01*
X104758496Y-62453588D01*
X104849765Y-62590182D01*
X104873819Y-62626181D01*
X105373819Y-63126181D01*
X105546412Y-63241504D01*
X105750000Y-63282000D01*
X105874888Y-63282000D01*
X105819453Y-63304962D01*
X105704962Y-63419453D01*
X105643000Y-63569042D01*
X105643000Y-63821250D01*
X105744750Y-63923000D01*
X106373000Y-63923000D01*
X106373000Y-63903000D01*
X106627000Y-63903000D01*
X106627000Y-63923000D01*
X107255250Y-63923000D01*
X107357000Y-63821250D01*
X107357000Y-63728750D01*
X107443000Y-63728750D01*
X107443000Y-63955958D01*
X107504962Y-64105547D01*
X107619453Y-64220038D01*
X107769043Y-64282000D01*
X108021250Y-64282000D01*
X108123000Y-64180250D01*
X108123000Y-63627000D01*
X107544750Y-63627000D01*
X107443000Y-63728750D01*
X107357000Y-63728750D01*
X107357000Y-63569042D01*
X107323975Y-63489312D01*
X107456532Y-63434540D01*
X107531476Y-63359726D01*
X107544750Y-63373000D01*
X108123000Y-63373000D01*
X108123000Y-62819750D01*
X108021250Y-62718000D01*
X107807029Y-62718000D01*
X107807140Y-62590182D01*
X107684540Y-62293468D01*
X107681051Y-62289973D01*
X107750000Y-62289973D01*
X107908803Y-62258385D01*
X108043430Y-62168430D01*
X108092552Y-62094914D01*
X108498819Y-62501181D01*
X108671412Y-62616504D01*
X108875000Y-62657000D01*
X114654638Y-62657000D01*
X114932665Y-62935027D01*
X113850000Y-62935027D01*
X113691197Y-62966615D01*
X113556570Y-63056570D01*
X113466615Y-63191197D01*
X113435027Y-63350000D01*
X113435027Y-64650000D01*
X113462006Y-64785632D01*
X113175596Y-65072042D01*
X113060273Y-65244635D01*
X113019777Y-65448223D01*
X113019777Y-66585153D01*
X112801777Y-66585153D01*
X112642974Y-66616741D01*
X112508347Y-66706696D01*
X112418392Y-66841323D01*
X112401777Y-66924852D01*
X112385162Y-66841323D01*
X112295207Y-66706696D01*
X112160580Y-66616741D01*
X112001777Y-66585153D01*
X111783777Y-66585153D01*
X111783777Y-66501777D01*
X111743281Y-66298189D01*
X111727617Y-66274745D01*
X112376181Y-65626181D01*
X112416753Y-65565460D01*
X112491504Y-65453588D01*
X112532000Y-65250000D01*
X112532000Y-65064973D01*
X112650000Y-65064973D01*
X112808803Y-65033385D01*
X112943430Y-64943430D01*
X113033385Y-64808803D01*
X113064973Y-64650000D01*
X113064973Y-63350000D01*
X113033385Y-63191197D01*
X112943430Y-63056570D01*
X112808803Y-62966615D01*
X112650000Y-62935027D01*
X111150000Y-62935027D01*
X110991197Y-62966615D01*
X110989124Y-62968000D01*
X110533744Y-62968000D01*
X110533385Y-62966197D01*
X110443430Y-62831570D01*
X110308803Y-62741615D01*
X110150000Y-62710027D01*
X109350000Y-62710027D01*
X109191197Y-62741615D01*
X109056570Y-62831570D01*
X109002506Y-62912482D01*
X108995038Y-62894453D01*
X108880547Y-62779962D01*
X108730957Y-62718000D01*
X108478750Y-62718000D01*
X108377000Y-62819750D01*
X108377000Y-63373000D01*
X108397000Y-63373000D01*
X108397000Y-63627000D01*
X108377000Y-63627000D01*
X108377000Y-64180250D01*
X108478750Y-64282000D01*
X108730957Y-64282000D01*
X108880547Y-64220038D01*
X108995038Y-64105547D01*
X109002506Y-64087518D01*
X109056570Y-64168430D01*
X109191197Y-64258385D01*
X109350000Y-64289973D01*
X110150000Y-64289973D01*
X110308803Y-64258385D01*
X110443430Y-64168430D01*
X110533385Y-64033803D01*
X110533744Y-64032000D01*
X110735027Y-64032000D01*
X110735027Y-64650000D01*
X110766615Y-64808803D01*
X110856570Y-64943430D01*
X110991197Y-65033385D01*
X111150000Y-65064973D01*
X111432665Y-65064973D01*
X111000000Y-65497638D01*
X110876181Y-65373819D01*
X110830789Y-65343489D01*
X110703588Y-65258496D01*
X110500000Y-65218000D01*
X109866749Y-65218000D01*
X109866749Y-64800126D01*
X109835161Y-64641323D01*
X109745206Y-64506696D01*
X109610579Y-64416741D01*
X109451776Y-64385153D01*
X108151776Y-64385153D01*
X107992973Y-64416741D01*
X107858346Y-64506696D01*
X107768391Y-64641323D01*
X107736803Y-64800126D01*
X107736803Y-66300126D01*
X107768391Y-66458929D01*
X107858346Y-66593556D01*
X107992973Y-66683511D01*
X108151776Y-66715099D01*
X109451776Y-66715099D01*
X109610579Y-66683511D01*
X109745206Y-66593556D01*
X109835161Y-66458929D01*
X109866749Y-66300126D01*
X109866749Y-66282000D01*
X110279638Y-66282000D01*
X110582791Y-66585153D01*
X110501777Y-66585153D01*
X110342974Y-66616741D01*
X110208347Y-66706696D01*
X110118392Y-66841323D01*
X110086804Y-67000126D01*
X110086804Y-69000126D01*
X110118392Y-69158929D01*
X110208347Y-69293556D01*
X110342974Y-69383511D01*
X110501777Y-69415099D01*
X112001777Y-69415099D01*
X112160580Y-69383511D01*
X112295207Y-69293556D01*
X112385162Y-69158929D01*
X112401777Y-69075400D01*
X112418392Y-69158929D01*
X112508347Y-69293556D01*
X112642974Y-69383511D01*
X112801777Y-69415099D01*
X114301777Y-69415099D01*
X114460580Y-69383511D01*
X114468000Y-69378553D01*
X114468000Y-69779639D01*
X113779638Y-70468000D01*
X107474098Y-70468000D01*
X106768125Y-69762027D01*
X106633498Y-69672072D01*
X106474695Y-69640484D01*
X106315892Y-69672072D01*
X106181265Y-69762027D01*
X105262027Y-70681265D01*
X105172072Y-70815892D01*
X105140484Y-70974695D01*
X105172072Y-71133498D01*
X105262027Y-71268125D01*
X106322687Y-72328785D01*
X106457314Y-72418740D01*
X106476689Y-72422594D01*
X102425550Y-72422594D01*
X102113050Y-72109548D01*
X101683549Y-71931203D01*
X101218492Y-71930798D01*
X100788680Y-72108392D01*
X100732000Y-72164973D01*
X100732000Y-68478876D01*
X107744776Y-68478876D01*
X107744776Y-69081083D01*
X107806738Y-69230673D01*
X107921229Y-69345164D01*
X108070818Y-69407126D01*
X108573026Y-69407126D01*
X108674776Y-69305376D01*
X108674776Y-68377126D01*
X108928776Y-68377126D01*
X108928776Y-69305376D01*
X109030526Y-69407126D01*
X109532734Y-69407126D01*
X109682323Y-69345164D01*
X109796814Y-69230673D01*
X109858776Y-69081083D01*
X109858776Y-68478876D01*
X109757026Y-68377126D01*
X108928776Y-68377126D01*
X108674776Y-68377126D01*
X107846526Y-68377126D01*
X107744776Y-68478876D01*
X100732000Y-68478876D01*
X100732000Y-67419169D01*
X107744776Y-67419169D01*
X107744776Y-68021376D01*
X107846526Y-68123126D01*
X108674776Y-68123126D01*
X108674776Y-67194876D01*
X108928776Y-67194876D01*
X108928776Y-68123126D01*
X109757026Y-68123126D01*
X109858776Y-68021376D01*
X109858776Y-67419169D01*
X109796814Y-67269579D01*
X109682323Y-67155088D01*
X109532734Y-67093126D01*
X109030526Y-67093126D01*
X108928776Y-67194876D01*
X108674776Y-67194876D01*
X108573026Y-67093126D01*
X108070818Y-67093126D01*
X107921229Y-67155088D01*
X107806738Y-67269579D01*
X107744776Y-67419169D01*
X100732000Y-67419169D01*
X100732000Y-62734362D01*
X103373819Y-65376181D01*
X103436406Y-65418000D01*
X103300000Y-65418000D01*
X103165238Y-65444806D01*
X103161226Y-65443140D01*
X102840182Y-65442860D01*
X102543468Y-65565460D01*
X102316258Y-65792274D01*
X102193140Y-66088774D01*
X102192860Y-66409818D01*
X102315460Y-66706532D01*
X102542274Y-66933742D01*
X102838774Y-67056860D01*
X103159818Y-67057140D01*
X103456532Y-66934540D01*
X103683742Y-66707726D01*
X103777472Y-66482000D01*
X105661284Y-66482000D01*
X105666615Y-66508803D01*
X105756570Y-66643430D01*
X105891197Y-66733385D01*
X106050000Y-66764973D01*
X106950000Y-66764973D01*
X107108803Y-66733385D01*
X107243430Y-66643430D01*
X107333385Y-66508803D01*
X107364973Y-66350000D01*
X107364973Y-65550000D01*
X107333385Y-65391197D01*
X107243430Y-65256570D01*
X107108803Y-65166615D01*
X106950000Y-65135027D01*
X106050000Y-65135027D01*
X105891197Y-65166615D01*
X105756570Y-65256570D01*
X105666615Y-65391197D01*
X105661284Y-65418000D01*
X105361393Y-65418000D01*
X105364973Y-65400000D01*
X105364973Y-64600000D01*
X105333385Y-64441197D01*
X105243430Y-64306570D01*
X105201795Y-64278750D01*
X105643000Y-64278750D01*
X105643000Y-64530958D01*
X105704962Y-64680547D01*
X105819453Y-64795038D01*
X105969043Y-64857000D01*
X106271250Y-64857000D01*
X106373000Y-64755250D01*
X106373000Y-64177000D01*
X106627000Y-64177000D01*
X106627000Y-64755250D01*
X106728750Y-64857000D01*
X107030957Y-64857000D01*
X107180547Y-64795038D01*
X107295038Y-64680547D01*
X107357000Y-64530958D01*
X107357000Y-64278750D01*
X107255250Y-64177000D01*
X106627000Y-64177000D01*
X106373000Y-64177000D01*
X105744750Y-64177000D01*
X105643000Y-64278750D01*
X105201795Y-64278750D01*
X105108803Y-64216615D01*
X104950000Y-64185027D01*
X104050000Y-64185027D01*
X103891197Y-64216615D01*
X103787959Y-64285597D01*
X101532000Y-62029638D01*
X101532000Y-61423450D01*
X101542274Y-61433742D01*
X101838774Y-61556860D01*
X102159818Y-61557140D01*
X102335027Y-61484745D01*
X102335027Y-61875000D01*
X102366615Y-62033803D01*
X102456570Y-62168430D01*
X102591197Y-62258385D01*
X102750000Y-62289973D01*
X103750000Y-62289973D01*
X103908803Y-62258385D01*
X104043430Y-62168430D01*
X104133385Y-62033803D01*
X104164973Y-61875000D01*
X104164973Y-59295000D01*
X104133385Y-59136197D01*
X104063763Y-59032000D01*
X104250000Y-59032000D01*
X104453588Y-58991504D01*
X104626181Y-58876181D01*
X105382388Y-58119973D01*
X105750000Y-58119973D01*
X105908803Y-58088385D01*
X106043430Y-57998430D01*
X106133385Y-57863803D01*
X106164973Y-57705000D01*
X106164973Y-55125000D01*
X106133385Y-54966197D01*
X106043430Y-54831570D01*
X105908803Y-54741615D01*
X105750000Y-54710027D01*
X104750000Y-54710027D01*
X104591197Y-54741615D01*
X104456570Y-54831570D01*
X104366615Y-54966197D01*
X104335027Y-55125000D01*
X104335027Y-57662611D01*
X104118335Y-57879304D01*
X104157000Y-57785957D01*
X104157000Y-56643750D01*
X104055250Y-56542000D01*
X103377000Y-56542000D01*
X103377000Y-56562000D01*
X103123000Y-56562000D01*
X103123000Y-56542000D01*
X102444750Y-56542000D01*
X102343000Y-56643750D01*
X102343000Y-57139900D01*
X102113050Y-56909548D01*
X101683549Y-56731203D01*
X101218492Y-56730798D01*
X100788680Y-56908392D01*
X100732000Y-56964973D01*
X100732000Y-55044043D01*
X102343000Y-55044043D01*
X102343000Y-56186250D01*
X102444750Y-56288000D01*
X103123000Y-56288000D01*
X103123000Y-54819750D01*
X103377000Y-54819750D01*
X103377000Y-56288000D01*
X104055250Y-56288000D01*
X104157000Y-56186250D01*
X104157000Y-55044043D01*
X104095038Y-54894453D01*
X103980547Y-54779962D01*
X103830958Y-54718000D01*
X103478750Y-54718000D01*
X103377000Y-54819750D01*
X103123000Y-54819750D01*
X103021250Y-54718000D01*
X102669042Y-54718000D01*
X102519453Y-54779962D01*
X102404962Y-54894453D01*
X102343000Y-55044043D01*
X100732000Y-55044043D01*
X100732000Y-53232000D01*
X109126637Y-53232000D01*
X109066258Y-53292274D01*
M02*
