G04 #@! TF.GenerationSoftware,KiCad,Pcbnew,no-vcs-found-33e0758~58~ubuntu16.04.1*
G04 #@! TF.CreationDate,2018-03-21T11:11:48+01:00*
G04 #@! TF.ProjectId,dropbuzzer,64726F7062757A7A65722E6B69636164,rev?*
G04 #@! TF.FileFunction,Soldermask,Top*
G04 #@! TF.FilePolarity,Negative*
%FSLAX46Y46*%
G04 Gerber Fmt 4.6, Leading zero omitted, Abs format (unit mm)*
G04 Created by KiCad (PCBNEW no-vcs-found-33e0758~58~ubuntu16.04.1) date Wed Mar 21 11:11:48 2018*
%MOMM*%
%LPD*%
G01*
G04 APERTURE LIST*
%ADD10C,0.100000*%
%ADD11C,4.800000*%
%ADD12C,1.924000*%
%ADD13O,2.900000X1.300000*%
%ADD14O,1.300000X2.900000*%
%ADD15R,6.400000X6.400000*%
%ADD16R,1.750000X1.750000*%
%ADD17O,1.750000X1.750000*%
G04 APERTURE END LIST*
D10*
D11*
X103000000Y-76500000D03*
D12*
X101450000Y-73100000D03*
X101450000Y-57900000D03*
D11*
X123750000Y-76500000D03*
D13*
X123000000Y-54250000D03*
X123000000Y-55520000D03*
X123000000Y-56790000D03*
X123000000Y-58060000D03*
X123000000Y-59330000D03*
X123000000Y-60600000D03*
X123000000Y-61870000D03*
X123000000Y-63140000D03*
X123000000Y-64410000D03*
X123000000Y-65680000D03*
X123000000Y-66950000D03*
X123000000Y-68220000D03*
X123000000Y-69490000D03*
X123000000Y-70760000D03*
D14*
X119715000Y-72250000D03*
X118445000Y-72250000D03*
X117175000Y-72250000D03*
X115905000Y-72250000D03*
X114635000Y-72250000D03*
X113365000Y-72250000D03*
X112095000Y-72250000D03*
X110825000Y-72250000D03*
X109555000Y-72250000D03*
X108285000Y-72250000D03*
D13*
X105000000Y-70760000D03*
X105000000Y-69490000D03*
X105000000Y-68220000D03*
X105000000Y-66950000D03*
X105000000Y-65680000D03*
X105000000Y-64410000D03*
X105000000Y-63140000D03*
X105000000Y-61870000D03*
X105000000Y-60600000D03*
X105000000Y-59330000D03*
X105000000Y-58060000D03*
X105000000Y-56790000D03*
X105000000Y-55520000D03*
X105000000Y-54250000D03*
D15*
X113700000Y-61950000D03*
D16*
X119500000Y-77250000D03*
D17*
X119500000Y-75250000D03*
M02*
