G04 #@! TF.GenerationSoftware,KiCad,Pcbnew,no-vcs-found-33e0758~58~ubuntu16.04.1*
G04 #@! TF.CreationDate,2018-03-21T11:11:48+01:00*
G04 #@! TF.ProjectId,dropbuzzer,64726F7062757A7A65722E6B69636164,rev?*
G04 #@! TF.FileFunction,Legend,Bot*
G04 #@! TF.FilePolarity,Positive*
%FSLAX46Y46*%
G04 Gerber Fmt 4.6, Leading zero omitted, Abs format (unit mm)*
G04 Created by KiCad (PCBNEW no-vcs-found-33e0758~58~ubuntu16.04.1) date Wed Mar 21 11:11:48 2018*
%MOMM*%
%LPD*%
G01*
G04 APERTURE LIST*
%ADD10C,0.100000*%
%ADD11C,0.200000*%
%ADD12C,0.300000*%
%ADD13C,0.120000*%
%ADD14C,0.150000*%
G04 APERTURE END LIST*
D10*
D11*
X107160746Y-78027806D02*
G75*
G03X107836433Y-75027905I-1534021J1921563D01*
G01*
X107759229Y-75089012D02*
G75*
G03X108030887Y-78086142I1155541J-1406139D01*
G01*
X109149896Y-76778174D02*
G75*
G03X109149896Y-76778174I-1225255J0D01*
G01*
X108119275Y-78139174D02*
G75*
G03X107897667Y-77235933I303391J553242D01*
G01*
X117500000Y-53500000D02*
X117500000Y-53750000D01*
X119000000Y-53500000D02*
X117500000Y-53500000D01*
X119000000Y-53750000D02*
X119000000Y-53500000D01*
X119000000Y-56750000D02*
X119000000Y-53750000D01*
X117500000Y-56750000D02*
X119000000Y-56750000D01*
X117500000Y-53750000D02*
X117500000Y-56750000D01*
X104000000Y-54750000D02*
X104000000Y-55000000D01*
X102500000Y-54750000D02*
X104000000Y-54750000D01*
X102500000Y-55000000D02*
X102500000Y-54750000D01*
X104000000Y-58000000D02*
X104000000Y-55000000D01*
X102500000Y-58000000D02*
X104000000Y-58000000D01*
X102500000Y-55000000D02*
X102500000Y-58000000D01*
D12*
X104071428Y-73107142D02*
X102928571Y-73107142D01*
X103500000Y-73678571D02*
X103500000Y-72535714D01*
X118071428Y-75357142D02*
X116928571Y-75357142D01*
X117500000Y-75928571D02*
X117500000Y-74785714D01*
X116928571Y-77392857D02*
X118071428Y-77392857D01*
D13*
X106010000Y-60560000D02*
X106490000Y-60560000D01*
X106010000Y-56440000D02*
X106490000Y-56440000D01*
X104010000Y-60560000D02*
X104490000Y-60560000D01*
X104010000Y-56440000D02*
X104490000Y-56440000D01*
X108010000Y-60560000D02*
X108310000Y-60560000D01*
X108010000Y-56440000D02*
X108310000Y-56440000D01*
X102190000Y-60560000D02*
X102490000Y-60560000D01*
X102190000Y-56440000D02*
X102490000Y-56440000D01*
X102490000Y-55185000D02*
X102490000Y-56440000D01*
X108310000Y-56440000D02*
X108310000Y-60560000D01*
X102190000Y-56440000D02*
X102190000Y-60560000D01*
X117190000Y-55190000D02*
X117190000Y-59310000D01*
X125310000Y-55190000D02*
X125310000Y-59310000D01*
X117490000Y-53935000D02*
X117490000Y-55190000D01*
X117190000Y-55190000D02*
X117490000Y-55190000D01*
X117190000Y-59310000D02*
X117490000Y-59310000D01*
X125010000Y-55190000D02*
X125310000Y-55190000D01*
X125010000Y-59310000D02*
X125310000Y-59310000D01*
X119010000Y-55190000D02*
X119490000Y-55190000D01*
X119010000Y-59310000D02*
X119490000Y-59310000D01*
X121010000Y-55190000D02*
X121490000Y-55190000D01*
X121010000Y-59310000D02*
X121490000Y-59310000D01*
X123010000Y-55190000D02*
X123490000Y-55190000D01*
X123010000Y-59310000D02*
X123490000Y-59310000D01*
X104740000Y-66580000D02*
X104740000Y-65650000D01*
X104740000Y-63420000D02*
X104740000Y-64350000D01*
X104740000Y-63420000D02*
X106900000Y-63420000D01*
X104740000Y-66580000D02*
X106200000Y-66580000D01*
X114650000Y-55350000D02*
X115350000Y-55350000D01*
X115350000Y-54150000D02*
X114650000Y-54150000D01*
X112350000Y-54150000D02*
X111650000Y-54150000D01*
X111650000Y-55350000D02*
X112350000Y-55350000D01*
X111650000Y-56850000D02*
X112350000Y-56850000D01*
X112350000Y-55650000D02*
X111650000Y-55650000D01*
X118078249Y-70176777D02*
X118573223Y-70671751D01*
X119421751Y-69823223D02*
X118926777Y-69328249D01*
X109350000Y-62900000D02*
X108650000Y-62900000D01*
X108650000Y-64100000D02*
X109350000Y-64100000D01*
X118671751Y-66073223D02*
X118176777Y-65578249D01*
X117328249Y-66426777D02*
X117823223Y-66921751D01*
X114120000Y-57400000D02*
X114120000Y-58600000D01*
X115880000Y-58600000D02*
X115880000Y-57400000D01*
X122130000Y-68350000D02*
X122130000Y-67150000D01*
X120370000Y-67150000D02*
X120370000Y-68350000D01*
X122870000Y-64900000D02*
X122870000Y-66100000D01*
X124630000Y-66100000D02*
X124630000Y-64900000D01*
X106453482Y-72197990D02*
X107302010Y-73046518D01*
X108546518Y-71802010D02*
X107697990Y-70953482D01*
X109681776Y-67500126D02*
X109681776Y-66300126D01*
X107921776Y-66300126D02*
X107921776Y-67500126D01*
X112650000Y-64880000D02*
X113850000Y-64880000D01*
X113850000Y-63120000D02*
X112650000Y-63120000D01*
X110141777Y-67050126D02*
X110141777Y-73060126D01*
X116961777Y-69300126D02*
X116961777Y-73060126D01*
X110141777Y-73060126D02*
X111401777Y-73060126D01*
X116961777Y-73060126D02*
X115701777Y-73060126D01*
D14*
X100702380Y-56666666D02*
X101416666Y-56666666D01*
X101559523Y-56619047D01*
X101654761Y-56523809D01*
X101702380Y-56380952D01*
X101702380Y-56285714D01*
X101035714Y-57571428D02*
X101702380Y-57571428D01*
X100654761Y-57333333D02*
X101369047Y-57095238D01*
X101369047Y-57714285D01*
X115952380Y-56916666D02*
X116666666Y-56916666D01*
X116809523Y-56869047D01*
X116904761Y-56773809D01*
X116952380Y-56630952D01*
X116952380Y-56535714D01*
X116952380Y-57916666D02*
X116952380Y-57345238D01*
X116952380Y-57630952D02*
X115952380Y-57630952D01*
X116095238Y-57535714D01*
X116190476Y-57440476D01*
X116238095Y-57345238D01*
X105095238Y-67797619D02*
X105190476Y-67750000D01*
X105285714Y-67654761D01*
X105428571Y-67511904D01*
X105523809Y-67464285D01*
X105619047Y-67464285D01*
X105571428Y-67702380D02*
X105666666Y-67654761D01*
X105761904Y-67559523D01*
X105809523Y-67369047D01*
X105809523Y-67035714D01*
X105761904Y-66845238D01*
X105666666Y-66750000D01*
X105571428Y-66702380D01*
X105380952Y-66702380D01*
X105285714Y-66750000D01*
X105190476Y-66845238D01*
X105142857Y-67035714D01*
X105142857Y-67369047D01*
X105190476Y-67559523D01*
X105285714Y-67654761D01*
X105380952Y-67702380D01*
X105571428Y-67702380D01*
X104190476Y-67702380D02*
X104761904Y-67702380D01*
X104476190Y-67702380D02*
X104476190Y-66702380D01*
X104571428Y-66845238D01*
X104666666Y-66940476D01*
X104761904Y-66988095D01*
X115166666Y-53857142D02*
X115214285Y-53904761D01*
X115357142Y-53952380D01*
X115452380Y-53952380D01*
X115595238Y-53904761D01*
X115690476Y-53809523D01*
X115738095Y-53714285D01*
X115785714Y-53523809D01*
X115785714Y-53380952D01*
X115738095Y-53190476D01*
X115690476Y-53095238D01*
X115595238Y-53000000D01*
X115452380Y-52952380D01*
X115357142Y-52952380D01*
X115214285Y-53000000D01*
X115166666Y-53047619D01*
X114214285Y-53952380D02*
X114785714Y-53952380D01*
X114500000Y-53952380D02*
X114500000Y-52952380D01*
X114595238Y-53095238D01*
X114690476Y-53190476D01*
X114785714Y-53238095D01*
X112416666Y-53857142D02*
X112464285Y-53904761D01*
X112607142Y-53952380D01*
X112702380Y-53952380D01*
X112845238Y-53904761D01*
X112940476Y-53809523D01*
X112988095Y-53714285D01*
X113035714Y-53523809D01*
X113035714Y-53380952D01*
X112988095Y-53190476D01*
X112940476Y-53095238D01*
X112845238Y-53000000D01*
X112702380Y-52952380D01*
X112607142Y-52952380D01*
X112464285Y-53000000D01*
X112416666Y-53047619D01*
X112035714Y-53047619D02*
X111988095Y-53000000D01*
X111892857Y-52952380D01*
X111654761Y-52952380D01*
X111559523Y-53000000D01*
X111511904Y-53047619D01*
X111464285Y-53142857D01*
X111464285Y-53238095D01*
X111511904Y-53380952D01*
X112083333Y-53952380D01*
X111464285Y-53952380D01*
X112166666Y-58107142D02*
X112214285Y-58154761D01*
X112357142Y-58202380D01*
X112452380Y-58202380D01*
X112595238Y-58154761D01*
X112690476Y-58059523D01*
X112738095Y-57964285D01*
X112785714Y-57773809D01*
X112785714Y-57630952D01*
X112738095Y-57440476D01*
X112690476Y-57345238D01*
X112595238Y-57250000D01*
X112452380Y-57202380D01*
X112357142Y-57202380D01*
X112214285Y-57250000D01*
X112166666Y-57297619D01*
X111833333Y-57202380D02*
X111214285Y-57202380D01*
X111547619Y-57583333D01*
X111404761Y-57583333D01*
X111309523Y-57630952D01*
X111261904Y-57678571D01*
X111214285Y-57773809D01*
X111214285Y-58011904D01*
X111261904Y-58107142D01*
X111309523Y-58154761D01*
X111404761Y-58202380D01*
X111690476Y-58202380D01*
X111785714Y-58154761D01*
X111833333Y-58107142D01*
X117865311Y-71620389D02*
X117865311Y-71687732D01*
X117932655Y-71822419D01*
X117999999Y-71889763D01*
X118134686Y-71957106D01*
X118269373Y-71957106D01*
X118370388Y-71923435D01*
X118538747Y-71822419D01*
X118639762Y-71721404D01*
X118740777Y-71553045D01*
X118774449Y-71452030D01*
X118774449Y-71317343D01*
X118707105Y-71182656D01*
X118639762Y-71115312D01*
X118505075Y-71047969D01*
X118437731Y-71047969D01*
X117663281Y-70610236D02*
X117191876Y-71081641D01*
X118101014Y-70509221D02*
X117764296Y-71182656D01*
X117326563Y-70744923D01*
X109166666Y-62607142D02*
X109214285Y-62654761D01*
X109357142Y-62702380D01*
X109452380Y-62702380D01*
X109595238Y-62654761D01*
X109690476Y-62559523D01*
X109738095Y-62464285D01*
X109785714Y-62273809D01*
X109785714Y-62130952D01*
X109738095Y-61940476D01*
X109690476Y-61845238D01*
X109595238Y-61750000D01*
X109452380Y-61702380D01*
X109357142Y-61702380D01*
X109214285Y-61750000D01*
X109166666Y-61797619D01*
X108261904Y-61702380D02*
X108738095Y-61702380D01*
X108785714Y-62178571D01*
X108738095Y-62130952D01*
X108642857Y-62083333D01*
X108404761Y-62083333D01*
X108309523Y-62130952D01*
X108261904Y-62178571D01*
X108214285Y-62273809D01*
X108214285Y-62511904D01*
X108261904Y-62607142D01*
X108309523Y-62654761D01*
X108404761Y-62702380D01*
X108642857Y-62702380D01*
X108738095Y-62654761D01*
X108785714Y-62607142D01*
X118865312Y-65370389D02*
X118865312Y-65437732D01*
X118932656Y-65572419D01*
X119000000Y-65639763D01*
X119134687Y-65707106D01*
X119269374Y-65707106D01*
X119370389Y-65673435D01*
X119538748Y-65572419D01*
X119639763Y-65471404D01*
X119740778Y-65303045D01*
X119774450Y-65202030D01*
X119774450Y-65067343D01*
X119707106Y-64932656D01*
X119639763Y-64865312D01*
X119505076Y-64797969D01*
X119437732Y-64797969D01*
X118898984Y-64124534D02*
X119033671Y-64259221D01*
X119067343Y-64360236D01*
X119067343Y-64427580D01*
X119033671Y-64595938D01*
X118932656Y-64764297D01*
X118663282Y-65033671D01*
X118562267Y-65067343D01*
X118494923Y-65067343D01*
X118393908Y-65033671D01*
X118259221Y-64898984D01*
X118225549Y-64797969D01*
X118225549Y-64730625D01*
X118259221Y-64629610D01*
X118427580Y-64461251D01*
X118528595Y-64427580D01*
X118595938Y-64427580D01*
X118696954Y-64461251D01*
X118831641Y-64595938D01*
X118865312Y-64696954D01*
X118865312Y-64764297D01*
X118831641Y-64865312D01*
X113952380Y-58583333D02*
X113476190Y-58250000D01*
X113952380Y-58011904D02*
X112952380Y-58011904D01*
X112952380Y-58392857D01*
X113000000Y-58488095D01*
X113047619Y-58535714D01*
X113142857Y-58583333D01*
X113285714Y-58583333D01*
X113380952Y-58535714D01*
X113428571Y-58488095D01*
X113476190Y-58392857D01*
X113476190Y-58011904D01*
X113952380Y-59535714D02*
X113952380Y-58964285D01*
X113952380Y-59250000D02*
X112952380Y-59250000D01*
X113095238Y-59154761D01*
X113190476Y-59059523D01*
X113238095Y-58964285D01*
X120202380Y-68083333D02*
X119726190Y-67750000D01*
X120202380Y-67511904D02*
X119202380Y-67511904D01*
X119202380Y-67892857D01*
X119250000Y-67988095D01*
X119297619Y-68035714D01*
X119392857Y-68083333D01*
X119535714Y-68083333D01*
X119630952Y-68035714D01*
X119678571Y-67988095D01*
X119726190Y-67892857D01*
X119726190Y-67511904D01*
X119297619Y-68464285D02*
X119250000Y-68511904D01*
X119202380Y-68607142D01*
X119202380Y-68845238D01*
X119250000Y-68940476D01*
X119297619Y-68988095D01*
X119392857Y-69035714D01*
X119488095Y-69035714D01*
X119630952Y-68988095D01*
X120202380Y-68416666D01*
X120202380Y-69035714D01*
X125702380Y-65333333D02*
X125226190Y-65000000D01*
X125702380Y-64761904D02*
X124702380Y-64761904D01*
X124702380Y-65142857D01*
X124750000Y-65238095D01*
X124797619Y-65285714D01*
X124892857Y-65333333D01*
X125035714Y-65333333D01*
X125130952Y-65285714D01*
X125178571Y-65238095D01*
X125226190Y-65142857D01*
X125226190Y-64761904D01*
X124702380Y-65666666D02*
X124702380Y-66285714D01*
X125083333Y-65952380D01*
X125083333Y-66095238D01*
X125130952Y-66190476D01*
X125178571Y-66238095D01*
X125273809Y-66285714D01*
X125511904Y-66285714D01*
X125607142Y-66238095D01*
X125654761Y-66190476D01*
X125702380Y-66095238D01*
X125702380Y-65809523D01*
X125654761Y-65714285D01*
X125607142Y-65666666D01*
X106047969Y-73437732D02*
X106620389Y-73336717D01*
X106452030Y-73841793D02*
X107159137Y-73134687D01*
X106889763Y-72865312D01*
X106788748Y-72831641D01*
X106721404Y-72831641D01*
X106620389Y-72865312D01*
X106519374Y-72966328D01*
X106485702Y-73067343D01*
X106485702Y-73134687D01*
X106519374Y-73235702D01*
X106788748Y-73505076D01*
X105913282Y-72360236D02*
X105441877Y-72831641D01*
X106351015Y-72259221D02*
X106014297Y-72932656D01*
X105576564Y-72494923D01*
X107702380Y-68583333D02*
X107226190Y-68250000D01*
X107702380Y-68011904D02*
X106702380Y-68011904D01*
X106702380Y-68392857D01*
X106750000Y-68488095D01*
X106797619Y-68535714D01*
X106892857Y-68583333D01*
X107035714Y-68583333D01*
X107130952Y-68535714D01*
X107178571Y-68488095D01*
X107226190Y-68392857D01*
X107226190Y-68011904D01*
X106702380Y-69488095D02*
X106702380Y-69011904D01*
X107178571Y-68964285D01*
X107130952Y-69011904D01*
X107083333Y-69107142D01*
X107083333Y-69345238D01*
X107130952Y-69440476D01*
X107178571Y-69488095D01*
X107273809Y-69535714D01*
X107511904Y-69535714D01*
X107607142Y-69488095D01*
X107654761Y-69440476D01*
X107702380Y-69345238D01*
X107702380Y-69107142D01*
X107654761Y-69011904D01*
X107607142Y-68964285D01*
X113416666Y-62702380D02*
X113750000Y-62226190D01*
X113988095Y-62702380D02*
X113988095Y-61702380D01*
X113607142Y-61702380D01*
X113511904Y-61750000D01*
X113464285Y-61797619D01*
X113416666Y-61892857D01*
X113416666Y-62035714D01*
X113464285Y-62130952D01*
X113511904Y-62178571D01*
X113607142Y-62226190D01*
X113988095Y-62226190D01*
X112559523Y-61702380D02*
X112750000Y-61702380D01*
X112845238Y-61750000D01*
X112892857Y-61797619D01*
X112988095Y-61940476D01*
X113035714Y-62130952D01*
X113035714Y-62511904D01*
X112988095Y-62607142D01*
X112940476Y-62654761D01*
X112845238Y-62702380D01*
X112654761Y-62702380D01*
X112559523Y-62654761D01*
X112511904Y-62607142D01*
X112464285Y-62511904D01*
X112464285Y-62273809D01*
X112511904Y-62178571D01*
X112559523Y-62130952D01*
X112654761Y-62083333D01*
X112845238Y-62083333D01*
X112940476Y-62130952D01*
X112988095Y-62178571D01*
X113035714Y-62273809D01*
X108504156Y-70388221D02*
X109313680Y-70388221D01*
X109408918Y-70435840D01*
X109456537Y-70483459D01*
X109504156Y-70578697D01*
X109504156Y-70769173D01*
X109456537Y-70864411D01*
X109408918Y-70912030D01*
X109313680Y-70959649D01*
X108504156Y-70959649D01*
X108599395Y-71388221D02*
X108551776Y-71435840D01*
X108504156Y-71531078D01*
X108504156Y-71769173D01*
X108551776Y-71864411D01*
X108599395Y-71912030D01*
X108694633Y-71959649D01*
X108789871Y-71959649D01*
X108932728Y-71912030D01*
X109504156Y-71340602D01*
X109504156Y-71959649D01*
M02*
