%FSLAX45Y45*%
G04 Gerber Fmt 4.5, Leading zero omitted, Abs format (unit mm)*
G04 Created by KiCad (PCBNEW no-vcs-found-33e0758~58~ubuntu16.04.1) date Wed Mar 21 11:12:09 2018*
%MOMM*%
%LPD*%
G01*
G04 APERTURE LIST*
%ADD10C,0.127000*%
%ADD11C,0.150000*%
%ADD12C,0.200000*%
%ADD13C,0.300000*%
G04 APERTURE END LIST*
D10*
D11*
X10025000Y-5275000D02*
X10025000Y-7925000D01*
X12650000Y-5275000D02*
X10025000Y-5275000D01*
X12650000Y-7925000D02*
X12650000Y-5275000D01*
X10025000Y-7925000D02*
X12650000Y-7925000D01*
D12*
X10180000Y-6055000D02*
X10220000Y-6095000D01*
X10220000Y-6055000D02*
X10180000Y-6095000D01*
X10280000Y-5830000D02*
X10320000Y-5870000D01*
X10320000Y-5830000D02*
X10280000Y-5870000D01*
X10280000Y-6605000D02*
X10320000Y-6645000D01*
X10320000Y-6605000D02*
X10280000Y-6645000D01*
X10680000Y-6255000D02*
X10720000Y-6295000D01*
X10720000Y-6255000D02*
X10680000Y-6295000D01*
X10730000Y-5830000D02*
X10770000Y-5870000D01*
X10770000Y-5830000D02*
X10730000Y-5870000D01*
X10830000Y-6980000D02*
X10870000Y-7020000D01*
X10870000Y-6980000D02*
X10830000Y-7020000D01*
X10905000Y-5530000D02*
X10945000Y-5570000D01*
X10945000Y-5530000D02*
X10905000Y-5570000D01*
X10955000Y-5355000D02*
X10995000Y-5395000D01*
X10995000Y-5355000D02*
X10955000Y-5395000D01*
X11330000Y-5730000D02*
X11370000Y-5770000D01*
X11370000Y-5730000D02*
X11330000Y-5770000D01*
X11655000Y-5405000D02*
X11695000Y-5445000D01*
X11695000Y-5405000D02*
X11655000Y-5445000D01*
X11705000Y-5705000D02*
X11745000Y-5745000D01*
X11745000Y-5705000D02*
X11705000Y-5745000D01*
X12055000Y-6155000D02*
X12095000Y-6195000D01*
X12095000Y-6155000D02*
X12055000Y-6195000D01*
X12080000Y-5705000D02*
X12120000Y-5745000D01*
X12120000Y-5705000D02*
X12080000Y-5745000D01*
X12080000Y-7255000D02*
X12120000Y-7295000D01*
X12120000Y-7255000D02*
X12080000Y-7295000D01*
X12105000Y-5330000D02*
X12145000Y-5370000D01*
X12145000Y-5330000D02*
X12105000Y-5370000D01*
X12455000Y-6105000D02*
X12495000Y-6145000D01*
X12495000Y-6105000D02*
X12455000Y-6145000D01*
X12480000Y-6830000D02*
X12520000Y-6870000D01*
X12520000Y-6830000D02*
X12480000Y-6870000D01*
X10183100Y-5790000D02*
G75*
G03X10183100Y-5790000I-38100J0D01*
G01*
X10183100Y-7310000D02*
G75*
G03X10183100Y-7310000I-38100J0D01*
G01*
X11950000Y-7485000D02*
X11950000Y-7565000D01*
X11910000Y-7525000D02*
X11990000Y-7525000D01*
X11950000Y-7685000D02*
X11950000Y-7765000D01*
X11910000Y-7725000D02*
X11990000Y-7725000D01*
X10377783Y-7727782D02*
X10377783Y-7572217D01*
X10222218Y-7572217D01*
X10222218Y-7727782D01*
X10377783Y-7727782D01*
X12452782Y-7727782D02*
X12452782Y-7572217D01*
X12297217Y-7572217D01*
X12297217Y-7727782D01*
X12452782Y-7727782D01*
D13*
X10303928Y-8398214D02*
X10303928Y-8098214D01*
X10375357Y-8098214D01*
X10418214Y-8112500D01*
X10446786Y-8141071D01*
X10461071Y-8169643D01*
X10475357Y-8226786D01*
X10475357Y-8269643D01*
X10461071Y-8326786D01*
X10446786Y-8355357D01*
X10418214Y-8383929D01*
X10375357Y-8398214D01*
X10303928Y-8398214D01*
X10603928Y-8398214D02*
X10603928Y-8198214D01*
X10603928Y-8255357D02*
X10618214Y-8226786D01*
X10632500Y-8212500D01*
X10661071Y-8198214D01*
X10689643Y-8198214D01*
X10789643Y-8398214D02*
X10789643Y-8198214D01*
X10789643Y-8098214D02*
X10775357Y-8112500D01*
X10789643Y-8126786D01*
X10803928Y-8112500D01*
X10789643Y-8098214D01*
X10789643Y-8126786D01*
X10975357Y-8398214D02*
X10946786Y-8383929D01*
X10932500Y-8355357D01*
X10932500Y-8098214D01*
X11132500Y-8398214D02*
X11103928Y-8383929D01*
X11089643Y-8355357D01*
X11089643Y-8098214D01*
X11475357Y-8398214D02*
X11475357Y-8098214D01*
X11575357Y-8312500D01*
X11675357Y-8098214D01*
X11675357Y-8398214D01*
X11946786Y-8398214D02*
X11946786Y-8241071D01*
X11932500Y-8212500D01*
X11903928Y-8198214D01*
X11846786Y-8198214D01*
X11818214Y-8212500D01*
X11946786Y-8383929D02*
X11918214Y-8398214D01*
X11846786Y-8398214D01*
X11818214Y-8383929D01*
X11803928Y-8355357D01*
X11803928Y-8326786D01*
X11818214Y-8298214D01*
X11846786Y-8283929D01*
X11918214Y-8283929D01*
X11946786Y-8269643D01*
X12089643Y-8198214D02*
X12089643Y-8498214D01*
X12089643Y-8212500D02*
X12118214Y-8198214D01*
X12175357Y-8198214D01*
X12203928Y-8212500D01*
X12218214Y-8226786D01*
X12232500Y-8255357D01*
X12232500Y-8341071D01*
X12218214Y-8369643D01*
X12203928Y-8383929D01*
X12175357Y-8398214D01*
X12118214Y-8398214D01*
X12089643Y-8383929D01*
X12361071Y-8369643D02*
X12375357Y-8383929D01*
X12361071Y-8398214D01*
X12346786Y-8383929D01*
X12361071Y-8369643D01*
X12361071Y-8398214D01*
X12361071Y-8212500D02*
X12375357Y-8226786D01*
X12361071Y-8241071D01*
X12346786Y-8226786D01*
X12361071Y-8212500D01*
X12361071Y-8241071D01*
X9977500Y-8872500D02*
X10017500Y-8912500D01*
X10017500Y-8872500D02*
X9977500Y-8912500D01*
X10361071Y-8728214D02*
X10389643Y-8728214D01*
X10418214Y-8742500D01*
X10432500Y-8756786D01*
X10446786Y-8785357D01*
X10461071Y-8842500D01*
X10461071Y-8913929D01*
X10446786Y-8971072D01*
X10432500Y-8999643D01*
X10418214Y-9013929D01*
X10389643Y-9028214D01*
X10361071Y-9028214D01*
X10332500Y-9013929D01*
X10318214Y-8999643D01*
X10303928Y-8971072D01*
X10289643Y-8913929D01*
X10289643Y-8842500D01*
X10303928Y-8785357D01*
X10318214Y-8756786D01*
X10332500Y-8742500D01*
X10361071Y-8728214D01*
X10589643Y-8999643D02*
X10603928Y-9013929D01*
X10589643Y-9028214D01*
X10575357Y-9013929D01*
X10589643Y-8999643D01*
X10589643Y-9028214D01*
X10861071Y-8828214D02*
X10861071Y-9028214D01*
X10789643Y-8713929D02*
X10718214Y-8928214D01*
X10903928Y-8928214D01*
X11075357Y-8728214D02*
X11103928Y-8728214D01*
X11132500Y-8742500D01*
X11146786Y-8756786D01*
X11161071Y-8785357D01*
X11175357Y-8842500D01*
X11175357Y-8913929D01*
X11161071Y-8971072D01*
X11146786Y-8999643D01*
X11132500Y-9013929D01*
X11103928Y-9028214D01*
X11075357Y-9028214D01*
X11046786Y-9013929D01*
X11032500Y-8999643D01*
X11018214Y-8971072D01*
X11003928Y-8913929D01*
X11003928Y-8842500D01*
X11018214Y-8785357D01*
X11032500Y-8756786D01*
X11046786Y-8742500D01*
X11075357Y-8728214D01*
X11303928Y-9028214D02*
X11303928Y-8828214D01*
X11303928Y-8856786D02*
X11318214Y-8842500D01*
X11346786Y-8828214D01*
X11389643Y-8828214D01*
X11418214Y-8842500D01*
X11432500Y-8871072D01*
X11432500Y-9028214D01*
X11432500Y-8871072D02*
X11446786Y-8842500D01*
X11475357Y-8828214D01*
X11518214Y-8828214D01*
X11546786Y-8842500D01*
X11561071Y-8871072D01*
X11561071Y-9028214D01*
X11703928Y-9028214D02*
X11703928Y-8828214D01*
X11703928Y-8856786D02*
X11718214Y-8842500D01*
X11746786Y-8828214D01*
X11789643Y-8828214D01*
X11818214Y-8842500D01*
X11832500Y-8871072D01*
X11832500Y-9028214D01*
X11832500Y-8871072D02*
X11846786Y-8842500D01*
X11875357Y-8828214D01*
X11918214Y-8828214D01*
X11946786Y-8842500D01*
X11961071Y-8871072D01*
X11961071Y-9028214D01*
X12546786Y-8713929D02*
X12289643Y-9099643D01*
X12932500Y-8728214D02*
X12961071Y-8728214D01*
X12989643Y-8742500D01*
X13003928Y-8756786D01*
X13018214Y-8785357D01*
X13032500Y-8842500D01*
X13032500Y-8913929D01*
X13018214Y-8971072D01*
X13003928Y-8999643D01*
X12989643Y-9013929D01*
X12961071Y-9028214D01*
X12932500Y-9028214D01*
X12903928Y-9013929D01*
X12889643Y-8999643D01*
X12875357Y-8971072D01*
X12861071Y-8913929D01*
X12861071Y-8842500D01*
X12875357Y-8785357D01*
X12889643Y-8756786D01*
X12903928Y-8742500D01*
X12932500Y-8728214D01*
X13161071Y-8999643D02*
X13175357Y-9013929D01*
X13161071Y-9028214D01*
X13146786Y-9013929D01*
X13161071Y-8999643D01*
X13161071Y-9028214D01*
X13361071Y-8728214D02*
X13389643Y-8728214D01*
X13418214Y-8742500D01*
X13432500Y-8756786D01*
X13446786Y-8785357D01*
X13461071Y-8842500D01*
X13461071Y-8913929D01*
X13446786Y-8971072D01*
X13432500Y-8999643D01*
X13418214Y-9013929D01*
X13389643Y-9028214D01*
X13361071Y-9028214D01*
X13332500Y-9013929D01*
X13318214Y-8999643D01*
X13303928Y-8971072D01*
X13289643Y-8913929D01*
X13289643Y-8842500D01*
X13303928Y-8785357D01*
X13318214Y-8756786D01*
X13332500Y-8742500D01*
X13361071Y-8728214D01*
X13746786Y-9028214D02*
X13575357Y-9028214D01*
X13661071Y-9028214D02*
X13661071Y-8728214D01*
X13632500Y-8771072D01*
X13603928Y-8799643D01*
X13575357Y-8813929D01*
X14003928Y-8728214D02*
X13946786Y-8728214D01*
X13918214Y-8742500D01*
X13903928Y-8756786D01*
X13875357Y-8799643D01*
X13861071Y-8856786D01*
X13861071Y-8971072D01*
X13875357Y-8999643D01*
X13889643Y-9013929D01*
X13918214Y-9028214D01*
X13975357Y-9028214D01*
X14003928Y-9013929D01*
X14018214Y-8999643D01*
X14032500Y-8971072D01*
X14032500Y-8899643D01*
X14018214Y-8871072D01*
X14003928Y-8856786D01*
X13975357Y-8842500D01*
X13918214Y-8842500D01*
X13889643Y-8856786D01*
X13875357Y-8871072D01*
X13861071Y-8899643D01*
X14146786Y-8728214D02*
X14146786Y-8785357D01*
X14261071Y-8728214D02*
X14261071Y-8785357D01*
X14703928Y-9142500D02*
X14689643Y-9128214D01*
X14661071Y-9085357D01*
X14646786Y-9056786D01*
X14632500Y-9013929D01*
X14618214Y-8942500D01*
X14618214Y-8885357D01*
X14632500Y-8813929D01*
X14646786Y-8771072D01*
X14661071Y-8742500D01*
X14689643Y-8699643D01*
X14703928Y-8685357D01*
X14975357Y-9028214D02*
X14803928Y-9028214D01*
X14889643Y-9028214D02*
X14889643Y-8728214D01*
X14861071Y-8771072D01*
X14832500Y-8799643D01*
X14803928Y-8813929D01*
X15075357Y-8728214D02*
X15275357Y-8728214D01*
X15146786Y-9028214D01*
X15618214Y-9028214D02*
X15618214Y-8728214D01*
X15746786Y-9028214D02*
X15746786Y-8871072D01*
X15732500Y-8842500D01*
X15703928Y-8828214D01*
X15661071Y-8828214D01*
X15632500Y-8842500D01*
X15618214Y-8856786D01*
X15932500Y-9028214D02*
X15903928Y-9013929D01*
X15889643Y-8999643D01*
X15875357Y-8971072D01*
X15875357Y-8885357D01*
X15889643Y-8856786D01*
X15903928Y-8842500D01*
X15932500Y-8828214D01*
X15975357Y-8828214D01*
X16003928Y-8842500D01*
X16018214Y-8856786D01*
X16032500Y-8885357D01*
X16032500Y-8971072D01*
X16018214Y-8999643D01*
X16003928Y-9013929D01*
X15975357Y-9028214D01*
X15932500Y-9028214D01*
X16203928Y-9028214D02*
X16175357Y-9013929D01*
X16161071Y-8985357D01*
X16161071Y-8728214D01*
X16432500Y-9013929D02*
X16403928Y-9028214D01*
X16346786Y-9028214D01*
X16318214Y-9013929D01*
X16303928Y-8985357D01*
X16303928Y-8871072D01*
X16318214Y-8842500D01*
X16346786Y-8828214D01*
X16403928Y-8828214D01*
X16432500Y-8842500D01*
X16446786Y-8871072D01*
X16446786Y-8899643D01*
X16303928Y-8928214D01*
X16561071Y-9013929D02*
X16589643Y-9028214D01*
X16646786Y-9028214D01*
X16675357Y-9013929D01*
X16689643Y-8985357D01*
X16689643Y-8971072D01*
X16675357Y-8942500D01*
X16646786Y-8928214D01*
X16603928Y-8928214D01*
X16575357Y-8913929D01*
X16561071Y-8885357D01*
X16561071Y-8871072D01*
X16575357Y-8842500D01*
X16603928Y-8828214D01*
X16646786Y-8828214D01*
X16675357Y-8842500D01*
X16789643Y-9142500D02*
X16803928Y-9128214D01*
X16832500Y-9085357D01*
X16846786Y-9056786D01*
X16861071Y-9013929D01*
X16875357Y-8942500D01*
X16875357Y-8885357D01*
X16861071Y-8813929D01*
X16846786Y-8771072D01*
X16832500Y-8742500D01*
X16803928Y-8699643D01*
X16789643Y-8685357D01*
X10017500Y-9288500D02*
G75*
G03X10017500Y-9288500I-38100J0D01*
G01*
X10361071Y-9124214D02*
X10389643Y-9124214D01*
X10418214Y-9138500D01*
X10432500Y-9152786D01*
X10446786Y-9181357D01*
X10461071Y-9238500D01*
X10461071Y-9309929D01*
X10446786Y-9367072D01*
X10432500Y-9395643D01*
X10418214Y-9409929D01*
X10389643Y-9424214D01*
X10361071Y-9424214D01*
X10332500Y-9409929D01*
X10318214Y-9395643D01*
X10303928Y-9367072D01*
X10289643Y-9309929D01*
X10289643Y-9238500D01*
X10303928Y-9181357D01*
X10318214Y-9152786D01*
X10332500Y-9138500D01*
X10361071Y-9124214D01*
X10589643Y-9395643D02*
X10603928Y-9409929D01*
X10589643Y-9424214D01*
X10575357Y-9409929D01*
X10589643Y-9395643D01*
X10589643Y-9424214D01*
X10703928Y-9124214D02*
X10903928Y-9124214D01*
X10775357Y-9424214D01*
X11146786Y-9124214D02*
X11089643Y-9124214D01*
X11061071Y-9138500D01*
X11046786Y-9152786D01*
X11018214Y-9195643D01*
X11003928Y-9252786D01*
X11003928Y-9367072D01*
X11018214Y-9395643D01*
X11032500Y-9409929D01*
X11061071Y-9424214D01*
X11118214Y-9424214D01*
X11146786Y-9409929D01*
X11161071Y-9395643D01*
X11175357Y-9367072D01*
X11175357Y-9295643D01*
X11161071Y-9267072D01*
X11146786Y-9252786D01*
X11118214Y-9238500D01*
X11061071Y-9238500D01*
X11032500Y-9252786D01*
X11018214Y-9267072D01*
X11003928Y-9295643D01*
X11303928Y-9424214D02*
X11303928Y-9224214D01*
X11303928Y-9252786D02*
X11318214Y-9238500D01*
X11346786Y-9224214D01*
X11389643Y-9224214D01*
X11418214Y-9238500D01*
X11432500Y-9267072D01*
X11432500Y-9424214D01*
X11432500Y-9267072D02*
X11446786Y-9238500D01*
X11475357Y-9224214D01*
X11518214Y-9224214D01*
X11546786Y-9238500D01*
X11561071Y-9267072D01*
X11561071Y-9424214D01*
X11703928Y-9424214D02*
X11703928Y-9224214D01*
X11703928Y-9252786D02*
X11718214Y-9238500D01*
X11746786Y-9224214D01*
X11789643Y-9224214D01*
X11818214Y-9238500D01*
X11832500Y-9267072D01*
X11832500Y-9424214D01*
X11832500Y-9267072D02*
X11846786Y-9238500D01*
X11875357Y-9224214D01*
X11918214Y-9224214D01*
X11946786Y-9238500D01*
X11961071Y-9267072D01*
X11961071Y-9424214D01*
X12546786Y-9109929D02*
X12289643Y-9495643D01*
X12932500Y-9124214D02*
X12961071Y-9124214D01*
X12989643Y-9138500D01*
X13003928Y-9152786D01*
X13018214Y-9181357D01*
X13032500Y-9238500D01*
X13032500Y-9309929D01*
X13018214Y-9367072D01*
X13003928Y-9395643D01*
X12989643Y-9409929D01*
X12961071Y-9424214D01*
X12932500Y-9424214D01*
X12903928Y-9409929D01*
X12889643Y-9395643D01*
X12875357Y-9367072D01*
X12861071Y-9309929D01*
X12861071Y-9238500D01*
X12875357Y-9181357D01*
X12889643Y-9152786D01*
X12903928Y-9138500D01*
X12932500Y-9124214D01*
X13161071Y-9395643D02*
X13175357Y-9409929D01*
X13161071Y-9424214D01*
X13146786Y-9409929D01*
X13161071Y-9395643D01*
X13161071Y-9424214D01*
X13361071Y-9124214D02*
X13389643Y-9124214D01*
X13418214Y-9138500D01*
X13432500Y-9152786D01*
X13446786Y-9181357D01*
X13461071Y-9238500D01*
X13461071Y-9309929D01*
X13446786Y-9367072D01*
X13432500Y-9395643D01*
X13418214Y-9409929D01*
X13389643Y-9424214D01*
X13361071Y-9424214D01*
X13332500Y-9409929D01*
X13318214Y-9395643D01*
X13303928Y-9367072D01*
X13289643Y-9309929D01*
X13289643Y-9238500D01*
X13303928Y-9181357D01*
X13318214Y-9152786D01*
X13332500Y-9138500D01*
X13361071Y-9124214D01*
X13561071Y-9124214D02*
X13746786Y-9124214D01*
X13646786Y-9238500D01*
X13689643Y-9238500D01*
X13718214Y-9252786D01*
X13732500Y-9267072D01*
X13746786Y-9295643D01*
X13746786Y-9367072D01*
X13732500Y-9395643D01*
X13718214Y-9409929D01*
X13689643Y-9424214D01*
X13603928Y-9424214D01*
X13575357Y-9409929D01*
X13561071Y-9395643D01*
X13932500Y-9124214D02*
X13961071Y-9124214D01*
X13989643Y-9138500D01*
X14003928Y-9152786D01*
X14018214Y-9181357D01*
X14032500Y-9238500D01*
X14032500Y-9309929D01*
X14018214Y-9367072D01*
X14003928Y-9395643D01*
X13989643Y-9409929D01*
X13961071Y-9424214D01*
X13932500Y-9424214D01*
X13903928Y-9409929D01*
X13889643Y-9395643D01*
X13875357Y-9367072D01*
X13861071Y-9309929D01*
X13861071Y-9238500D01*
X13875357Y-9181357D01*
X13889643Y-9152786D01*
X13903928Y-9138500D01*
X13932500Y-9124214D01*
X14146786Y-9124214D02*
X14146786Y-9181357D01*
X14261071Y-9124214D02*
X14261071Y-9181357D01*
X14703928Y-9538500D02*
X14689643Y-9524214D01*
X14661071Y-9481357D01*
X14646786Y-9452786D01*
X14632500Y-9409929D01*
X14618214Y-9338500D01*
X14618214Y-9281357D01*
X14632500Y-9209929D01*
X14646786Y-9167072D01*
X14661071Y-9138500D01*
X14689643Y-9095643D01*
X14703928Y-9081357D01*
X14803928Y-9152786D02*
X14818214Y-9138500D01*
X14846786Y-9124214D01*
X14918214Y-9124214D01*
X14946786Y-9138500D01*
X14961071Y-9152786D01*
X14975357Y-9181357D01*
X14975357Y-9209929D01*
X14961071Y-9252786D01*
X14789643Y-9424214D01*
X14975357Y-9424214D01*
X15332500Y-9424214D02*
X15332500Y-9124214D01*
X15461071Y-9424214D02*
X15461071Y-9267072D01*
X15446786Y-9238500D01*
X15418214Y-9224214D01*
X15375357Y-9224214D01*
X15346786Y-9238500D01*
X15332500Y-9252786D01*
X15646786Y-9424214D02*
X15618214Y-9409929D01*
X15603928Y-9395643D01*
X15589643Y-9367072D01*
X15589643Y-9281357D01*
X15603928Y-9252786D01*
X15618214Y-9238500D01*
X15646786Y-9224214D01*
X15689643Y-9224214D01*
X15718214Y-9238500D01*
X15732500Y-9252786D01*
X15746786Y-9281357D01*
X15746786Y-9367072D01*
X15732500Y-9395643D01*
X15718214Y-9409929D01*
X15689643Y-9424214D01*
X15646786Y-9424214D01*
X15918214Y-9424214D02*
X15889643Y-9409929D01*
X15875357Y-9381357D01*
X15875357Y-9124214D01*
X16146786Y-9409929D02*
X16118214Y-9424214D01*
X16061071Y-9424214D01*
X16032500Y-9409929D01*
X16018214Y-9381357D01*
X16018214Y-9267072D01*
X16032500Y-9238500D01*
X16061071Y-9224214D01*
X16118214Y-9224214D01*
X16146786Y-9238500D01*
X16161071Y-9267072D01*
X16161071Y-9295643D01*
X16018214Y-9324214D01*
X16275357Y-9409929D02*
X16303928Y-9424214D01*
X16361071Y-9424214D01*
X16389643Y-9409929D01*
X16403928Y-9381357D01*
X16403928Y-9367072D01*
X16389643Y-9338500D01*
X16361071Y-9324214D01*
X16318214Y-9324214D01*
X16289643Y-9309929D01*
X16275357Y-9281357D01*
X16275357Y-9267072D01*
X16289643Y-9238500D01*
X16318214Y-9224214D01*
X16361071Y-9224214D01*
X16389643Y-9238500D01*
X16503928Y-9538500D02*
X16518214Y-9524214D01*
X16546786Y-9481357D01*
X16561071Y-9452786D01*
X16575357Y-9409929D01*
X16589643Y-9338500D01*
X16589643Y-9281357D01*
X16575357Y-9209929D01*
X16561071Y-9167072D01*
X16546786Y-9138500D01*
X16518214Y-9095643D01*
X16503928Y-9081357D01*
X9977500Y-9644500D02*
X9977500Y-9724500D01*
X9937500Y-9684500D02*
X10017500Y-9684500D01*
X10361071Y-9520214D02*
X10389643Y-9520214D01*
X10418214Y-9534500D01*
X10432500Y-9548786D01*
X10446786Y-9577357D01*
X10461071Y-9634500D01*
X10461071Y-9705929D01*
X10446786Y-9763072D01*
X10432500Y-9791643D01*
X10418214Y-9805929D01*
X10389643Y-9820214D01*
X10361071Y-9820214D01*
X10332500Y-9805929D01*
X10318214Y-9791643D01*
X10303928Y-9763072D01*
X10289643Y-9705929D01*
X10289643Y-9634500D01*
X10303928Y-9577357D01*
X10318214Y-9548786D01*
X10332500Y-9534500D01*
X10361071Y-9520214D01*
X10589643Y-9791643D02*
X10603928Y-9805929D01*
X10589643Y-9820214D01*
X10575357Y-9805929D01*
X10589643Y-9791643D01*
X10589643Y-9820214D01*
X10775357Y-9648786D02*
X10746786Y-9634500D01*
X10732500Y-9620214D01*
X10718214Y-9591643D01*
X10718214Y-9577357D01*
X10732500Y-9548786D01*
X10746786Y-9534500D01*
X10775357Y-9520214D01*
X10832500Y-9520214D01*
X10861071Y-9534500D01*
X10875357Y-9548786D01*
X10889643Y-9577357D01*
X10889643Y-9591643D01*
X10875357Y-9620214D01*
X10861071Y-9634500D01*
X10832500Y-9648786D01*
X10775357Y-9648786D01*
X10746786Y-9663072D01*
X10732500Y-9677357D01*
X10718214Y-9705929D01*
X10718214Y-9763072D01*
X10732500Y-9791643D01*
X10746786Y-9805929D01*
X10775357Y-9820214D01*
X10832500Y-9820214D01*
X10861071Y-9805929D01*
X10875357Y-9791643D01*
X10889643Y-9763072D01*
X10889643Y-9705929D01*
X10875357Y-9677357D01*
X10861071Y-9663072D01*
X10832500Y-9648786D01*
X11075357Y-9520214D02*
X11103928Y-9520214D01*
X11132500Y-9534500D01*
X11146786Y-9548786D01*
X11161071Y-9577357D01*
X11175357Y-9634500D01*
X11175357Y-9705929D01*
X11161071Y-9763072D01*
X11146786Y-9791643D01*
X11132500Y-9805929D01*
X11103928Y-9820214D01*
X11075357Y-9820214D01*
X11046786Y-9805929D01*
X11032500Y-9791643D01*
X11018214Y-9763072D01*
X11003928Y-9705929D01*
X11003928Y-9634500D01*
X11018214Y-9577357D01*
X11032500Y-9548786D01*
X11046786Y-9534500D01*
X11075357Y-9520214D01*
X11303928Y-9820214D02*
X11303928Y-9620214D01*
X11303928Y-9648786D02*
X11318214Y-9634500D01*
X11346786Y-9620214D01*
X11389643Y-9620214D01*
X11418214Y-9634500D01*
X11432500Y-9663072D01*
X11432500Y-9820214D01*
X11432500Y-9663072D02*
X11446786Y-9634500D01*
X11475357Y-9620214D01*
X11518214Y-9620214D01*
X11546786Y-9634500D01*
X11561071Y-9663072D01*
X11561071Y-9820214D01*
X11703928Y-9820214D02*
X11703928Y-9620214D01*
X11703928Y-9648786D02*
X11718214Y-9634500D01*
X11746786Y-9620214D01*
X11789643Y-9620214D01*
X11818214Y-9634500D01*
X11832500Y-9663072D01*
X11832500Y-9820214D01*
X11832500Y-9663072D02*
X11846786Y-9634500D01*
X11875357Y-9620214D01*
X11918214Y-9620214D01*
X11946786Y-9634500D01*
X11961071Y-9663072D01*
X11961071Y-9820214D01*
X12546786Y-9505929D02*
X12289643Y-9891643D01*
X12932500Y-9520214D02*
X12961071Y-9520214D01*
X12989643Y-9534500D01*
X13003928Y-9548786D01*
X13018214Y-9577357D01*
X13032500Y-9634500D01*
X13032500Y-9705929D01*
X13018214Y-9763072D01*
X13003928Y-9791643D01*
X12989643Y-9805929D01*
X12961071Y-9820214D01*
X12932500Y-9820214D01*
X12903928Y-9805929D01*
X12889643Y-9791643D01*
X12875357Y-9763072D01*
X12861071Y-9705929D01*
X12861071Y-9634500D01*
X12875357Y-9577357D01*
X12889643Y-9548786D01*
X12903928Y-9534500D01*
X12932500Y-9520214D01*
X13161071Y-9791643D02*
X13175357Y-9805929D01*
X13161071Y-9820214D01*
X13146786Y-9805929D01*
X13161071Y-9791643D01*
X13161071Y-9820214D01*
X13361071Y-9520214D02*
X13389643Y-9520214D01*
X13418214Y-9534500D01*
X13432500Y-9548786D01*
X13446786Y-9577357D01*
X13461071Y-9634500D01*
X13461071Y-9705929D01*
X13446786Y-9763072D01*
X13432500Y-9791643D01*
X13418214Y-9805929D01*
X13389643Y-9820214D01*
X13361071Y-9820214D01*
X13332500Y-9805929D01*
X13318214Y-9791643D01*
X13303928Y-9763072D01*
X13289643Y-9705929D01*
X13289643Y-9634500D01*
X13303928Y-9577357D01*
X13318214Y-9548786D01*
X13332500Y-9534500D01*
X13361071Y-9520214D01*
X13561071Y-9520214D02*
X13746786Y-9520214D01*
X13646786Y-9634500D01*
X13689643Y-9634500D01*
X13718214Y-9648786D01*
X13732500Y-9663072D01*
X13746786Y-9691643D01*
X13746786Y-9763072D01*
X13732500Y-9791643D01*
X13718214Y-9805929D01*
X13689643Y-9820214D01*
X13603928Y-9820214D01*
X13575357Y-9805929D01*
X13561071Y-9791643D01*
X14032500Y-9820214D02*
X13861071Y-9820214D01*
X13946786Y-9820214D02*
X13946786Y-9520214D01*
X13918214Y-9563072D01*
X13889643Y-9591643D01*
X13861071Y-9605929D01*
X14146786Y-9520214D02*
X14146786Y-9577357D01*
X14261071Y-9520214D02*
X14261071Y-9577357D01*
X14703928Y-9934500D02*
X14689643Y-9920214D01*
X14661071Y-9877357D01*
X14646786Y-9848786D01*
X14632500Y-9805929D01*
X14618214Y-9734500D01*
X14618214Y-9677357D01*
X14632500Y-9605929D01*
X14646786Y-9563072D01*
X14661071Y-9534500D01*
X14689643Y-9491643D01*
X14703928Y-9477357D01*
X14803928Y-9548786D02*
X14818214Y-9534500D01*
X14846786Y-9520214D01*
X14918214Y-9520214D01*
X14946786Y-9534500D01*
X14961071Y-9548786D01*
X14975357Y-9577357D01*
X14975357Y-9605929D01*
X14961071Y-9648786D01*
X14789643Y-9820214D01*
X14975357Y-9820214D01*
X15332500Y-9820214D02*
X15332500Y-9520214D01*
X15461071Y-9820214D02*
X15461071Y-9663072D01*
X15446786Y-9634500D01*
X15418214Y-9620214D01*
X15375357Y-9620214D01*
X15346786Y-9634500D01*
X15332500Y-9648786D01*
X15646786Y-9820214D02*
X15618214Y-9805929D01*
X15603928Y-9791643D01*
X15589643Y-9763072D01*
X15589643Y-9677357D01*
X15603928Y-9648786D01*
X15618214Y-9634500D01*
X15646786Y-9620214D01*
X15689643Y-9620214D01*
X15718214Y-9634500D01*
X15732500Y-9648786D01*
X15746786Y-9677357D01*
X15746786Y-9763072D01*
X15732500Y-9791643D01*
X15718214Y-9805929D01*
X15689643Y-9820214D01*
X15646786Y-9820214D01*
X15918214Y-9820214D02*
X15889643Y-9805929D01*
X15875357Y-9777357D01*
X15875357Y-9520214D01*
X16146786Y-9805929D02*
X16118214Y-9820214D01*
X16061071Y-9820214D01*
X16032500Y-9805929D01*
X16018214Y-9777357D01*
X16018214Y-9663072D01*
X16032500Y-9634500D01*
X16061071Y-9620214D01*
X16118214Y-9620214D01*
X16146786Y-9634500D01*
X16161071Y-9663072D01*
X16161071Y-9691643D01*
X16018214Y-9720214D01*
X16275357Y-9805929D02*
X16303928Y-9820214D01*
X16361071Y-9820214D01*
X16389643Y-9805929D01*
X16403928Y-9777357D01*
X16403928Y-9763072D01*
X16389643Y-9734500D01*
X16361071Y-9720214D01*
X16318214Y-9720214D01*
X16289643Y-9705929D01*
X16275357Y-9677357D01*
X16275357Y-9663072D01*
X16289643Y-9634500D01*
X16318214Y-9620214D01*
X16361071Y-9620214D01*
X16389643Y-9634500D01*
X16503928Y-9934500D02*
X16518214Y-9920214D01*
X16546786Y-9877357D01*
X16561071Y-9848786D01*
X16575357Y-9805929D01*
X16589643Y-9734500D01*
X16589643Y-9677357D01*
X16575357Y-9605929D01*
X16561071Y-9563072D01*
X16546786Y-9534500D01*
X16518214Y-9491643D01*
X16503928Y-9477357D01*
X9985282Y-10158283D02*
X9985282Y-10002718D01*
X9829717Y-10002718D01*
X9829717Y-10158283D01*
X9985282Y-10158283D01*
X10289643Y-9944786D02*
X10303928Y-9930500D01*
X10332500Y-9916214D01*
X10403928Y-9916214D01*
X10432500Y-9930500D01*
X10446786Y-9944786D01*
X10461071Y-9973357D01*
X10461071Y-10001929D01*
X10446786Y-10044786D01*
X10275357Y-10216214D01*
X10461071Y-10216214D01*
X10589643Y-10187643D02*
X10603928Y-10201929D01*
X10589643Y-10216214D01*
X10575357Y-10201929D01*
X10589643Y-10187643D01*
X10589643Y-10216214D01*
X10718214Y-9944786D02*
X10732500Y-9930500D01*
X10761071Y-9916214D01*
X10832500Y-9916214D01*
X10861071Y-9930500D01*
X10875357Y-9944786D01*
X10889643Y-9973357D01*
X10889643Y-10001929D01*
X10875357Y-10044786D01*
X10703928Y-10216214D01*
X10889643Y-10216214D01*
X11075357Y-9916214D02*
X11103928Y-9916214D01*
X11132500Y-9930500D01*
X11146786Y-9944786D01*
X11161071Y-9973357D01*
X11175357Y-10030500D01*
X11175357Y-10101929D01*
X11161071Y-10159072D01*
X11146786Y-10187643D01*
X11132500Y-10201929D01*
X11103928Y-10216214D01*
X11075357Y-10216214D01*
X11046786Y-10201929D01*
X11032500Y-10187643D01*
X11018214Y-10159072D01*
X11003928Y-10101929D01*
X11003928Y-10030500D01*
X11018214Y-9973357D01*
X11032500Y-9944786D01*
X11046786Y-9930500D01*
X11075357Y-9916214D01*
X11303928Y-10216214D02*
X11303928Y-10016214D01*
X11303928Y-10044786D02*
X11318214Y-10030500D01*
X11346786Y-10016214D01*
X11389643Y-10016214D01*
X11418214Y-10030500D01*
X11432500Y-10059072D01*
X11432500Y-10216214D01*
X11432500Y-10059072D02*
X11446786Y-10030500D01*
X11475357Y-10016214D01*
X11518214Y-10016214D01*
X11546786Y-10030500D01*
X11561071Y-10059072D01*
X11561071Y-10216214D01*
X11703928Y-10216214D02*
X11703928Y-10016214D01*
X11703928Y-10044786D02*
X11718214Y-10030500D01*
X11746786Y-10016214D01*
X11789643Y-10016214D01*
X11818214Y-10030500D01*
X11832500Y-10059072D01*
X11832500Y-10216214D01*
X11832500Y-10059072D02*
X11846786Y-10030500D01*
X11875357Y-10016214D01*
X11918214Y-10016214D01*
X11946786Y-10030500D01*
X11961071Y-10059072D01*
X11961071Y-10216214D01*
X12546786Y-9901929D02*
X12289643Y-10287643D01*
X12932500Y-9916214D02*
X12961071Y-9916214D01*
X12989643Y-9930500D01*
X13003928Y-9944786D01*
X13018214Y-9973357D01*
X13032500Y-10030500D01*
X13032500Y-10101929D01*
X13018214Y-10159072D01*
X13003928Y-10187643D01*
X12989643Y-10201929D01*
X12961071Y-10216214D01*
X12932500Y-10216214D01*
X12903928Y-10201929D01*
X12889643Y-10187643D01*
X12875357Y-10159072D01*
X12861071Y-10101929D01*
X12861071Y-10030500D01*
X12875357Y-9973357D01*
X12889643Y-9944786D01*
X12903928Y-9930500D01*
X12932500Y-9916214D01*
X13161071Y-10187643D02*
X13175357Y-10201929D01*
X13161071Y-10216214D01*
X13146786Y-10201929D01*
X13161071Y-10187643D01*
X13161071Y-10216214D01*
X13361071Y-9916214D02*
X13389643Y-9916214D01*
X13418214Y-9930500D01*
X13432500Y-9944786D01*
X13446786Y-9973357D01*
X13461071Y-10030500D01*
X13461071Y-10101929D01*
X13446786Y-10159072D01*
X13432500Y-10187643D01*
X13418214Y-10201929D01*
X13389643Y-10216214D01*
X13361071Y-10216214D01*
X13332500Y-10201929D01*
X13318214Y-10187643D01*
X13303928Y-10159072D01*
X13289643Y-10101929D01*
X13289643Y-10030500D01*
X13303928Y-9973357D01*
X13318214Y-9944786D01*
X13332500Y-9930500D01*
X13361071Y-9916214D01*
X13632500Y-10044786D02*
X13603928Y-10030500D01*
X13589643Y-10016214D01*
X13575357Y-9987643D01*
X13575357Y-9973357D01*
X13589643Y-9944786D01*
X13603928Y-9930500D01*
X13632500Y-9916214D01*
X13689643Y-9916214D01*
X13718214Y-9930500D01*
X13732500Y-9944786D01*
X13746786Y-9973357D01*
X13746786Y-9987643D01*
X13732500Y-10016214D01*
X13718214Y-10030500D01*
X13689643Y-10044786D01*
X13632500Y-10044786D01*
X13603928Y-10059072D01*
X13589643Y-10073357D01*
X13575357Y-10101929D01*
X13575357Y-10159072D01*
X13589643Y-10187643D01*
X13603928Y-10201929D01*
X13632500Y-10216214D01*
X13689643Y-10216214D01*
X13718214Y-10201929D01*
X13732500Y-10187643D01*
X13746786Y-10159072D01*
X13746786Y-10101929D01*
X13732500Y-10073357D01*
X13718214Y-10059072D01*
X13689643Y-10044786D01*
X13846786Y-9916214D02*
X14046786Y-9916214D01*
X13918214Y-10216214D01*
X14146786Y-9916214D02*
X14146786Y-9973357D01*
X14261071Y-9916214D02*
X14261071Y-9973357D01*
X14703928Y-10330500D02*
X14689643Y-10316214D01*
X14661071Y-10273357D01*
X14646786Y-10244786D01*
X14632500Y-10201929D01*
X14618214Y-10130500D01*
X14618214Y-10073357D01*
X14632500Y-10001929D01*
X14646786Y-9959072D01*
X14661071Y-9930500D01*
X14689643Y-9887643D01*
X14703928Y-9873357D01*
X14803928Y-9944786D02*
X14818214Y-9930500D01*
X14846786Y-9916214D01*
X14918214Y-9916214D01*
X14946786Y-9930500D01*
X14961071Y-9944786D01*
X14975357Y-9973357D01*
X14975357Y-10001929D01*
X14961071Y-10044786D01*
X14789643Y-10216214D01*
X14975357Y-10216214D01*
X15332500Y-10216214D02*
X15332500Y-9916214D01*
X15461071Y-10216214D02*
X15461071Y-10059072D01*
X15446786Y-10030500D01*
X15418214Y-10016214D01*
X15375357Y-10016214D01*
X15346786Y-10030500D01*
X15332500Y-10044786D01*
X15646786Y-10216214D02*
X15618214Y-10201929D01*
X15603928Y-10187643D01*
X15589643Y-10159072D01*
X15589643Y-10073357D01*
X15603928Y-10044786D01*
X15618214Y-10030500D01*
X15646786Y-10016214D01*
X15689643Y-10016214D01*
X15718214Y-10030500D01*
X15732500Y-10044786D01*
X15746786Y-10073357D01*
X15746786Y-10159072D01*
X15732500Y-10187643D01*
X15718214Y-10201929D01*
X15689643Y-10216214D01*
X15646786Y-10216214D01*
X15918214Y-10216214D02*
X15889643Y-10201929D01*
X15875357Y-10173357D01*
X15875357Y-9916214D01*
X16146786Y-10201929D02*
X16118214Y-10216214D01*
X16061071Y-10216214D01*
X16032500Y-10201929D01*
X16018214Y-10173357D01*
X16018214Y-10059072D01*
X16032500Y-10030500D01*
X16061071Y-10016214D01*
X16118214Y-10016214D01*
X16146786Y-10030500D01*
X16161071Y-10059072D01*
X16161071Y-10087643D01*
X16018214Y-10116214D01*
X16275357Y-10201929D02*
X16303928Y-10216214D01*
X16361071Y-10216214D01*
X16389643Y-10201929D01*
X16403928Y-10173357D01*
X16403928Y-10159072D01*
X16389643Y-10130500D01*
X16361071Y-10116214D01*
X16318214Y-10116214D01*
X16289643Y-10101929D01*
X16275357Y-10073357D01*
X16275357Y-10059072D01*
X16289643Y-10030500D01*
X16318214Y-10016214D01*
X16361071Y-10016214D01*
X16389643Y-10030500D01*
X16503928Y-10330500D02*
X16518214Y-10316214D01*
X16546786Y-10273357D01*
X16561071Y-10244786D01*
X16575357Y-10201929D01*
X16589643Y-10130500D01*
X16589643Y-10073357D01*
X16575357Y-10001929D01*
X16561071Y-9959072D01*
X16546786Y-9930500D01*
X16518214Y-9887643D01*
X16503928Y-9873357D01*
M02*
