M48
;DRILL file {KiCad no-vcs-found-33e0758~58~ubuntu16.04.1} date Wed Mar 21 11:12:08 2018
;FORMAT={-:-/ absolute / metric / decimal}
FMAT,2
METRIC,TZ
T1C0.400
T2C0.762
T3C0.800
T4C2.200
%
G90
G05
M71
T1
X102.Y-60.75
X103.Y-58.5
X103.Y-66.25
X107.Y-62.75
X107.5Y-58.5
X108.5Y-70.
X109.25Y-55.5
X109.75Y-53.75
X113.5Y-57.5
X116.75Y-54.25
X117.25Y-57.25
X120.75Y-61.75
X121.Y-57.25
X121.Y-72.75
X121.25Y-53.5
X124.75Y-61.25
X125.Y-68.5
T2
X101.45Y-57.9
X101.45Y-73.1
T3
X119.5Y-75.25
X119.5Y-77.25
T4
X103.Y-76.5
X123.75Y-76.5
T0
M30
